<svg width="627" height="323" viewBox="0 0 627 323" fill="none" xmlns="http://www.w3.org/2000/svg">
<path d="M280.75 320.922H93.9999C63.4899 320.922 36.1899 300.701 25.5099 270.181L13.1299 234.792H361.63L349.24 270.181C338.56 300.701 311.26 320.922 280.75 320.922Z" fill="#E57B07" stroke="#070707" stroke-width="4" stroke-linecap="round" stroke-linejoin="round"/>
<path d="M365.82 220.562H8.93C5.10267 220.562 2 223.664 2 227.492V227.872C2 231.699 5.10267 234.802 8.93 234.802H365.82C369.647 234.802 372.75 231.699 372.75 227.872V227.492C372.75 223.664 369.647 220.562 365.82 220.562Z" fill="#E57B07" stroke="#070707" stroke-width="4" stroke-linecap="round" stroke-linejoin="round"/>
<path d="M484.8 246.892H357.66L361.95 234.792H484.8V246.892Z" fill="#E57B07" stroke="#070707" stroke-width="4" stroke-linecap="round" stroke-linejoin="round"/>
<path d="M613.32 226.602H494.26C487.853 226.602 482.66 231.795 482.66 238.202V240.662C482.66 247.068 487.853 252.262 494.26 252.262H613.32C619.726 252.262 624.92 247.068 624.92 240.662V238.202C624.92 231.795 619.726 226.602 613.32 226.602Z" fill="#E57B07" stroke="#070707" stroke-width="4" stroke-linecap="round" stroke-linejoin="round"/>
<path d="M153.28 7.2217C101.41 26.0517 120.76 54.7117 91.5901 96.8917C81.1601 111.972 83.0801 128.152 89.3901 135.282C96.0401 142.802 101.73 157.222 144.23 155.572C186.32 153.952 202.1 126.182 243.79 120.242C258.4 118.162 275.36 114.402 281.46 100.972C285.83 91.3617 282.82 80.0617 278.57 70.4017C270.42 51.8517 257.49 34.9917 240.11 24.5817C218.7 11.7617 193.32 -7.3083 153.28 7.2217Z" fill="#F7F3EF" stroke="#070707" stroke-width="4" stroke-linecap="round" stroke-linejoin="round"/>
<path d="M180.98 103.892C197.869 103.892 211.56 90.2008 211.56 73.3119C211.56 56.4231 197.869 42.7319 180.98 42.7319C164.091 42.7319 150.4 56.4231 150.4 73.3119C150.4 90.2008 164.091 103.892 180.98 103.892Z" fill="#EFAF00" stroke="black" stroke-width="4" stroke-linecap="round" stroke-linejoin="round"/>
<path d="M183.91 164.212V209.132" stroke="#070707" stroke-width="4" stroke-linecap="round" stroke-linejoin="round"/>
<path d="M204.2 147.202V192.132" stroke="#070707" stroke-width="4" stroke-linecap="round" stroke-linejoin="round"/>
<path d="M223.94 152.142V197.062" stroke="#070707" stroke-width="4" stroke-linecap="round" stroke-linejoin="round"/>
<path d="M265.54 153.942C267.23 153.942 268.6 152.572 268.6 150.882C268.6 149.192 267.23 147.822 265.54 147.822C263.85 147.822 262.48 149.192 262.48 150.882C262.48 152.572 263.85 153.942 265.54 153.942Z" fill="#F7F3EF" stroke="#070707" stroke-width="4" stroke-linecap="round" stroke-linejoin="round"/>
<path d="M138.35 194.052C141.233 194.052 143.57 191.715 143.57 188.832C143.57 185.949 141.233 183.612 138.35 183.612C135.467 183.612 133.13 185.949 133.13 188.832C133.13 191.715 135.467 194.052 138.35 194.052Z" fill="#F7F3EF" stroke="#070707" stroke-width="4" stroke-linecap="round" stroke-linejoin="round"/>
</svg>
