<svg width="518" height="376" viewBox="0 0 518 376" fill="none" xmlns="http://www.w3.org/2000/svg">
<path d="M418.18 104.72C418.18 104.72 440.64 67.4398 476.25 78.7198" stroke="#070707" stroke-width="4" stroke-linecap="round" stroke-linejoin="round"/>
<path d="M431.39 88.7197C431.39 88.7197 445.75 87.7897 442.63 94.8997C440.63 99.3797 422.74 96.4596 422.74 96.4596C422.74 96.4596 423.34 76.7497 431.24 76.9097C437.5 77.0197 431.39 88.7197 431.39 88.7197Z" stroke="#070707" stroke-width="4" stroke-linecap="round" stroke-linejoin="round"/>
<path d="M442.22 81.0896C442.22 81.0896 455.35 82.5396 450.6 86.7496C448.18 88.8796 433.34 87.1296 433.34 87.1296C433.34 87.1296 440.03 69.5896 446.41 69.0496C452.79 68.5096 442.22 81.0896 442.22 81.0896Z" stroke="#070707" stroke-width="4" stroke-linecap="round" stroke-linejoin="round"/>
<path d="M459.27 76.4697C459.27 76.4697 469.51 79.9697 465.96 83.3597C464.24 84.9997 450.35 78.4397 450.35 78.4397C450.35 78.4397 456.62 67.1197 462.72 68.9497C466.78 70.1597 459.27 76.4697 459.27 76.4697Z" stroke="#070707" stroke-width="4" stroke-linecap="round" stroke-linejoin="round"/>
<path d="M463.86 76.3495C463.86 76.3495 486.42 70.2295 485.23 79.6295C484.34 86.7195 463.86 76.3495 463.86 76.3495Z" stroke="#070707" stroke-width="4" stroke-linecap="round" stroke-linejoin="round"/>
<path d="M413.97 123.05C413.97 123.05 417.85 80.29 381.75 70.46" stroke="#070707" stroke-width="4" stroke-linecap="round" stroke-linejoin="round"/>
<path d="M408.38 90.6496C408.38 90.6496 396.69 84.7896 398.08 90.7996C398.79 93.8596 412.08 100.4 412.08 100.4C412.08 100.4 417.08 82.3996 412.17 78.4896C407.26 74.5796 408.38 90.6496 408.38 90.6496Z" stroke="#070707" stroke-width="4" stroke-linecap="round" stroke-linejoin="round"/>
<path d="M397.11 77.7199C397.11 77.7199 386.58 75.0999 387.47 79.7899C387.91 82.0699 403.27 84.14 403.27 84.14C403.27 84.14 404.9 71.4599 398.78 69.6799C394.78 68.4699 397.11 77.7199 397.11 77.7199Z" stroke="#070707" stroke-width="4" stroke-linecap="round" stroke-linejoin="round"/>
<path d="M393.4 75.1199C393.4 75.1199 378.51 57.9499 373.84 66.3299C370.33 72.6499 393.4 75.1199 393.4 75.1199Z" stroke="#070707" stroke-width="4" stroke-linecap="round" stroke-linejoin="round"/>
<path d="M411.9 102.58C411.9 102.58 433.78 62.0096 405.52 38.5796" stroke="#070707" stroke-width="4" stroke-linecap="round" stroke-linejoin="round"/>
<path d="M419.47 66.6195C419.47 66.6195 412.59 57.5696 411.14 63.5696C410.4 66.6196 419.47 77.8596 419.47 77.8596C419.47 77.8596 431.84 65.7195 427.56 57.5495C424.72 52.1195 419.47 66.6195 419.47 66.6195Z" stroke="#070707" stroke-width="4" stroke-linecap="round" stroke-linejoin="round"/>
<path d="M416.17 51.3198C416.17 51.3198 407.82 44.7098 406.51 49.3198C405.88 51.5598 418.859 59.5998 418.859 59.5998C418.859 59.5998 426.05 48.7897 421.31 44.7197C418.18 42.0297 416.17 51.3198 416.17 51.3198Z" stroke="#070707" stroke-width="4" stroke-linecap="round" stroke-linejoin="round"/>
<path d="M413.97 47.4998C413.97 47.4998 408.22 25.9898 400.22 31.6998C394.19 35.9998 413.97 47.4998 413.97 47.4998Z" stroke="#070707" stroke-width="4" stroke-linecap="round" stroke-linejoin="round"/>
<path d="M339 334.04C336.896 333.492 335.084 332.155 333.942 330.305C332.8 328.455 332.416 326.236 332.87 324.11L381.43 117.95C384.43 105.71 397.78 98.4496 410.51 102.14L416.95 104.01C429.68 107.7 436.45 120.8 431.7 132.53L349.95 329.06C349.043 331.08 347.43 332.7 345.415 333.617C343.399 334.534 341.118 334.684 339 334.04V334.04Z" fill="#E57B07" stroke="#070707" stroke-width="4" stroke-linecap="round" stroke-linejoin="round"/>
<path d="M451.45 159.01C451.45 159.01 481.1 126.39 513.75 143.82" stroke="#070707" stroke-width="4" stroke-linecap="round" stroke-linejoin="round"/>
<path d="M467.69 145.59C467.69 145.59 481.97 147.23 477.46 153.65C474.62 157.7 457.62 151.65 457.62 151.65C457.62 151.65 462.23 132.41 469.95 133.97C476.07 135.21 467.69 145.59 467.69 145.59Z" stroke="#070707" stroke-width="4" stroke-linecap="round" stroke-linejoin="round"/>
<path d="M479.87 140.04C479.87 140.04 492.469 143.8 486.939 147.04C484.129 148.71 469.939 144.36 469.939 144.36C469.939 144.36 480.089 128.36 486.459 128.93C492.829 129.5 479.87 140.04 479.87 140.04Z" stroke="#070707" stroke-width="4" stroke-linecap="round" stroke-linejoin="round"/>
<path d="M497.55 138.53C497.55 138.53 506.89 143.79 502.71 146.48C500.71 147.79 488.39 138.88 488.39 138.88C488.39 138.88 496.85 128.88 502.47 131.76C506.19 133.72 497.55 138.53 497.55 138.53Z" stroke="#070707" stroke-width="4" stroke-linecap="round" stroke-linejoin="round"/>
<path d="M496.97 137.77C496.97 137.77 520.36 135.77 517.28 144.77C514.95 151.58 496.97 137.77 496.97 137.77Z" fill="#090909"/>
<path d="M443.58 176.22C443.58 176.22 456.11 134.93 422.68 118.88" stroke="#070707" stroke-width="4" stroke-linecap="round" stroke-linejoin="round"/>
<path d="M444.7 143.42C444.7 143.42 434.43 135.59 434.57 141.75C434.64 144.88 446.32 153.65 446.32 153.65C446.32 153.65 454.93 136.83 450.88 132.15C446.83 127.47 444.7 143.42 444.7 143.42Z" stroke="#070707" stroke-width="4" stroke-linecap="round" stroke-linejoin="round"/>
<path d="M436.29 128.72C436.29 128.72 426.49 124.28 426.41 129.05C426.41 131.36 441.03 136.12 441.03 136.12C441.03 136.12 445.22 123.95 439.57 121.12C435.84 119.22 436.29 128.72 436.29 128.72Z" stroke="#070707" stroke-width="4" stroke-linecap="round" stroke-linejoin="round"/>
<path d="M433.17 125.52C433.17 125.52 422.06 106.01 415.77 113.41C411.03 119 433.17 125.52 433.17 125.52Z" stroke="#070707" stroke-width="4" stroke-linecap="round" stroke-linejoin="round"/>
<path d="M445.72 155.72C445.72 155.72 475.48 119.72 452.52 91.7798Z" fill="#090909"/>
<path d="M460.5 121.8C460.5 121.8 455.59 111.69 452.94 117.32C451.59 120.19 458.2 132.83 458.2 132.83C458.2 132.83 472.82 123.11 470.29 114.32C468.61 108.5 460.5 121.8 460.5 121.8Z" fill="#090909"/>
<path d="M460.38 106.19C460.38 106.19 453.53 98.19 451.31 102.51C450.23 104.58 461.31 114.79 461.31 114.79C461.31 114.79 470.58 105.45 466.75 100.62C464.24 97.42 460.38 106.19 460.38 106.19Z" fill="#090909"/>
<path d="M459 102.05C459 102.05 457.75 79.9095 448.73 84.0495C441.93 87.2395 459 102.05 459 102.05Z" fill="#090909"/>
<path d="M326.92 370.08C324.962 369.165 323.444 367.514 322.695 365.487C321.946 363.459 322.027 361.218 322.92 359.25L412.68 165.44C418.12 153.96 432.68 149.2 444.45 155.09L450.39 158.09C462.13 163.98 466.11 178.09 459.04 188.71L338.68 367.14C337.399 368.96 335.506 370.259 333.347 370.798C331.188 371.338 328.907 371.083 326.92 370.08V370.08Z" fill="#E57B07" stroke="#070707" stroke-width="4" stroke-linecap="round" stroke-linejoin="round"/>
<path d="M336.98 158.72C336.98 158.72 349.1 126.5 382.43 130.15" stroke="#070707" stroke-width="4" stroke-linecap="round" stroke-linejoin="round"/>
<path d="M345.279 144.36C345.279 144.36 357.629 141.56 356.329 147.53C355.509 151.3 339.329 151.62 339.329 151.62C339.329 151.62 335.909 136.22 342.829 135.2C348.279 134.39 345.279 144.36 345.279 144.36Z" stroke="#070707" stroke-width="4" stroke-linecap="round" stroke-linejoin="round"/>
<path d="M353.21 136.88C353.21 136.88 364.96 136.11 361.65 140.07C359.97 142.07 346.65 142.86 346.65 142.86C346.65 142.86 348.98 128.26 354.43 126.92C359.88 125.58 353.21 136.88 353.21 136.88Z" stroke="#070707" stroke-width="4" stroke-linecap="round" stroke-linejoin="round"/>
<path d="M367.15 130.83C367.15 130.83 376.79 132.07 374.37 135.21C373.2 136.74 359.77 133.65 359.77 133.65C359.77 133.65 362.97 123.95 368.66 124.49C372.42 124.84 367.15 130.83 367.15 130.83Z" stroke="#070707" stroke-width="4" stroke-linecap="round" stroke-linejoin="round"/>
<path d="M371.14 130.07C371.14 130.07 389.59 122.07 390.44 129.53C391.08 135.17 371.14 130.07 371.14 130.07Z" stroke="#070707" stroke-width="4" stroke-linecap="round" stroke-linejoin="round"/>
<path d="M336.97 173.57C336.97 173.57 331.79 139.78 298.33 137.35" stroke="#070707" stroke-width="4" stroke-linecap="round" stroke-linejoin="round"/>
<path d="M325.6 149.2C325.6 149.2 314.24 146.33 316.66 150.8C317.89 153.08 330.769 156.24 330.769 156.24C330.769 156.24 331.529 141.5 326.459 139.24C321.389 136.98 325.6 149.2 325.6 149.2Z" stroke="#070707" stroke-width="4" stroke-linecap="round" stroke-linejoin="round"/>
<path d="M313.18 140.72C313.18 140.72 303.47 140.2 305.18 143.72C306.01 145.43 319.83 144.81 319.83 144.81C319.83 144.81 318.71 134.72 313.01 134.22C309.26 133.93 313.18 140.72 313.18 140.72Z" stroke="#070707" stroke-width="4" stroke-linecap="round" stroke-linejoin="round"/>
<path d="M309.43 139.29C309.43 139.29 293 128.1 290.61 135.29C288.78 140.72 309.43 139.29 309.43 139.29Z" stroke="#070707" stroke-width="4" stroke-linecap="round" stroke-linejoin="round"/>
<path d="M331.07 157.96C331.07 157.96 342.02 123.27 312.68 109.17" stroke="#070707" stroke-width="4" stroke-linecap="round" stroke-linejoin="round"/>
<path d="M330.47 128.92C330.47 128.92 322.65 122.92 322.59 127.75C322.59 130.23 332.71 137.65 332.71 137.65C332.71 137.65 341.07 126.43 335.71 120.7C332.15 116.89 330.47 128.92 330.47 128.92Z" fill="#090909"/>
<path d="M324.53 117.5C324.53 117.5 315.92 113.57 315.7 117.34C315.59 119.17 328.53 123.55 328.53 123.55C328.53 123.55 332.64 114.1 327.68 111.63C324.41 109.99 324.53 117.5 324.53 117.5Z" stroke="#070707" stroke-width="4" stroke-linecap="round" stroke-linejoin="round"/>
<path d="M321.84 114.86C321.84 114.86 312.52 98.9699 306.68 104.56C302.28 108.77 321.84 114.86 321.84 114.86Z" stroke="#070707" stroke-width="4" stroke-linecap="round" stroke-linejoin="round"/>
<path d="M322.96 370.96C318.29 370.8 314.53 367.68 314.32 363.78L304.23 177.32C303.74 166.23 314.61 157.17 327.9 157.61L334.62 157.83C347.91 158.26 358.05 168.01 356.7 179.04L332.14 364.37C331.63 368.24 327.63 371.11 322.96 370.96Z" fill="#E57B07" stroke="#070707" stroke-width="4" stroke-linecap="round" stroke-linejoin="round"/>
<path d="M148.37 350.33L142.18 353.33C101.45 272.88 68.7997 124.12 68.4697 122.63L75.2397 121.24C75.5597 122.72 108.03 270.66 148.37 350.33Z" fill="#F7F3EF" stroke="#070707" stroke-width="4" stroke-linecap="round" stroke-linejoin="round"/>
<path d="M160.65 349L154.87 352.72C137.47 326.65 113.06 277.63 95.5199 192.14C89.2435 161.787 84.7028 131.1 81.9199 100.23L88.7799 99.7202C91.5412 130.336 96.0486 160.769 102.28 190.87C111.88 237.47 129.78 302.72 160.65 349Z" fill="#F7F3EF" stroke="#070707" stroke-width="4" stroke-linecap="round" stroke-linejoin="round"/>
<path d="M144.03 353.03L137.33 354.72C137.25 354.38 128.21 320.72 107.06 275.54C87.58 233.96 53.54 173.87 2 123.72L6.86 118.9C59.18 169.81 93.68 230.72 113.41 272.87C134.78 318.53 143.94 352.72 144.03 353.03Z" fill="#F7F3EF" stroke="#070707" stroke-width="4" stroke-linecap="round" stroke-linejoin="round"/>
<path d="M151.84 344.38L145.5 347.07L33.8096 94.39L40.1496 91.71L151.84 344.38Z" fill="#F7F3EF" stroke="#070707" stroke-width="4" stroke-linecap="round" stroke-linejoin="round"/>
<path d="M137.28 354.52C137.28 354.52 129.16 327.27 117.46 299.3C117.46 299.3 122.04 289.47 132.07 292.89C140.023 312.342 149.628 331.077 160.78 348.89L137.28 354.52Z" fill="#F7F3EF" stroke="#070707" stroke-width="4" stroke-linecap="round" stroke-linejoin="round"/>
<path d="M150.353 359.498C156.939 358.428 161.77 354.44 161.145 350.591C160.519 346.743 154.674 344.49 148.089 345.56C141.503 346.631 136.672 350.618 137.297 354.467C137.923 358.315 143.768 360.568 150.353 359.498Z" fill="#F7F3EF" stroke="#070707" stroke-width="4" stroke-linecap="round" stroke-linejoin="round"/>
<path d="M205.33 351.97L199.46 355.52C159.37 261.52 125.99 87.4102 125.66 85.6602L132.1 83.9902C132.43 85.7202 165.63 258.85 205.33 351.97Z" fill="#F7F3EF" stroke="#070707" stroke-width="4" stroke-linecap="round" stroke-linejoin="round"/>
<path d="M217.04 350.35L211.58 354.72C194.58 324.27 170.53 266.98 152.52 166.92C141.78 107.22 138.2 59.8002 138.17 59.3302L144.78 58.7202C144.78 59.1802 148.34 106.17 159.02 165.42C168.78 219.95 186.86 296.28 217.04 350.35Z" fill="#F7F3EF" stroke="#070707" stroke-width="4" stroke-linecap="round" stroke-linejoin="round"/>
<path d="M201.23 355.15L194.86 357.15C194.77 356.76 185.64 317.33 164.77 264.56C145.55 215.96 112.15 145.72 62.1904 87.3101L66.7504 81.6401C117.48 140.96 151.33 212.14 170.75 261.41C191.89 314.78 201.14 354.72 201.23 355.15Z" fill="#F7F3EF" stroke="#070707" stroke-width="4" stroke-linecap="round" stroke-linejoin="round"/>
<path d="M208.56 344.98L202.54 348.16L79.5801 22.5599L85.6001 19.3799L208.56 344.98Z" fill="#F7F3EF" stroke="#070707" stroke-width="4" stroke-linecap="round" stroke-linejoin="round"/>
<path d="M195.35 359.05C195.35 359.05 186.64 325.05 175.06 292.35C175.06 292.35 179.28 280.81 188.92 284.77C196.696 307.257 206.135 329.134 217.16 350.22L195.35 359.05Z" fill="#F7F3EF" stroke="#070707" stroke-width="4" stroke-linecap="round" stroke-linejoin="round"/>
<path d="M205.09 346.33C211.31 344.89 216.85 347.39 217.46 351.92C218.07 356.45 213.53 361.28 207.31 362.72C201.09 364.16 195.55 361.66 194.94 357.14C194.33 352.62 198.87 347.77 205.09 346.33Z" fill="#F7F3EF" stroke="#070707" stroke-width="4" stroke-linecap="round" stroke-linejoin="round"/>
<path d="M177.3 327.6L158.53 324.88L45.3896 5.17L51.4097 2L177.3 327.6Z" fill="#F7F3EF" stroke="#070707" stroke-width="4" stroke-linecap="round" stroke-linejoin="round"/>
<path d="M161.36 340.72C161.36 340.72 152.46 307.66 140.87 274.95C140.87 274.95 144.87 264.32 154.49 268.28C162.521 290.413 172.036 311.979 182.97 332.83L161.36 340.72Z" fill="#F7F3EF" stroke="#070707" stroke-width="4" stroke-linecap="round" stroke-linejoin="round"/>
<path d="M171.45 330.6C177.62 329.01 182.84 330.539 183.1 334.009C183.36 337.479 178.57 341.58 172.39 343.16C166.21 344.74 161.39 343.16 161.12 339.68C160.85 336.2 165.28 332.18 171.45 330.6Z" fill="#F7F3EF" stroke="#070707" stroke-width="4" stroke-linecap="round" stroke-linejoin="round"/>
<path d="M256 316.13L269.64 308.38C270.24 308.04 270.905 307.827 271.592 307.756C272.279 307.685 272.973 307.757 273.63 307.967C274.288 308.178 274.895 308.522 275.413 308.979C275.931 309.435 276.349 309.994 276.64 310.62L285.1 328.85L265.68 339.85L254.34 323.26C253.956 322.691 253.694 322.048 253.57 321.372C253.446 320.697 253.462 320.003 253.618 319.334C253.773 318.665 254.065 318.035 254.475 317.484C254.885 316.933 255.404 316.472 256 316.13Z" fill="#F7F3EF" stroke="#070707" stroke-width="4" stroke-linecap="round" stroke-linejoin="round"/>
<path d="M268.11 331.64L276.78 326.72C287.67 320.52 299.44 320.67 305.63 331.56C311.82 342.45 304.36 358.38 293.47 364.56L292.13 365.32C281.24 371.51 263.73 369.78 257.54 358.89C251.33 348.02 257.22 337.83 268.11 331.64Z" fill="#F7F3EF" stroke="#070707" stroke-width="4" stroke-linecap="round" stroke-linejoin="round"/>
<path d="M238.91 330.98L226.19 331.18C225.631 331.188 225.075 331.08 224.56 330.863C224.044 330.646 223.579 330.324 223.193 329.919C222.808 329.513 222.511 329.031 222.321 328.505C222.131 327.978 222.053 327.418 222.09 326.86L223.18 310.61L241.28 310.33L242.88 326.54C242.942 327.099 242.885 327.664 242.714 328.199C242.543 328.734 242.261 329.227 241.886 329.646C241.512 330.065 241.053 330.4 240.54 330.63C240.027 330.86 239.472 330.979 238.91 330.98V330.98Z" fill="#F7F3EF" stroke="#070707" stroke-width="4" stroke-linecap="round" stroke-linejoin="round"/>
<path d="M236.34 315.25L228.27 315.37C218.12 315.53 209.82 310.83 209.66 300.68C209.5 290.53 221.02 282.12 231.17 281.96H232.42C242.57 281.81 254.34 289.86 254.49 299.96C254.65 310.14 246.49 315.09 236.34 315.25Z" fill="#F7F3EF" stroke="#070707" stroke-width="4" stroke-linecap="round" stroke-linejoin="round"/>
<path d="M295.96 292.081L285.11 298.721C284.634 299.02 284.1 299.216 283.544 299.295C282.987 299.375 282.42 299.336 281.879 299.181C281.338 299.026 280.836 298.759 280.406 298.397C279.975 298.035 279.626 297.587 279.38 297.081L272.07 282.531L287.52 273.101L297.12 286.261C297.454 286.709 297.69 287.223 297.812 287.769C297.935 288.314 297.942 288.88 297.832 289.428C297.723 289.977 297.5 290.496 297.178 290.953C296.855 291.41 296.44 291.794 295.96 292.081V292.081Z" fill="#F7F3EF" stroke="#070707" stroke-width="4" stroke-linecap="round" stroke-linejoin="round"/>
<path d="M285.78 279.82L278.89 284.03C270.23 289.31 260.69 289.49 255.4 280.82C250.11 272.15 255.76 259.06 264.4 253.77L265.47 253.12C274.14 247.83 288.36 248.8 293.65 257.47C298.95 266.13 294.43 274.54 285.78 279.82Z" fill="#F7F3EF" stroke="#070707" stroke-width="4" stroke-linecap="round" stroke-linejoin="round"/>
<path d="M183.7 211.26L176.53 205.82C176.213 205.581 175.95 205.279 175.756 204.932C175.562 204.586 175.443 204.203 175.405 203.808C175.368 203.413 175.413 203.015 175.538 202.638C175.662 202.261 175.864 201.915 176.13 201.62L183.83 193.04L194.04 200.79L187.85 210.52C187.638 210.855 187.358 211.141 187.029 211.362C186.699 211.583 186.328 211.733 185.938 211.802C185.548 211.872 185.147 211.86 184.762 211.766C184.377 211.673 184.015 211.501 183.7 211.26V211.26Z" fill="#F7F3EF" stroke="#070707" stroke-width="4" stroke-linecap="round" stroke-linejoin="round"/>
<path d="M189.14 201.37L184.59 197.92C178.86 193.57 176.28 187.33 180.59 181.6C184.93 175.88 195.02 176.22 200.75 180.6L201.45 181.14C207.18 185.48 210.22 195.14 205.88 200.83C201.57 206.52 194.86 205.72 189.14 201.37Z" fill="#EFAF00" stroke="black" stroke-width="4" stroke-linecap="round" stroke-linejoin="round"/>
<path d="M205.47 277.85L191.24 266.72C190.616 266.277 190.091 265.708 189.699 265.05C189.307 264.392 189.056 263.66 188.962 262.901C188.868 262.141 188.933 261.369 189.153 260.636C189.373 259.903 189.743 259.223 190.24 258.64L204.92 242.94L225.17 258.75L213.54 276.82C213.098 277.445 212.532 277.971 211.876 278.365C211.221 278.759 210.49 279.013 209.731 279.11C208.973 279.206 208.202 279.144 207.468 278.928C206.735 278.711 206.054 278.344 205.47 277.85V277.85Z" fill="#F7F3EF" stroke="#070707" stroke-width="4" stroke-linecap="round" stroke-linejoin="round"/>
<path d="M215.67 259.42L206.67 252.37C195.31 243.5 190.01 231.3 198.25 220.75C206.49 210.2 226.19 211.81 237.55 220.68L238.95 221.77C250.31 230.64 256.66 249.36 248.42 259.92C240.15 270.47 227.03 268.29 215.67 259.42Z" fill="#F7F3EF" stroke="#070707" stroke-width="4" stroke-linecap="round" stroke-linejoin="round"/>
<path d="M283.49 232.05L267.22 236.11C266.504 236.29 265.758 236.319 265.03 236.196C264.302 236.072 263.608 235.798 262.991 235.392C262.374 234.986 261.848 234.456 261.447 233.836C261.046 233.216 260.778 232.519 260.66 231.79L257.19 210.6L280.35 204.82L287.25 225.15C287.487 225.85 287.576 226.59 287.512 227.325C287.448 228.061 287.233 228.775 286.88 229.423C286.527 230.071 286.043 230.639 285.46 231.091C284.877 231.543 284.206 231.87 283.49 232.05V232.05Z" fill="#F7F3EF" stroke="#070707" stroke-width="4" stroke-linecap="round" stroke-linejoin="round"/>
<path d="M275.48 212.61L265.15 215.19C252.15 218.43 240.1 214.89 236.85 201.9C233.61 188.9 245.85 174.67 258.85 171.42L260.45 171.02C273.45 167.78 290.96 174.59 294.2 187.58C297.45 200.57 288.46 209.37 275.48 212.61Z" fill="#EFAF00" stroke="black" stroke-width="4" stroke-linecap="round" stroke-linejoin="round"/>
<path d="M341.87 373.29H176.4C135.47 373.29 100.12 347.98 91.6598 312.61L64.2998 198.15H453.97L426.6 312.61C418.15 347.98 382.78 373.29 341.87 373.29Z" fill="#F7F3EF" stroke="#070707" stroke-width="4" stroke-linecap="round" stroke-linejoin="round"/>
<path d="M128.27 360.41L97.4795 198.15" stroke="#070707" stroke-width="4" stroke-linecap="round" stroke-linejoin="round"/>
<path d="M166.549 373.27C164.378 367.288 162.705 361.137 161.549 354.88L132.109 198.15" fill="#F7F3EF"/>
<path d="M166.549 373.27C164.378 367.288 162.705 361.137 161.549 354.88L132.109 198.15" stroke="#070707" stroke-width="4" stroke-linecap="round" stroke-linejoin="round"/>
<path d="M201.37 373.79C199.09 367.647 197.341 361.321 196.14 354.88L166.78 198.15" fill="#F7F3EF"/>
<path d="M201.37 373.79C199.09 367.647 197.341 361.321 196.14 354.88L166.78 198.15" stroke="#070707" stroke-width="4" stroke-linecap="round" stroke-linejoin="round"/>
<path d="M235.92 373.55C233.679 367.484 231.96 361.238 230.78 354.88L201.38 198.15" fill="#F7F3EF"/>
<path d="M235.92 373.55C233.679 367.484 231.96 361.238 230.78 354.88L201.38 198.15" stroke="#070707" stroke-width="4" stroke-linecap="round" stroke-linejoin="round"/>
<path d="M270.58 373.64C268.326 367.544 266.593 361.268 265.4 354.88L236 198.15" fill="#F7F3EF"/>
<path d="M270.58 373.64C268.326 367.544 266.593 361.268 265.4 354.88L236 198.15" stroke="#070707" stroke-width="4" stroke-linecap="round" stroke-linejoin="round"/>
<path d="M305.28 373.72C302.98 367.61 301.223 361.309 300.03 354.89L270.63 198.16" fill="#F7F3EF"/>
<path d="M305.28 373.72C302.98 367.61 301.223 361.309 300.03 354.89L270.63 198.16" stroke="#070707" stroke-width="4" stroke-linecap="round" stroke-linejoin="round"/>
<path d="M339.67 373.18C337.502 367.228 335.83 361.107 334.67 354.88L305.27 198.15" fill="#F7F3EF"/>
<path d="M339.67 373.18C337.502 367.228 335.83 361.107 334.67 354.88L305.27 198.15" stroke="#070707" stroke-width="4" stroke-linecap="round" stroke-linejoin="round"/>
<path d="M372.719 368.55C371.301 364.067 370.155 359.502 369.289 354.88L339.899 198.15" fill="#F7F3EF"/>
<path d="M372.719 368.55C371.301 364.067 370.155 359.502 369.289 354.88L339.899 198.15" stroke="#070707" stroke-width="4" stroke-linecap="round" stroke-linejoin="round"/>
<path d="M403.219 351.42L374.529 198.15" stroke="#070707" stroke-width="4" stroke-linecap="round" stroke-linejoin="round"/>
<path d="M427.38 309.99L409.16 198.15" stroke="#070707" stroke-width="4" stroke-linecap="round" stroke-linejoin="round"/>
</svg>
