<svg width="451" height="482" viewBox="0 0 451 482" fill="none" xmlns="http://www.w3.org/2000/svg">
<path d="M414.352 187.85C403.122 230.24 368.892 348.42 336.752 345.91C297.612 342.86 346.082 165.61 346.082 165.61C346.082 165.61 385.082 9.71009 424.302 11.0501C463.522 12.3901 414.352 187.85 414.352 187.85Z" fill="#F7F3EF" stroke="#070707" stroke-width="4" stroke-linecap="round" stroke-linejoin="round"/>
<path d="M368.267 266.764C368.379 264.199 362.154 261.843 354.363 261.503C346.572 261.163 340.165 262.967 340.053 265.533C339.941 268.098 346.166 270.454 353.957 270.794C361.748 271.134 368.155 269.33 368.267 266.764Z" fill="#F7F3EF" stroke="#070707" stroke-width="4" stroke-linecap="round" stroke-linejoin="round"/>
<path d="M410.112 75.4401C417.91 75.4401 424.232 73.3583 424.232 70.7901C424.232 68.222 417.91 66.1401 410.112 66.1401C402.314 66.1401 395.992 68.222 395.992 70.7901C395.992 73.3583 402.314 75.4401 410.112 75.4401Z" fill="#F7F3EF" stroke="#070707" stroke-width="4" stroke-linecap="round" stroke-linejoin="round"/>
<path d="M400.132 116.53C410.526 116.53 418.952 113.759 418.952 110.34C418.952 106.921 410.526 104.15 400.132 104.15C389.738 104.15 381.312 106.921 381.312 110.34C381.312 113.759 389.738 116.53 400.132 116.53Z" fill="#F7F3EF" stroke="#070707" stroke-width="4" stroke-linecap="round" stroke-linejoin="round"/>
<path d="M383.982 157.97C395.651 157.97 405.112 154.859 405.112 151.02C405.112 147.182 395.651 144.07 383.982 144.07C372.312 144.07 362.852 147.182 362.852 151.02C362.852 154.859 372.312 157.97 383.982 157.97Z" fill="#F7F3EF" stroke="#070707" stroke-width="4" stroke-linecap="round" stroke-linejoin="round"/>
<path d="M383.946 230.164C384.096 226.749 375.798 223.613 365.414 223.159C355.03 222.706 346.491 225.107 346.342 228.522C346.193 231.938 354.49 235.074 364.874 235.527C375.258 235.981 383.797 233.58 383.946 230.164Z" fill="#F7F3EF" stroke="#070707" stroke-width="4" stroke-linecap="round" stroke-linejoin="round"/>
<path d="M392.131 198.118C392.299 194.284 382.983 190.762 371.325 190.253C359.666 189.744 350.079 192.44 349.912 196.275C349.744 200.11 359.06 203.631 370.718 204.14C382.377 204.649 391.964 201.953 392.131 198.118Z" fill="#F7F3EF" stroke="#070707" stroke-width="4" stroke-linecap="round" stroke-linejoin="round"/>
<path d="M204.342 150.31C204.342 150.31 212.182 139.91 200.222 129.08L204.322 127.59C215.252 134.77 216.182 145.47 216.182 145.47L204.342 150.31Z" fill="#F7F3EF" stroke="#070707" stroke-width="4" stroke-linecap="round" stroke-linejoin="round"/>
<path d="M219.921 240.16C215.073 241.927 209.742 241.84 204.953 239.914C200.165 237.989 196.257 234.362 193.981 229.73L170.241 186.86C164.751 175.7 172.441 161.41 184.121 157.16L184.451 157.03C189.663 155.132 195.415 155.382 200.442 157.724C205.469 160.067 209.361 164.309 211.261 169.52L232.401 213.34C234.302 218.551 234.055 224.304 231.715 229.334C229.375 234.363 225.132 238.257 219.921 240.16V240.16Z" fill="#EFAF00" stroke="black" stroke-width="4" stroke-linecap="round" stroke-linejoin="round"/>
<path d="M261.011 225.17C265.858 223.402 269.881 219.905 272.306 215.351C274.731 210.798 275.388 205.509 274.151 200.5L265.151 152.24C262.151 140.17 246.631 134.35 234.951 138.61L234.621 138.73C229.411 140.63 225.168 144.522 222.826 149.549C220.484 154.577 220.234 160.328 222.131 165.54L234.131 212.69C235.072 215.278 236.514 217.655 238.376 219.684C240.237 221.713 242.481 223.355 244.979 224.514C247.476 225.674 250.178 226.329 252.929 226.441C255.681 226.554 258.427 226.122 261.011 225.17V225.17Z" fill="#EFAF00" stroke="black" stroke-width="4" stroke-linecap="round" stroke-linejoin="round"/>
<path d="M241.871 235.37C239.69 236.166 237.373 236.524 235.054 236.425C232.734 236.326 230.456 235.77 228.351 234.79C226.246 233.811 224.355 232.426 222.785 230.715C221.215 229.005 219.997 227.001 219.201 224.82L198.871 169.06C197.264 164.653 197.472 159.789 199.45 155.535C201.429 151.282 205.015 147.989 209.421 146.38C211.604 145.584 213.922 145.226 216.243 145.326C218.564 145.426 220.842 145.982 222.949 146.963C225.055 147.943 226.947 149.329 228.517 151.041C230.088 152.753 231.306 154.757 232.101 156.94L252.431 212.7C253.228 214.882 253.588 217.199 253.488 219.52C253.389 221.841 252.833 224.119 251.852 226.224C250.871 228.33 249.485 230.222 247.772 231.791C246.06 233.36 244.054 234.576 241.871 235.37V235.37Z" fill="#EFAF00" stroke="black" stroke-width="4" stroke-linecap="round" stroke-linejoin="round"/>
<path d="M147.232 190.2C147.232 190.2 115.682 130.78 22.8516 179.39" stroke="#070707" stroke-width="4" stroke-linecap="round" stroke-linejoin="round"/>
<path d="M64.3318 163.19C64.3318 163.19 45.1918 168.19 45.1918 173.19C45.1918 178.19 54.7618 175.46 54.7618 175.46C54.7618 175.46 40.8818 182.31 41.3618 186.88C41.8418 191.45 51.6518 186.88 51.6518 186.88C51.6518 186.88 44.9918 200.77 50.2318 202.37C55.4718 203.97 55.7118 193.13 55.7118 193.13C55.7118 193.13 62.4118 198.41 64.3318 196.53C66.2518 194.65 59.7818 181.59 59.7818 181.59C59.7818 181.59 66.0018 189.77 69.8318 186.88C73.6618 183.99 62.6218 171.18 64.3318 163.19Z" fill="#F7F3EF" stroke="#070707" stroke-width="4" stroke-linecap="round" stroke-linejoin="round"/>
<path d="M31.1818 175.24C31.1818 175.24 13.6418 170.5 11.0118 175.24C8.3818 179.98 16.8018 177.93 16.8018 177.93C16.8018 177.93 0.801793 185.2 2.07179 190.2C3.34179 195.2 11.8018 190.2 11.8018 190.2C11.8018 190.2 10.3318 202.15 16.5918 199.85C22.8518 197.55 21.6218 181.33 31.1818 175.24Z" fill="#F7F3EF" stroke="#070707" stroke-width="4" stroke-linecap="round" stroke-linejoin="round"/>
<path d="M127.692 128.27C127.692 128.27 141.782 121.61 141.232 117.27C140.682 112.93 136.032 118.79 136.032 118.79C136.032 118.79 143.272 105.7 139.942 103.39C136.612 101.08 133.412 108.67 133.412 108.67C133.412 108.67 128.572 100.67 125.492 105.45C122.412 110.23 131.132 119.41 127.692 128.27Z" fill="#F7F3EF" stroke="#070707" stroke-width="4" stroke-linecap="round" stroke-linejoin="round"/>
<path d="M152.432 190.2C152.432 190.2 136.992 132.25 69.3418 135.76" stroke="#070707" stroke-width="4" stroke-linecap="round" stroke-linejoin="round"/>
<path d="M73.022 135C73.022 135 65.402 154.77 57.792 150.87C50.182 146.97 61.012 143.45 61.012 143.45C61.012 143.45 38.762 149 39.622 141.1C40.482 133.2 56.292 136.29 56.292 136.29C56.292 136.29 47.882 131.57 56.292 129.52C64.702 127.47 73.022 135 73.022 135Z" fill="#F7F3EF" stroke="#070707" stroke-width="4" stroke-linecap="round" stroke-linejoin="round"/>
<path d="M110.892 142.8C110.892 142.8 108.542 123.47 100.512 123.47C92.4815 123.47 102.142 135.61 102.142 135.61C102.142 135.61 92.4816 127.61 90.7216 133.13C88.9616 138.65 100.512 141.37 100.512 141.37C100.512 141.37 93.0615 150.75 98.6315 150.28C104.202 149.81 110.892 142.8 110.892 142.8Z" fill="#F7F3EF" stroke="#070707" stroke-width="4" stroke-linecap="round" stroke-linejoin="round"/>
<path d="M109.731 163.11C109.731 163.11 91.1613 157.23 87.8313 164.54C84.5013 171.85 99.5613 168.09 99.5613 168.09C99.5613 168.09 88.2413 173.55 92.5613 177.45C96.8813 181.35 104.121 172 104.121 172C104.121 172 109.561 182.66 111.451 177.41C113.341 172.16 109.731 163.11 109.731 163.11Z" fill="#F7F3EF" stroke="#070707" stroke-width="4" stroke-linecap="round" stroke-linejoin="round"/>
<path d="M123.622 144.12C123.622 144.12 139.062 135.34 136.192 131.06C133.322 126.78 123.942 137.79 123.942 137.79C123.942 137.79 120.672 125.57 116.772 127.51C112.872 129.45 123.622 144.12 123.622 144.12Z" fill="#F7F3EF" stroke="#070707" stroke-width="4" stroke-linecap="round" stroke-linejoin="round"/>
<path d="M136.552 189.48C136.552 189.48 111.502 140.88 131.362 122.75" stroke="#070707" stroke-width="4" stroke-linecap="round" stroke-linejoin="round"/>
<path d="M259.872 56C259.872 56 281.222 93.56 273.622 245.31L288.682 245.79C288.682 245.79 293.692 103 259.872 56Z" fill="#F7F3EF" stroke="#070707" stroke-width="4" stroke-linecap="round" stroke-linejoin="round"/>
<path d="M273.622 245.31C273.622 245.31 302.512 50.19 282.122 2C282.122 2 313.852 50.26 288.712 245.75L273.622 245.31Z" fill="#F7F3EF" stroke="#070707" stroke-width="4" stroke-linecap="round" stroke-linejoin="round"/>
<path d="M273.622 245.31C282.332 175.24 344.422 84 344.422 84C344.422 84 294.802 194.34 288.712 245.76L273.622 245.31Z" fill="#F7F3EF" stroke="#070707" stroke-width="4" stroke-linecap="round" stroke-linejoin="round"/>
<path d="M267.162 300.88C267.162 300.88 271.772 274.14 273.652 245.31C273.652 245.31 281.652 238.73 288.712 245.79C287.244 265.734 287.478 285.766 289.412 305.67L267.162 300.88Z" fill="#F7F3EF" stroke="#070707" stroke-width="4" stroke-linecap="round" stroke-linejoin="round"/>
<path d="M289.292 307.276C290.317 303.692 286.192 299.37 280.08 297.623C273.968 295.876 268.183 297.366 267.159 300.95C266.134 304.535 270.259 308.857 276.371 310.603C282.483 312.35 288.268 310.861 289.292 307.276Z" fill="#F7F3EF" stroke="#070707" stroke-width="4" stroke-linecap="round" stroke-linejoin="round"/>
<path d="M287.043 306.52V306.58C286.633 308.04 285.322 309.12 283.362 309.58C281.294 310.045 279.139 309.962 277.112 309.34C272.402 308 269.362 304.68 270.112 301.78V301.72C270.522 300.26 271.833 299.18 273.793 298.72C275.865 298.255 278.022 298.338 280.052 298.96C284.772 300.3 287.823 303.62 287.043 306.52ZM271.372 302.15C270.802 304.29 273.572 307.02 277.442 308.15C279.25 308.714 281.174 308.793 283.022 308.38C283.627 308.297 284.2 308.057 284.683 307.683C285.165 307.309 285.541 306.815 285.772 306.25V306.25C286.352 304.11 283.582 301.38 279.702 300.25C277.895 299.686 275.971 299.607 274.122 300.02C273.518 300.103 272.945 300.343 272.462 300.717C271.98 301.091 271.604 301.585 271.372 302.15V302.15Z" fill="#F7F3EF" stroke="#070707" stroke-width="4" stroke-linecap="round" stroke-linejoin="round"/>
<path d="M282.452 305.26C282.032 306.73 279.932 307.38 277.662 306.73C275.392 306.08 273.972 304.44 274.362 302.98C274.782 301.5 276.882 300.85 279.152 301.5C281.402 302.15 282.842 303.79 282.452 305.26ZM275.622 303.34C275.452 303.99 276.432 305.06 278.032 305.51C279.632 305.96 281.032 305.58 281.212 304.93C281.382 304.28 280.392 303.22 278.802 302.76C277.202 302.31 275.802 302.69 275.622 303.34Z" fill="#F7F3EF" stroke="#070707" stroke-width="4" stroke-linecap="round" stroke-linejoin="round"/>
<path d="M438.152 189.48L400.912 473.34H384.422L341.852 189.48H438.152Z" fill="#F7F3EF" stroke="#070707" stroke-width="4" stroke-linecap="round" stroke-linejoin="round"/>
<path d="M448.672 198.66L412.082 474.76H395.592L353.682 198.66H448.672Z" fill="#F7F3EF" stroke="#070707" stroke-width="4" stroke-linecap="round" stroke-linejoin="round"/>
<path d="M439.222 189.48L401.972 473.34H385.482L342.922 189.48H439.222Z" fill="#F7F3EF" stroke="#070707" stroke-width="4" stroke-linecap="round" stroke-linejoin="round"/>
<path d="M385.482 473.34H153.642L116.392 189.48H342.922L385.482 473.34Z" fill="#F7F3EF" stroke="#070707" stroke-width="4" stroke-linecap="round" stroke-linejoin="round"/>
<path d="M157.621 373.32C157.621 373.32 171.331 367.54 165.851 349.74L170.801 350.68C172.745 354.588 173.85 358.86 174.045 363.221C174.239 367.581 173.519 371.934 171.931 376L157.621 373.32Z" fill="#1C0E0C"/>
<path d="M119.902 471.59C114.046 470.486 108.806 467.255 105.19 462.52C101.573 457.785 99.8356 451.879 100.312 445.94L102.032 389.39C103.172 375.08 119.222 365.44 133.322 368.1L133.732 368.18C136.847 368.767 139.816 369.962 142.47 371.698C145.123 373.433 147.408 375.674 149.195 378.293C150.982 380.912 152.235 383.857 152.883 386.961C153.531 390.064 153.561 393.265 152.972 396.38L148.102 452.38C146.906 458.665 143.265 464.219 137.977 467.821C132.689 471.423 126.188 472.779 119.902 471.59V471.59Z" fill="#1C0E0C"/>
<path d="M169.512 481C175.366 482.104 181.421 481.005 186.513 477.915C191.606 474.825 195.377 469.962 197.102 464.26L216.672 411C220.822 397.26 208.842 382.33 194.742 379.67L194.342 379.59C188.049 378.405 181.542 379.767 176.253 383.377C170.963 386.986 167.323 392.548 166.132 398.84L150.272 452.72C149.672 455.841 149.694 459.05 150.337 462.162C150.98 465.274 152.231 468.228 154.019 470.856C155.807 473.483 158.095 475.732 160.754 477.473C163.413 479.214 166.389 480.412 169.512 481V481Z" fill="#1C0E0C"/>
<path d="M144.512 479.79C139.19 478.786 134.486 475.709 131.433 471.237C128.38 466.764 127.228 461.262 128.232 455.94L140.942 388.61C141.439 385.975 142.45 383.465 143.918 381.221C145.386 378.977 147.281 377.045 149.496 375.534C151.711 374.023 154.202 372.963 156.826 372.415C159.451 371.867 162.157 371.842 164.792 372.34V372.34C170.113 373.344 174.818 376.421 177.871 380.894C180.924 385.366 182.075 390.869 181.072 396.19L168.362 463.52C167.865 466.155 166.853 468.666 165.385 470.909C163.918 473.153 162.022 475.085 159.807 476.596C157.593 478.107 155.102 479.167 152.477 479.715C149.853 480.263 147.146 480.288 144.512 479.79V479.79Z" fill="#1C0E0C"/>
<path d="M145.382 365.43C145.382 365.43 159.092 359.65 153.612 341.85L158.562 342.79C160.507 346.7 161.612 350.974 161.805 355.336C161.998 359.699 161.275 364.054 159.682 368.12L145.382 365.43Z" fill="#F7F3EF" stroke="#070707" stroke-width="4" stroke-linecap="round" stroke-linejoin="round"/>
<path d="M107.622 463.7C101.767 462.596 96.527 459.366 92.9104 454.63C89.2939 449.895 87.5564 443.99 88.0322 438.05L89.7522 381.5C90.8922 367.19 106.942 357.55 121.042 360.21L121.442 360.29C124.559 360.876 127.529 362.071 130.183 363.805C132.838 365.54 135.124 367.781 136.912 370.4C138.7 373.019 139.954 375.965 140.603 379.069C141.251 382.173 141.282 385.374 140.692 388.49L135.822 444.49C134.625 450.774 130.982 456.326 125.695 459.928C120.408 463.529 113.909 464.886 107.622 463.7V463.7Z" fill="#EA631F" stroke="#070707" stroke-width="4" stroke-linecap="round" stroke-linejoin="round"/>
<path d="M157.263 473.061C163.116 474.167 169.173 473.069 174.266 469.978C179.359 466.888 183.13 462.024 184.853 456.321L204.422 403.141C208.572 389.401 196.593 374.471 182.493 371.811L182.093 371.731C178.975 371.141 175.771 371.172 172.666 371.822C169.56 372.472 166.613 373.727 163.993 375.517C161.372 377.307 159.131 379.596 157.396 382.252C155.661 384.909 154.467 387.882 153.883 391.001L138.023 444.861C137.433 447.976 137.463 451.176 138.111 454.28C138.759 457.383 140.012 460.329 141.799 462.947C143.586 465.566 145.871 467.808 148.524 469.543C151.178 471.278 154.147 472.473 157.263 473.061V473.061Z" fill="#EA631F" stroke="#070707" stroke-width="4" stroke-linecap="round" stroke-linejoin="round"/>
<path d="M132.263 471.9C126.941 470.896 122.237 467.819 119.184 463.346C116.131 458.873 114.979 453.371 115.983 448.05L128.693 380.72C129.697 375.398 132.774 370.694 137.246 367.641C141.719 364.588 147.221 363.436 152.543 364.44C157.864 365.449 162.567 368.528 165.619 373.002C168.671 377.475 169.824 382.977 168.823 388.3L156.113 455.63C155.616 458.264 154.604 460.775 153.136 463.019C151.669 465.262 149.773 467.195 147.558 468.706C145.344 470.217 142.853 471.277 140.228 471.825C137.604 472.373 134.897 472.398 132.263 471.9V471.9Z" fill="#EA631F" stroke="#070707" stroke-width="4" stroke-linecap="round" stroke-linejoin="round"/>
</svg>
