<svg width="605" height="1192" viewBox="0 0 605 1192" fill="none" xmlns="http://www.w3.org/2000/svg">
<path d="M581.179 1138.51C581.179 1153.58 592.429 1159.09 592.419 1185.84H471.619C471.619 1185.84 469.619 1158.24 498.779 1157.4C523.849 1156.67 541.099 1140.84 540.829 1138.51C540.559 1136.18 581.179 1138.51 581.179 1138.51Z" fill="#1C0E0C"/>
<path d="M590.019 1189.41H473.289C472.652 1189.41 472.042 1189.16 471.592 1188.71C471.142 1188.26 470.889 1187.65 470.889 1187.01V1183.1H592.419V1187.01C592.419 1187.65 592.166 1188.26 591.716 1188.71C591.266 1189.16 590.656 1189.41 590.019 1189.41V1189.41Z" fill="#F7F3EF" stroke="#070707" stroke-width="4" stroke-linecap="round" stroke-linejoin="round"/>
<path d="M342.15 1138.51C342.21 1153.58 353.41 1159.09 353.4 1185.84H232.6C232.6 1185.84 230.54 1158.24 259.75 1157.4C284.83 1156.67 302.08 1140.84 301.8 1138.51C301.52 1136.18 342.15 1138.51 342.15 1138.51Z" fill="#1C0E0C"/>
<path d="M350.999 1189.41H234.259C233.623 1189.41 233.012 1189.16 232.562 1188.71C232.112 1188.26 231.859 1187.65 231.859 1187.01V1183.1H353.399V1187.01C353.399 1187.65 353.147 1188.26 352.696 1188.71C352.246 1189.16 351.636 1189.41 350.999 1189.41V1189.41Z" fill="#F7F3EF" stroke="#070707" stroke-width="4" stroke-linecap="round" stroke-linejoin="round"/>
<path d="M336.359 460.091L572.479 459.841C592.139 571.611 553.909 725.711 552.479 744.641C548.479 799.641 574.749 834.031 588.259 889.641C610.259 980.391 604.789 1100.8 588.519 1146.44L524.519 1146.87C522.659 1131.14 446.879 818.871 443.169 781.101L420.979 674.761L397.759 770.521C379.429 827.141 387.559 826.981 390.169 884.161C394.649 982.551 376.799 1104.36 350.239 1146.05L277.699 1144.94C277.809 974.311 271.509 809.611 273.639 777.581C274.139 757.561 298.849 594.391 336.359 460.091Z" fill="#F7F3EF" stroke="#070707" stroke-width="4" stroke-linecap="round" stroke-linejoin="round"/>
<path d="M420.979 674.76C417.369 659.56 409.339 598.76 403.879 596.19Z" fill="#F7F3EF"/>
<path d="M420.979 674.76C417.369 659.56 409.339 598.76 403.879 596.19" stroke="#070707" stroke-width="4" stroke-linecap="round" stroke-linejoin="round"/>
<path d="M584.759 542.502C584.759 542.502 581.349 302.502 530.869 210.162C501.489 156.382 390.729 132.862 375.779 131.892C356.189 130.632 321.409 131.432 264.659 150.162C214.279 166.792 207.229 212.382 229.119 266.432C251.009 320.482 329.519 459.842 329.519 459.842C326.319 484.222 312.009 546.202 312.009 546.202C312.009 546.202 467.289 558.052 584.759 542.502Z" fill="#EFAF00" stroke="black" stroke-width="4" stroke-linecap="round" stroke-linejoin="round"/>
<path d="M396.099 135.661C396.099 135.661 400.379 176.391 349.759 204.931L340.759 183.141L369.689 129.331L396.099 135.661Z" fill="#1C0E0C"/>
<path d="M248.219 157.241C248.219 157.241 264.489 214.001 312.009 217.831L310.009 198.931L283.539 140.201L248.219 157.241Z" fill="#1C0E0C"/>
<path d="M341.779 188.591L355.199 220.661C355.831 222.96 355.925 225.374 355.472 227.715C355.018 230.056 354.031 232.26 352.586 234.157C351.141 236.054 349.278 237.592 347.142 238.65C345.005 239.709 342.653 240.26 340.269 240.261H291.899C289.281 240.26 286.705 240.911 284.401 242.154C282.098 243.397 280.14 245.193 278.703 247.382C277.267 249.57 276.397 252.081 276.173 254.689C275.949 257.297 276.377 259.92 277.419 262.321L379.049 487.271C381.429 492.441 374.509 549.181 374.509 549.181H454.869" fill="#EFAF00"/>
<path d="M341.779 188.591L355.199 220.661C355.831 222.96 355.925 225.374 355.472 227.715C355.018 230.056 354.031 232.26 352.586 234.157C351.141 236.054 349.278 237.592 347.142 238.65C345.005 239.709 342.653 240.26 340.269 240.261H291.899C289.281 240.26 286.705 240.911 284.401 242.154C282.098 243.397 280.14 245.193 278.703 247.382C277.267 249.57 276.397 252.081 276.173 254.689C275.949 257.297 276.377 259.92 277.419 262.321L379.049 487.271C381.429 492.441 374.509 549.181 374.509 549.181H454.869" stroke="black" stroke-width="4" stroke-linecap="round" stroke-linejoin="round"/>
<path d="M310.339 287.631C314.559 287.631 317.979 284.21 317.979 279.991C317.979 275.771 314.559 272.351 310.339 272.351C306.12 272.351 302.699 275.771 302.699 279.991C302.699 284.21 306.12 287.631 310.339 287.631Z" fill="#F7F3EF" stroke="#070707" stroke-width="4" stroke-linecap="round" stroke-linejoin="round"/>
<path d="M351.579 287.631C355.799 287.631 359.219 284.21 359.219 279.991C359.219 275.771 355.799 272.351 351.579 272.351C347.36 272.351 343.939 275.771 343.939 279.991C343.939 284.21 347.36 287.631 351.579 287.631Z" fill="#F7F3EF" stroke="#070707" stroke-width="4" stroke-linecap="round" stroke-linejoin="round"/>
<path d="M331.209 340.571C335.429 340.571 338.849 337.15 338.849 332.931C338.849 328.712 335.429 325.291 331.209 325.291C326.99 325.291 323.569 328.712 323.569 332.931C323.569 337.15 326.99 340.571 331.209 340.571Z" fill="#F7F3EF" stroke="#070707" stroke-width="4" stroke-linecap="round" stroke-linejoin="round"/>
<path d="M372.45 340.571C376.669 340.571 380.09 337.15 380.09 332.931C380.09 328.712 376.669 325.291 372.45 325.291C368.23 325.291 364.81 328.712 364.81 332.931C364.81 337.15 368.23 340.571 372.45 340.571Z" fill="#F7F3EF" stroke="#070707" stroke-width="4" stroke-linecap="round" stroke-linejoin="round"/>
<path d="M353.379 394.111C357.51 394.111 360.859 390.762 360.859 386.631C360.859 382.5 357.51 379.151 353.379 379.151C349.248 379.151 345.899 382.5 345.899 386.631C345.899 390.762 349.248 394.111 353.379 394.111Z" fill="#F7F3EF" stroke="#070707" stroke-width="4" stroke-linecap="round" stroke-linejoin="round"/>
<path d="M390.819 393.621C394.95 393.621 398.299 390.272 398.299 386.141C398.299 382.01 394.95 378.661 390.819 378.661C386.688 378.661 383.339 382.01 383.339 386.141C383.339 390.272 386.688 393.621 390.819 393.621Z" fill="#F7F3EF" stroke="#070707" stroke-width="4" stroke-linecap="round" stroke-linejoin="round"/>
<path d="M248.22 157.241C227.33 165.241 194.61 182.931 186.06 208.131C177.51 233.331 155.88 302.271 155.88 302.271C155.88 302.271 120.05 268.941 113.29 258.661C113.29 258.661 111.46 279.411 68.5898 280.321C68.5898 280.321 92.0699 443.951 179.59 447.861C214.17 449.411 249.16 402.861 254.08 319.471L248.22 157.241Z" fill="#EFAF00" stroke="black" stroke-width="4" stroke-linecap="round" stroke-linejoin="round"/>
<path d="M153.84 297.661C163.3 309.121 183.84 340.051 193.53 362.351Z" fill="#F7F3EF"/>
<path d="M153.84 297.661C163.3 309.121 183.84 340.051 193.53 362.351" stroke="#070707" stroke-width="4" stroke-linecap="round" stroke-linejoin="round"/>
<path d="M115.08 260.781C115.08 260.781 91.6102 219.061 73.1802 210.331C67.1802 207.461 34.9702 221.801 32.1802 225.131C29.3902 228.461 22.4902 254.861 22.4902 254.861C22.4902 254.861 33.3602 257.761 37.3602 249.931C41.9802 240.931 49.9402 231.571 60.4402 234.491C66.4402 236.171 79.1902 251.231 73.6902 254.861C68.1902 258.491 59.8102 247.861 51.9002 246.011C43.9902 244.161 38.2302 250.011 38.2302 250.011C38.2302 250.011 49.7002 255.661 54.3602 265.531C57.1202 271.351 63.6202 282.771 81.0102 279.701C103.66 275.711 115.08 260.781 115.08 260.781Z" fill="#C48270" stroke="#0F0F0F" stroke-width="4" stroke-linecap="round" stroke-linejoin="round"/>
<path d="M32.1598 225.131C32.1598 225.131 20.3598 235.661 7.00977 241.271C7.00977 241.271 10.6798 251.711 25.3198 244.521L32.1598 225.131Z" fill="#1C0E0C"/>
<path d="M68.1094 279.801C68.1094 279.801 100.109 279.351 115.109 260.801L127.599 275.271C127.599 275.271 111.249 301.011 71.6794 299.931L68.1094 279.801Z" fill="#EFAF00" stroke="black" stroke-width="4" stroke-linecap="round" stroke-linejoin="round"/>
<path d="M42.9396 270.301C43.1019 270.793 43.4064 271.226 43.8147 271.545C44.2229 271.864 44.7166 272.055 45.2332 272.093C45.7498 272.132 46.2662 272.016 46.7172 271.761C47.1682 271.506 47.5334 271.123 47.7668 270.661C48.0001 270.198 48.0911 269.677 48.0283 269.162C47.9654 268.648 47.7515 268.164 47.4136 267.771C47.0757 267.379 46.629 267.095 46.1299 266.956C45.6308 266.817 45.1017 266.83 44.6096 266.991C44.2825 267.099 43.9797 267.27 43.7187 267.494C43.4577 267.719 43.2436 267.993 43.0885 268.3C42.9334 268.608 42.8404 268.943 42.8148 269.286C42.7893 269.629 42.8317 269.974 42.9396 270.301V270.301Z" fill="#F7F3EF" stroke="#070707" stroke-width="4" stroke-linecap="round" stroke-linejoin="round"/>
<path d="M16.93 296.862C17.0611 297.255 17.3059 297.601 17.6334 297.856C17.9609 298.11 18.3564 298.262 18.7701 298.292C19.1839 298.322 19.5972 298.229 19.9581 298.024C20.3189 297.82 20.6111 297.513 20.7977 297.142C20.9844 296.772 21.0571 296.355 21.0067 295.943C20.9564 295.531 20.7852 295.143 20.5148 294.829C20.2444 294.514 19.8869 294.287 19.4874 294.175C19.0879 294.063 18.6643 294.073 18.27 294.202C18.0069 294.288 17.7633 294.425 17.5534 294.605C17.3435 294.785 17.1713 295.006 17.0468 295.253C16.9223 295.5 16.8478 295.769 16.8278 296.046C16.8077 296.322 16.8425 296.599 16.93 296.862V296.862Z" fill="#F7F3EF" stroke="#070707" stroke-width="4" stroke-linecap="round" stroke-linejoin="round"/>
<path d="M26.5897 351.202C26.7526 351.696 27.0585 352.131 27.4686 352.451C27.8787 352.771 28.3746 352.963 28.8936 353.001C29.4125 353.039 29.9311 352.923 30.3838 352.666C30.8366 352.41 31.203 352.025 31.4369 351.56C31.6707 351.095 31.7614 350.571 31.6974 350.055C31.6335 349.538 31.4178 349.053 31.0777 348.659C30.7375 348.265 30.2882 347.981 29.7866 347.843C29.285 347.704 28.7536 347.718 28.2597 347.882C27.5999 348.103 27.0543 348.576 26.7415 349.198C26.4288 349.82 26.3742 350.54 26.5897 351.202V351.202Z" fill="#F7F3EF" stroke="#070707" stroke-width="4" stroke-linecap="round" stroke-linejoin="round"/>
<path d="M48.4696 357.961C48.6487 358.504 48.9846 358.982 49.435 359.333C49.8854 359.685 50.4301 359.896 51.0001 359.938C51.57 359.98 52.1398 359.853 52.6373 359.571C53.1347 359.29 53.5376 358.867 53.7949 358.357C54.0521 357.847 54.1523 357.271 54.0827 356.704C54.0131 356.137 53.7768 355.603 53.4038 355.17C53.0307 354.737 52.5377 354.424 51.9869 354.271C51.4362 354.118 50.8525 354.132 50.3096 354.311C49.9491 354.43 49.6156 354.619 49.328 354.866C49.0404 355.114 48.8045 355.416 48.6336 355.755C48.4627 356.094 48.3603 356.463 48.3322 356.842C48.304 357.22 48.3508 357.601 48.4696 357.961V357.961Z" fill="#F7F3EF" stroke="#070707" stroke-width="4" stroke-linecap="round" stroke-linejoin="round"/>
<path d="M34.7991 399.721C35.2899 400.01 35.8551 400.147 36.4236 400.115C36.9922 400.084 37.5388 399.885 37.9948 399.544C38.4508 399.203 38.7959 398.735 38.9867 398.199C39.1776 397.662 39.2058 397.081 39.0677 396.529C38.9296 395.977 38.6314 395.477 38.2105 395.094C37.7896 394.71 37.2648 394.46 36.702 394.373C36.1392 394.287 35.5634 394.369 35.0469 394.609C34.5305 394.848 34.0964 395.235 33.7991 395.721C33.5973 396.048 33.4631 396.412 33.4042 396.792C33.3453 397.171 33.3629 397.559 33.4561 397.932C33.5493 398.305 33.7161 398.655 33.9468 398.962C34.1774 399.269 34.4672 399.527 34.7991 399.721V399.721Z" fill="#F7F3EF" stroke="#070707" stroke-width="4" stroke-linecap="round" stroke-linejoin="round"/>
<path d="M25.5494 385.231C26.1387 385.032 26.6558 384.663 27.0357 384.171C27.4156 383.678 27.6412 383.084 27.6841 382.464C27.727 381.843 27.5852 381.224 27.2767 380.684C26.9681 380.144 26.5066 379.707 25.9503 379.429C25.394 379.151 24.7678 379.044 24.1507 379.121C23.5335 379.198 22.953 379.456 22.4824 379.863C22.0117 380.27 21.6719 380.806 21.5059 381.406C21.3399 382.005 21.355 382.64 21.5494 383.231C21.6804 383.625 21.8879 383.99 22.16 384.304C22.432 384.617 22.7632 384.875 23.1347 385.06C23.5063 385.246 23.9107 385.357 24.3251 385.386C24.7394 385.415 25.1554 385.363 25.5494 385.231V385.231Z" fill="#F7F3EF" stroke="#070707" stroke-width="4" stroke-linecap="round" stroke-linejoin="round"/>
<path d="M47.0195 329.431C47.1992 329.974 47.5359 330.451 47.987 330.803C48.4381 331.154 48.9833 331.364 49.5536 331.405C50.1239 331.447 50.6937 331.318 51.1909 331.035C51.6881 330.753 52.0902 330.329 52.3465 329.818C52.6028 329.307 52.7017 328.731 52.6307 328.164C52.5596 327.596 52.3219 327.063 51.9475 326.631C51.5731 326.198 51.0788 325.887 50.5274 325.736C49.9759 325.584 49.392 325.6 48.8495 325.781C48.1232 326.023 47.5227 326.543 47.1796 327.228C46.8365 327.912 46.7789 328.704 47.0195 329.431V329.431Z" fill="#F7F3EF" stroke="#070707" stroke-width="4" stroke-linecap="round" stroke-linejoin="round"/>
<path d="M41.6993 300.451C41.8607 300.947 42.1655 301.383 42.575 301.705C42.9846 302.027 43.4805 302.22 43.9999 302.259C44.5192 302.299 45.0387 302.183 45.4923 301.927C45.946 301.671 46.3134 301.287 46.5481 300.822C46.7827 300.356 46.874 299.832 46.8103 299.315C46.7466 298.798 46.5308 298.312 46.1903 297.918C45.8498 297.523 45.3999 297.239 44.8977 297.101C44.3955 296.963 43.8636 296.977 43.3693 297.141C43.0422 297.249 42.7395 297.42 42.4785 297.644C42.2175 297.869 42.0033 298.143 41.8482 298.45C41.6931 298.758 41.6002 299.093 41.5746 299.436C41.5491 299.779 41.5914 300.124 41.6993 300.451V300.451Z" fill="#F7F3EF" stroke="#070707" stroke-width="4" stroke-linecap="round" stroke-linejoin="round"/>
<path d="M30.4193 309.032C30.5871 309.541 30.9023 309.989 31.3248 310.319C31.7474 310.649 32.2585 310.847 32.7932 310.886C33.328 310.926 33.8625 310.806 34.3291 310.541C34.7957 310.277 35.1733 309.88 35.4143 309.401C35.6552 308.922 35.7486 308.382 35.6826 307.85C35.6166 307.318 35.3943 306.817 35.0436 306.412C34.693 306.006 34.2299 305.713 33.7129 305.571C33.1959 305.429 32.6482 305.443 32.1393 305.612C31.4582 305.838 30.8946 306.325 30.5721 306.966C30.2497 307.607 30.1947 308.35 30.4193 309.032V309.032Z" fill="#F7F3EF" stroke="#070707" stroke-width="4" stroke-linecap="round" stroke-linejoin="round"/>
<path d="M32.7396 291.442C32.9074 291.951 33.2226 292.399 33.6452 292.729C34.0677 293.059 34.5788 293.257 35.1136 293.296C35.6483 293.336 36.1828 293.216 36.6494 292.952C37.116 292.687 37.4936 292.29 37.7346 291.811C37.9755 291.332 38.0689 290.793 38.0029 290.26C37.9369 289.728 37.7146 289.228 37.3639 288.822C37.0133 288.416 36.5502 288.124 36.0332 287.981C35.5162 287.839 34.9686 287.853 34.4596 288.022C33.7785 288.248 33.2149 288.735 32.8925 289.376C32.57 290.017 32.515 290.76 32.7396 291.442V291.442Z" fill="#F7F3EF" stroke="#070707" stroke-width="4" stroke-linecap="round" stroke-linejoin="round"/>
<path d="M26.2191 325.841C26.3869 326.351 26.7021 326.799 27.1247 327.129C27.5472 327.459 28.0583 327.656 28.5931 327.696C29.1278 327.735 29.6623 327.615 30.1289 327.351C30.5955 327.087 30.9731 326.69 31.2141 326.211C31.455 325.732 31.5484 325.192 31.4824 324.66C31.4164 324.128 31.1941 323.627 30.8434 323.221C30.4928 322.816 30.0297 322.523 29.5127 322.381C28.9957 322.238 28.4481 322.252 27.9391 322.421C27.258 322.647 26.6944 323.134 26.372 323.776C26.0495 324.417 25.9945 325.16 26.2191 325.841V325.841Z" fill="#F7F3EF" stroke="#070707" stroke-width="4" stroke-linecap="round" stroke-linejoin="round"/>
<path d="M37.3597 374.171C37.5276 374.681 37.8427 375.129 38.2653 375.459C38.6879 375.789 39.1989 375.986 39.7337 376.026C40.2685 376.065 40.803 375.945 41.2695 375.681C41.7361 375.417 42.1138 375.02 42.3547 374.541C42.5956 374.062 42.689 373.522 42.623 372.99C42.5571 372.458 42.3347 371.957 41.9841 371.551C41.6334 371.146 41.1703 370.853 40.6533 370.711C40.1363 370.568 39.5887 370.582 39.0797 370.751C38.3986 370.977 37.835 371.465 37.5126 372.106C37.1901 372.747 37.1352 373.49 37.3597 374.171V374.171Z" fill="#F7F3EF" stroke="#070707" stroke-width="4" stroke-linecap="round" stroke-linejoin="round"/>
<path d="M24.7494 427.742C24.9172 428.251 25.2323 428.699 25.6549 429.029C26.0775 429.359 26.5885 429.557 27.1233 429.596C27.6581 429.636 28.1926 429.516 28.6592 429.251C29.1257 428.987 29.5034 428.59 29.7443 428.111C29.9853 427.632 30.0787 427.092 30.0127 426.56C29.9467 426.028 29.7243 425.527 29.3737 425.122C29.0231 424.716 28.5599 424.423 28.0429 424.281C27.5259 424.138 26.9783 424.153 26.4694 424.322C25.7883 424.548 25.2247 425.035 24.9022 425.676C24.5798 426.317 24.5248 427.06 24.7494 427.742V427.742Z" fill="#F7F3EF" stroke="#070707" stroke-width="4" stroke-linecap="round" stroke-linejoin="round"/>
<path d="M44.4291 405.351C44.5969 405.86 44.912 406.308 45.3346 406.639C45.7572 406.969 46.2682 407.166 46.803 407.206C47.3378 407.245 47.8723 407.125 48.3389 406.861C48.8054 406.596 49.1831 406.2 49.424 405.721C49.665 405.242 49.7583 404.702 49.6924 404.17C49.6264 403.637 49.404 403.137 49.0534 402.731C48.7027 402.325 48.2396 402.033 47.7226 401.89C47.2056 401.748 46.658 401.762 46.1491 401.931C45.468 402.157 44.9044 402.644 44.5819 403.285C44.2595 403.927 44.2045 404.669 44.4291 405.351V405.351Z" fill="#F7F3EF" stroke="#070707" stroke-width="4" stroke-linecap="round" stroke-linejoin="round"/>
<path d="M11.4395 407.302C12.9362 407.302 14.1495 406.089 14.1495 404.592C14.1495 403.095 12.9362 401.882 11.4395 401.882C9.94281 401.882 8.72949 403.095 8.72949 404.592C8.72949 406.089 9.94281 407.302 11.4395 407.302Z" fill="#F7F3EF" stroke="#070707" stroke-width="4" stroke-linecap="round" stroke-linejoin="round"/>
<path d="M63.4193 404.902C63.5871 405.411 63.9023 405.859 64.3248 406.189C64.7474 406.519 65.2585 406.717 65.7932 406.756C66.328 406.796 66.8625 406.676 67.3291 406.412C67.7957 406.147 68.1733 405.75 68.4143 405.271C68.6552 404.792 68.7486 404.252 68.6826 403.72C68.6166 403.188 68.3943 402.688 68.0436 402.282C67.693 401.876 67.2299 401.583 66.7129 401.441C66.1959 401.299 65.6482 401.313 65.1393 401.482C64.4582 401.708 63.8946 402.195 63.5721 402.836C63.2497 403.477 63.1947 404.22 63.4193 404.902V404.902Z" fill="#F7F3EF" stroke="#070707" stroke-width="4" stroke-linecap="round" stroke-linejoin="round"/>
<path d="M37.5394 339.171C37.7072 339.681 38.0224 340.129 38.445 340.459C38.8675 340.789 39.3786 340.986 39.9134 341.026C40.4481 341.065 40.9827 340.945 41.4492 340.681C41.9158 340.417 42.2935 340.02 42.5344 339.541C42.7753 339.062 42.8687 338.522 42.8027 337.99C42.7368 337.458 42.5144 336.957 42.1637 336.551C41.8131 336.146 41.35 335.853 40.833 335.711C40.316 335.568 39.7684 335.582 39.2594 335.751C38.5783 335.977 38.0147 336.465 37.6923 337.106C37.3698 337.747 37.3148 338.49 37.5394 339.171V339.171Z" fill="#F7F3EF" stroke="#070707" stroke-width="4" stroke-linecap="round" stroke-linejoin="round"/>
<path d="M12.7992 361.001C12.967 361.511 13.2821 361.959 13.7047 362.289C14.1273 362.619 14.6383 362.816 15.1731 362.856C15.7079 362.896 16.2424 362.776 16.709 362.511C17.1756 362.247 17.5532 361.85 17.7941 361.371C18.0351 360.892 18.1285 360.352 18.0625 359.82C17.9965 359.288 17.7741 358.787 17.4235 358.381C17.0729 357.976 16.6097 357.683 16.0927 357.541C15.5757 357.398 15.0281 357.412 14.5192 357.581C13.8381 357.808 13.2745 358.295 12.952 358.936C12.6296 359.577 12.5746 360.32 12.7992 361.001V361.001Z" fill="#F7F3EF" stroke="#070707" stroke-width="4" stroke-linecap="round" stroke-linejoin="round"/>
<path d="M57.4496 366.122C57.6174 366.631 57.9325 367.079 58.3551 367.409C58.7777 367.739 59.2887 367.937 59.8235 367.976C60.3583 368.016 60.8928 367.896 61.3594 367.631C61.8259 367.367 62.2036 366.97 62.4445 366.491C62.6855 366.012 62.7789 365.472 62.7129 364.94C62.6469 364.408 62.4245 363.907 62.0739 363.502C61.7233 363.096 61.2601 362.803 60.7432 362.661C60.2262 362.518 59.6785 362.533 59.1696 362.702C58.4885 362.928 57.9249 363.415 57.6024 364.056C57.28 364.697 57.225 365.44 57.4496 366.122V366.122Z" fill="#F7F3EF" stroke="#070707" stroke-width="4" stroke-linecap="round" stroke-linejoin="round"/>
<path d="M37.07 262.031C37.1813 262.372 37.3912 262.672 37.6732 262.893C37.9551 263.114 38.2964 263.247 38.6537 263.274C39.011 263.301 39.3683 263.222 39.6804 263.045C39.9924 262.869 40.2451 262.604 40.4065 262.284C40.5679 261.964 40.6307 261.604 40.5869 261.248C40.5431 260.892 40.3947 260.558 40.1606 260.286C39.9264 260.015 39.617 259.82 39.2715 259.724C38.9261 259.629 38.5601 259.638 38.22 259.751C37.7659 259.902 37.3899 260.227 37.1744 260.654C36.9589 261.081 36.9214 261.577 37.07 262.031V262.031Z" fill="#F7F3EF" stroke="#070707" stroke-width="4" stroke-linecap="round" stroke-linejoin="round"/>
<path d="M44.0795 317.082C44.1925 317.419 44.4029 317.715 44.6842 317.933C44.9655 318.151 45.3051 318.281 45.66 318.306C46.0149 318.331 46.3693 318.25 46.6783 318.073C46.9873 317.897 47.2372 317.633 47.3963 317.315C47.5554 316.997 47.6167 316.638 47.5723 316.285C47.5279 315.932 47.3799 315.601 47.147 315.332C46.914 315.063 46.6066 314.869 46.2636 314.774C45.9205 314.68 45.5572 314.69 45.2195 314.802C44.9947 314.876 44.7869 314.994 44.6079 315.149C44.4289 315.304 44.2823 315.493 44.1764 315.705C44.0705 315.917 44.0074 316.147 43.9908 316.384C43.9741 316.62 44.0043 316.857 44.0795 317.082Z" fill="#F7F3EF" stroke="#070707" stroke-width="4" stroke-linecap="round" stroke-linejoin="round"/>
<path d="M44.0795 317.082C44.1925 317.419 44.4029 317.715 44.6842 317.933C44.9655 318.151 45.3051 318.281 45.66 318.306C46.0149 318.331 46.3693 318.25 46.6783 318.073C46.9873 317.897 47.2372 317.633 47.3963 317.315C47.5554 316.997 47.6167 316.638 47.5723 316.285C47.5279 315.932 47.3799 315.601 47.147 315.332C46.914 315.063 46.6066 314.869 46.2636 314.774C45.9205 314.68 45.5572 314.69 45.2195 314.802C44.9947 314.876 44.7869 314.994 44.6079 315.149C44.4289 315.304 44.2823 315.493 44.1764 315.705C44.0705 315.917 44.0074 316.147 43.9908 316.384C43.9741 316.62 44.0043 316.857 44.0795 317.082Z" fill="#F7F3EF" stroke="#070707" stroke-width="4" stroke-linecap="round" stroke-linejoin="round"/>
<path d="M46.0397 344.772C46.1511 345.112 46.361 345.412 46.6429 345.633C46.9248 345.855 47.2661 345.987 47.6234 346.014C47.9807 346.041 48.3381 345.962 48.6501 345.786C48.9622 345.609 49.2149 345.345 49.3763 345.025C49.5376 344.705 49.6004 344.344 49.5566 343.988C49.5129 343.633 49.3645 343.298 49.1303 343.027C48.8961 342.755 48.5867 342.56 48.2413 342.465C47.8958 342.369 47.5298 342.379 47.1897 342.492C46.7356 342.642 46.3596 342.967 46.1441 343.394C45.9286 343.822 45.8911 344.317 46.0397 344.772V344.772Z" fill="#F7F3EF" stroke="#070707" stroke-width="4" stroke-linecap="round" stroke-linejoin="round"/>
<path d="M20.8195 334.711C21.8136 334.711 22.6195 333.905 22.6195 332.911C22.6195 331.917 21.8136 331.111 20.8195 331.111C19.8254 331.111 19.0195 331.917 19.0195 332.911C19.0195 333.905 19.8254 334.711 20.8195 334.711Z" fill="#F7F3EF" stroke="#070707" stroke-width="4" stroke-linecap="round" stroke-linejoin="round"/>
<path d="M16.1899 346.242C16.3009 346.579 16.5091 346.876 16.7883 347.095C17.0676 347.314 17.4054 347.446 17.7593 347.473C18.1132 347.501 18.4673 347.424 18.7773 347.25C19.0872 347.077 19.339 346.817 19.5011 346.501C19.6631 346.185 19.7282 345.828 19.6881 345.475C19.648 345.123 19.5045 344.79 19.2756 344.518C19.0468 344.247 18.7428 344.049 18.4019 343.95C18.0611 343.851 17.6985 343.855 17.3599 343.962C17.1324 344.033 16.9214 344.149 16.7392 344.303C16.5569 344.457 16.407 344.645 16.2982 344.857C16.1893 345.069 16.1237 345.301 16.1051 345.539C16.0865 345.776 16.1153 346.015 16.1899 346.242V346.242Z" fill="#F7F3EF" stroke="#070707" stroke-width="4" stroke-linecap="round" stroke-linejoin="round"/>
<path d="M45.7494 390.601C45.8624 390.938 46.0728 391.235 46.3541 391.453C46.6354 391.67 46.975 391.8 47.3299 391.825C47.6848 391.85 48.0392 391.769 48.3482 391.593C48.6572 391.417 48.9071 391.153 49.0662 390.834C49.2253 390.516 49.2866 390.158 49.2422 389.805C49.1978 389.452 49.0498 389.12 48.8169 388.851C48.584 388.582 48.2765 388.388 47.9335 388.294C47.5904 388.2 47.2271 388.209 46.8894 388.321C46.6647 388.396 46.4568 388.514 46.2778 388.669C46.0988 388.824 45.9522 389.013 45.8463 389.225C45.7404 389.436 45.6773 389.667 45.6607 389.903C45.6441 390.139 45.6742 390.377 45.7494 390.601V390.601Z" fill="#F7F3EF" stroke="#070707" stroke-width="4" stroke-linecap="round" stroke-linejoin="round"/>
<path d="M62.4792 384.371C62.5905 384.712 62.8004 385.012 63.0824 385.233C63.3643 385.454 63.7055 385.587 64.0629 385.614C64.4202 385.641 64.7775 385.561 65.0896 385.385C65.4016 385.209 65.6543 384.944 65.8157 384.624C65.9771 384.304 66.0399 383.944 65.9961 383.588C65.9523 383.232 65.8039 382.898 65.5698 382.626C65.3356 382.355 65.0262 382.159 64.6807 382.064C64.3352 381.969 63.9693 381.978 63.6292 382.091C63.175 382.242 62.7991 382.567 62.5836 382.994C62.3681 383.421 62.3305 383.916 62.4792 384.371Z" fill="#F7F3EF" stroke="#070707" stroke-width="4" stroke-linecap="round" stroke-linejoin="round"/>
<path d="M22.4392 408.852C22.5505 409.192 22.7604 409.492 23.0423 409.713C23.3242 409.935 23.6655 410.067 24.0228 410.094C24.3801 410.121 24.7375 410.042 25.0495 409.866C25.3616 409.689 25.6143 409.425 25.7757 409.105C25.9371 408.785 25.9998 408.424 25.956 408.068C25.9123 407.713 25.7639 407.378 25.5297 407.107C25.2955 406.835 24.9861 406.64 24.6407 406.545C24.2952 406.449 23.9292 406.459 23.5891 406.572C23.135 406.723 22.759 407.047 22.5435 407.474C22.328 407.902 22.2905 408.397 22.4392 408.852V408.852Z" fill="#F7F3EF" stroke="#070707" stroke-width="4" stroke-linecap="round" stroke-linejoin="round"/>
<path d="M42.4155 416.085C42.5664 415.102 41.8921 414.183 40.9096 414.032C39.927 413.881 39.0081 414.556 38.8572 415.538C38.7063 416.521 39.3806 417.44 40.3631 417.591C41.3457 417.741 42.2646 417.067 42.4155 416.085Z" fill="#F7F3EF" stroke="#070707" stroke-width="4" stroke-linecap="round" stroke-linejoin="round"/>
<path d="M8.97987 390.662C9.09285 390.999 9.30329 391.295 9.5846 391.513C9.8659 391.731 10.2054 391.861 10.5604 391.886C10.9153 391.911 11.2696 391.83 11.5787 391.653C11.8877 391.477 12.1376 391.213 12.2967 390.895C12.4558 390.577 12.517 390.219 12.4727 389.866C12.4283 389.513 12.2803 389.181 12.0473 388.912C11.8144 388.643 11.507 388.449 11.164 388.354C10.8209 388.26 10.4576 388.27 10.1199 388.382C9.89512 388.456 9.6873 388.574 9.5083 388.729C9.3293 388.884 9.18265 389.073 9.07675 389.285C8.97085 389.497 8.90778 389.727 8.89116 389.964C8.87454 390.2 8.90468 390.437 8.97987 390.662V390.662Z" fill="#F7F3EF" stroke="#070707" stroke-width="4" stroke-linecap="round" stroke-linejoin="round"/>
<path d="M69.7299 394.202C69.8422 394.539 70.0519 394.835 70.3325 395.054C70.6131 395.272 70.9521 395.402 71.3066 395.428C71.6612 395.454 72.0155 395.374 72.3249 395.199C72.6342 395.024 72.8847 394.761 73.0448 394.444C73.2049 394.126 73.2675 393.768 73.2245 393.416C73.1816 393.063 73.0351 392.73 72.8035 392.461C72.5719 392.191 72.2656 391.996 71.9233 391.9C71.581 391.804 71.2179 391.811 70.8799 391.922C70.6542 391.995 70.4453 392.113 70.2652 392.267C70.0852 392.422 69.9374 392.61 69.8306 392.822C69.7237 393.034 69.6598 393.265 69.6425 393.502C69.6252 393.739 69.6549 393.976 69.7299 394.202V394.202Z" fill="#F7F3EF" stroke="#070707" stroke-width="4" stroke-linecap="round" stroke-linejoin="round"/>
<path d="M53.3591 413.531C53.4704 413.872 53.6803 414.172 53.9622 414.393C54.2442 414.614 54.5854 414.747 54.9427 414.774C55.3001 414.801 55.6574 414.722 55.9694 414.545C56.2815 414.369 56.5342 414.104 56.6956 413.784C56.857 413.464 56.9198 413.104 56.876 412.748C56.8322 412.392 56.6838 412.058 56.4496 411.786C56.2155 411.515 55.906 411.32 55.5606 411.224C55.2151 411.129 54.8492 411.138 54.5091 411.251C54.0549 411.402 53.679 411.727 53.4635 412.154C53.248 412.581 53.2104 413.077 53.3591 413.531V413.531Z" fill="#F7F3EF" stroke="#070707" stroke-width="4" stroke-linecap="round" stroke-linejoin="round"/>
<path d="M51.2202 433.604C51.3711 432.622 50.6968 431.703 49.7142 431.552C48.7316 431.401 47.8128 432.075 47.6619 433.058C47.511 434.04 48.1852 434.959 49.1678 435.11C50.1504 435.261 51.0693 434.587 51.2202 433.604Z" fill="#F7F3EF" stroke="#070707" stroke-width="4" stroke-linecap="round" stroke-linejoin="round"/>
<path d="M64.4597 422.741C64.571 423.082 64.7809 423.382 65.0628 423.603C65.3448 423.824 65.686 423.957 66.0433 423.984C66.4007 424.011 66.758 423.931 67.07 423.755C67.3821 423.579 67.6348 423.314 67.7962 422.994C67.9576 422.674 68.0203 422.314 67.9766 421.958C67.9328 421.602 67.7844 421.268 67.5502 420.996C67.3161 420.725 67.0066 420.529 66.6612 420.434C66.3157 420.339 65.9497 420.348 65.6097 420.461C65.1555 420.612 64.7796 420.937 64.564 421.364C64.3485 421.791 64.311 422.287 64.4597 422.741Z" fill="#F7F3EF" stroke="#070707" stroke-width="4" stroke-linecap="round" stroke-linejoin="round"/>
<path d="M16.7699 421.161C16.8812 421.502 17.0911 421.802 17.3731 422.023C17.655 422.244 17.9962 422.377 18.3536 422.404C18.7109 422.431 19.0682 422.351 19.3803 422.175C19.6923 421.999 19.945 421.734 20.1064 421.414C20.2678 421.094 20.3306 420.734 20.2868 420.378C20.243 420.022 20.0946 419.688 19.8605 419.416C19.6263 419.145 19.3169 418.949 18.9714 418.854C18.626 418.759 18.26 418.768 17.9199 418.881C17.6943 418.955 17.4854 419.072 17.3053 419.227C17.1252 419.381 16.9775 419.57 16.8706 419.782C16.7637 419.994 16.6998 420.225 16.6825 420.462C16.6652 420.698 16.6949 420.936 16.7699 421.161V421.161Z" fill="#F7F3EF" stroke="#070707" stroke-width="4" stroke-linecap="round" stroke-linejoin="round"/>
<path d="M2.08954 431.381C2.20086 431.722 2.41077 432.022 2.6927 432.243C2.97463 432.464 3.31589 432.597 3.67322 432.624C4.03055 432.651 4.38787 432.571 4.69992 432.395C5.01197 432.219 5.26469 431.954 5.42607 431.634C5.58745 431.314 5.65023 430.953 5.60645 430.598C5.56266 430.242 5.41428 429.907 5.18012 429.636C4.94595 429.365 4.63653 429.169 4.29106 429.074C3.9456 428.979 3.57964 428.988 3.23955 429.101C2.78539 429.252 2.40945 429.576 2.19394 430.004C1.97843 430.431 1.94089 430.926 2.08954 431.381Z" fill="#F7F3EF" stroke="#070707" stroke-width="4" stroke-linecap="round" stroke-linejoin="round"/>
<path d="M20.9594 449.871C21.0707 450.212 21.2806 450.512 21.5625 450.733C21.8445 450.954 22.1857 451.087 22.543 451.114C22.9004 451.141 23.2577 451.061 23.5697 450.885C23.8818 450.709 24.1345 450.444 24.2959 450.124C24.4573 449.804 24.52 449.444 24.4763 449.088C24.4325 448.732 24.2841 448.398 24.0499 448.126C23.8158 447.855 23.5063 447.659 23.1609 447.564C22.8154 447.469 22.4494 447.478 22.1094 447.591C21.8837 447.665 21.6748 447.782 21.4948 447.937C21.3147 448.091 21.1669 448.28 21.06 448.492C20.9532 448.704 20.8892 448.935 20.872 449.172C20.8547 449.408 20.8844 449.646 20.9594 449.871V449.871Z" fill="#F7F3EF" stroke="#070707" stroke-width="4" stroke-linecap="round" stroke-linejoin="round"/>
<path d="M23.64 363.021C23.753 363.358 23.9634 363.655 24.2448 363.873C24.5261 364.09 24.8656 364.22 25.2205 364.245C25.5754 364.27 25.9298 364.189 26.2388 364.013C26.5479 363.837 26.7977 363.573 26.9568 363.254C27.1159 362.936 27.1772 362.578 27.1328 362.225C27.0884 361.872 26.9404 361.54 26.7075 361.271C26.4746 361.002 26.1672 360.808 25.8241 360.714C25.4811 360.62 25.1177 360.629 24.78 360.741C24.5553 360.816 24.3475 360.934 24.1685 361.089C23.9895 361.244 23.8428 361.433 23.7369 361.644C23.631 361.856 23.5679 362.087 23.5513 362.323C23.5347 362.559 23.5648 362.796 23.64 363.021V363.021Z" fill="#F7F3EF" stroke="#070707" stroke-width="4" stroke-linecap="round" stroke-linejoin="round"/>
<path d="M49.8 384.541C50.7941 384.541 51.6 383.736 51.6 382.741C51.6 381.747 50.7941 380.941 49.8 380.941C48.8059 380.941 48 381.747 48 382.741C48 383.736 48.8059 384.541 49.8 384.541Z" fill="#F7F3EF" stroke="#070707" stroke-width="4" stroke-linecap="round" stroke-linejoin="round"/>
<path d="M41.7497 364.182C41.861 364.522 42.0709 364.822 42.3529 365.044C42.6348 365.265 42.9761 365.397 43.3334 365.424C43.6907 365.451 44.048 365.372 44.3601 365.196C44.6721 365.02 44.9249 364.755 45.0862 364.435C45.2476 364.115 45.3104 363.754 45.2666 363.398C45.2228 363.043 45.0744 362.708 44.8403 362.437C44.6061 362.166 44.2967 361.97 43.9512 361.875C43.6057 361.779 43.2398 361.789 42.8997 361.902C42.4455 362.053 42.0696 362.377 41.8541 362.804C41.6386 363.232 41.601 363.727 41.7497 364.182V364.182Z" fill="#F7F3EF" stroke="#070707" stroke-width="4" stroke-linecap="round" stroke-linejoin="round"/>
<path d="M257.009 116.351C255.759 114.931 255.479 145.281 260.299 167.171C269.149 207.341 297.619 216.031 303.119 216.441C335.019 218.781 357.869 184.791 357.979 173.731C358.089 162.671 357.839 154.471 357.839 154.471C357.839 154.471 379.729 141.881 369.179 129.331C362.459 121.351 316.189 102.001 257.009 116.351Z" fill="#C48270" stroke="#0F0F0F" stroke-width="4" stroke-linecap="round" stroke-linejoin="round"/>
<path d="M257.009 116.351L250.179 86.7908C250.179 86.7908 301.409 62.6608 373.599 101.011L369.179 129.331C369.179 129.331 322.949 102.041 257.009 116.351Z" fill="#F7F3EF" stroke="#070707" stroke-width="4" stroke-linecap="round" stroke-linejoin="round"/>
<path d="M228.359 67.951C235.019 80.781 246.809 88.331 250.209 86.791C268.539 78.501 294.589 79.191 303.389 79.711C337.469 117.381 422.389 174.141 415.959 99.381C409.539 24.231 275.649 -19.109 236.109 12.381C228.779 18.221 212.419 37.331 228.359 67.951Z" fill="#F7F3EF" stroke="#070707" stroke-width="4" stroke-linecap="round" stroke-linejoin="round"/>
<path d="M404.249 135.761C371.019 137.811 329.339 106.021 305.249 81.1212C305.249 81.1212 305.249 81.1212 305.199 81.0712L304.649 80.5611C286.879 63.8411 265.189 22.1912 222.649 38.2312" stroke="#070707" stroke-width="4" stroke-linecap="round" stroke-linejoin="round"/>
<path d="M307.649 112.661C307.649 112.661 276.539 140.861 252.919 130.241C226.589 118.411 249.009 99.7311 255.259 108.821C263.589 120.901 279.359 108.551 307.649 112.661Z" fill="#1C0E0C"/>
<path d="M328.999 115.481C328.999 115.481 340.999 116.761 344.689 131.481C348.379 146.201 356.199 138.371 356.199 138.371C356.199 138.371 356.849 123.491 360.649 125.211C350.704 120.254 340.011 116.967 328.999 115.481V115.481Z" fill="#1C0E0C"/>
<path d="M540.859 251.061C541.339 274.541 524.049 433.061 499.789 454.631C474.979 476.631 367.359 491.581 281.719 499.131C281.719 499.131 288.979 465.421 256.549 459.841C256.549 459.841 374.119 405.001 405.199 402.091C405.199 402.091 431.029 270.501 447.589 240.831C473.259 194.811 539.509 185.661 540.859 251.061Z" fill="#EFAF00"/>
<path d="M308.56 434.661C344.08 420.901 393.65 403.661 410.8 402.061C410.8 402.061 423.91 287.721 440.47 258.061" stroke="black" stroke-width="4" stroke-linecap="round" stroke-linejoin="round"/>
<path d="M549.419 249.971C551.729 324.061 523.009 440.201 490.419 464.061C480.419 471.411 319.089 496.481 308.329 497.241" stroke="black" stroke-width="4" stroke-linecap="round" stroke-linejoin="round"/>
<path d="M281.589 498.431C275.719 503.791 245.229 524.011 229.589 526.881C219.769 528.691 201.769 522.331 199.589 520.991C197.409 519.651 184.779 502.911 184.779 502.911C184.779 502.911 192.069 495.691 200.139 502.511C210.509 511.291 220.499 506.871 226.989 501.421C229.689 499.151 232.909 492.981 229.219 489.831C225.529 486.681 215.769 495.031 211.749 495.341C203.579 495.971 201.199 492.041 201.199 492.041C201.199 492.041 217.659 476.041 220.939 473.641C224.219 471.241 243.609 459.841 260.939 460.091C274.769 460.291 295.189 485.991 281.589 498.431Z" fill="#C48270" stroke="#0F0F0F" stroke-width="4" stroke-linecap="round" stroke-linejoin="round"/>
<path d="M256.549 459.841L278.359 449.921C278.359 449.921 306.469 460.121 308.359 498.721L281.729 499.131C281.729 499.131 277.529 469.121 256.549 459.841Z" fill="#EFAF00" stroke="black" stroke-width="4" stroke-linecap="round" stroke-linejoin="round"/>
<path d="M359.09 152.161C366.247 152.161 372.05 146.359 372.05 139.201C372.05 132.044 366.247 126.241 359.09 126.241C351.932 126.241 346.13 132.044 346.13 139.201C346.13 146.359 351.932 152.161 359.09 152.161Z" fill="#C48270"/>
<path d="M350.699 143.391C350.699 143.391 354.589 132.011 362.589 132.601" stroke="#070707" stroke-width="4" stroke-linecap="round" stroke-linejoin="round"/>
<path d="M356.199 138.331L360.649 141.541" stroke="#070707" stroke-width="4" stroke-linecap="round" stroke-linejoin="round"/>
<path d="M288.72 144.721L282.3 167.401L295.85 174.481" stroke="#070707" stroke-width="4" stroke-linecap="round" stroke-linejoin="round"/>
<path d="M308.919 148.121C311.018 148.121 312.719 146.003 312.719 143.391C312.719 140.779 311.018 138.661 308.919 138.661C306.82 138.661 305.119 140.779 305.119 143.391C305.119 146.003 306.82 148.121 308.919 148.121Z" fill="#070707"/>
<path d="M272.949 154.891C275.048 154.891 276.749 152.773 276.749 150.161C276.749 147.548 275.048 145.431 272.949 145.431C270.851 145.431 269.149 147.548 269.149 150.161C269.149 152.773 270.851 154.891 272.949 154.891Z" fill="#070707"/>
<path d="M293.22 189.661C298.361 191.131 303.87 190.562 308.603 188.074C313.335 185.586 316.927 181.369 318.63 176.301" stroke="#0F0F0F" stroke-width="4" stroke-linecap="round" stroke-linejoin="round"/>
</svg>
