<svg width="611" height="469" viewBox="0 0 611 469" fill="none" xmlns="http://www.w3.org/2000/svg">
<path d="M295.2 150.874C295.2 150.874 315.48 117.204 347.65 127.424" stroke="#070707" stroke-width="4" stroke-linecap="round" stroke-linejoin="round"/>
<path d="M307.13 136.375C307.13 136.375 320.13 135.545 317.29 141.955C315.51 146.005 299.29 143.365 299.29 143.365C299.29 143.365 299.84 125.565 306.97 125.715C312.66 125.825 307.13 136.375 307.13 136.375Z" stroke="#070707" stroke-width="4" stroke-linecap="round" stroke-linejoin="round"/>
<path d="M316.91 129.505C316.91 129.505 328.78 130.815 324.48 134.615C322.3 136.545 308.89 134.965 308.89 134.965C308.89 134.965 314.89 119.125 320.7 118.635C326.51 118.145 316.91 129.505 316.91 129.505Z" stroke="#070707" stroke-width="4" stroke-linecap="round" stroke-linejoin="round"/>
<path d="M332.31 125.335C332.31 125.335 341.57 128.495 338.36 131.555C336.8 133.035 324.25 127.115 324.25 127.115C324.25 127.115 329.92 116.895 335.43 118.545C339.07 119.665 332.31 125.335 332.31 125.335Z" stroke="#070707" stroke-width="4" stroke-linecap="round" stroke-linejoin="round"/>
<path d="M336.42 125.225C336.42 125.225 356.8 119.695 355.72 128.225C354.95 134.595 336.42 125.225 336.42 125.225Z" stroke="#070707" stroke-width="4" stroke-linecap="round" stroke-linejoin="round"/>
<path d="M291.42 167.394C291.42 167.394 294.92 128.784 262.32 119.904" stroke="#070707" stroke-width="4" stroke-linecap="round" stroke-linejoin="round"/>
<path d="M286.35 138.134C286.35 138.134 275.8 132.844 277.05 138.274C277.69 141.044 289.67 146.944 289.67 146.944C289.67 146.944 294.2 130.654 289.75 127.154C285.3 123.654 286.35 138.134 286.35 138.134Z" stroke="#070707" stroke-width="4" stroke-linecap="round" stroke-linejoin="round"/>
<path d="M276.17 126.425C276.17 126.425 266.66 124.055 267.47 128.295C267.86 130.355 281.74 132.225 281.74 132.225C281.74 132.225 283.21 120.765 277.68 119.165C274.03 118.105 276.17 126.425 276.17 126.425Z" stroke="#070707" stroke-width="4" stroke-linecap="round" stroke-linejoin="round"/>
<path d="M272.82 124.115C272.82 124.115 259.37 108.605 255.16 116.175C251.98 121.885 272.82 124.115 272.82 124.115Z" stroke="#070707" stroke-width="4" stroke-linecap="round" stroke-linejoin="round"/>
<path d="M289.53 148.915C289.53 148.915 309.29 112.265 283.76 91.1348" stroke="#070707" stroke-width="4" stroke-linecap="round" stroke-linejoin="round"/>
<path d="M296.42 116.434C296.42 116.434 290.2 108.264 288.89 113.674C288.23 116.434 296.41 126.584 296.41 126.584C296.41 126.584 307.59 115.584 303.73 108.244C301.11 103.344 296.42 116.434 296.42 116.434Z" stroke="#070707" stroke-width="4" stroke-linecap="round" stroke-linejoin="round"/>
<path d="M293.42 102.664C293.42 102.664 285.88 96.6642 284.69 100.854C284.12 102.854 295.85 110.134 295.85 110.134C295.85 110.134 302.35 100.374 298.06 96.7042C295.2 94.2242 293.42 102.664 293.42 102.664Z" stroke="#070707" stroke-width="4" stroke-linecap="round" stroke-linejoin="round"/>
<path d="M291.42 99.1741C291.42 99.1741 286.23 79.7441 279.01 84.8941C273.53 88.7741 291.42 99.1741 291.42 99.1741Z" stroke="#070707" stroke-width="4" stroke-linecap="round" stroke-linejoin="round"/>
<path d="M223.69 357.965C221.783 357.47 220.142 356.257 219.109 354.579C218.077 352.902 217.733 350.89 218.15 348.965L262.01 162.765C264.72 151.715 276.78 145.155 288.28 148.485L294.09 150.175C305.59 153.505 311.71 165.335 307.41 175.935L233.58 353.465C232.761 355.29 231.305 356.754 229.484 357.582C227.664 358.41 225.604 358.546 223.69 357.965Z" fill="#E57B07" stroke="#070707" stroke-width="4" stroke-linecap="round" stroke-linejoin="round"/>
<path d="M363.6 180.934C363.6 180.934 383.88 147.274 416.04 157.484" stroke="#070707" stroke-width="4" stroke-linecap="round" stroke-linejoin="round"/>
<path d="M375.52 166.434C375.52 166.434 388.52 165.604 385.68 172.024C383.9 176.024 367.68 173.434 367.68 173.434C367.68 173.434 368.22 155.634 375.35 155.774C381.05 155.894 375.52 166.434 375.52 166.434Z" stroke="#070707" stroke-width="4" stroke-linecap="round" stroke-linejoin="round"/>
<path d="M385.31 159.564C385.31 159.564 397.17 160.884 392.87 164.674C390.69 166.604 377.29 165.024 377.29 165.024C377.29 165.024 383.29 149.184 389.09 148.694C394.89 148.204 385.31 159.564 385.31 159.564Z" stroke="#070707" stroke-width="4" stroke-linecap="round" stroke-linejoin="round"/>
<path d="M400.71 155.394C400.71 155.394 409.96 158.554 406.71 161.614C405.16 163.104 392.61 157.174 392.61 157.174C392.61 157.174 398.27 146.954 403.78 148.604C407.47 149.664 400.71 155.394 400.71 155.394Z" stroke="#070707" stroke-width="4" stroke-linecap="round" stroke-linejoin="round"/>
<path d="M404.86 155.294C404.86 155.294 425.23 149.754 424.16 158.294C423.35 164.664 404.86 155.294 404.86 155.294Z" stroke="#070707" stroke-width="4" stroke-linecap="round" stroke-linejoin="round"/>
<path d="M359.79 197.465C359.79 197.465 363.3 158.845 330.69 149.975" stroke="#070707" stroke-width="4" stroke-linecap="round" stroke-linejoin="round"/>
<path d="M354.74 168.205C354.74 168.205 344.19 162.905 345.45 168.345C346.09 171.105 358.07 177.005 358.07 177.005C358.07 177.005 362.59 160.715 358.15 157.225C353.71 153.735 354.74 168.205 354.74 168.205Z" stroke="#070707" stroke-width="4" stroke-linecap="round" stroke-linejoin="round"/>
<path d="M344.57 156.494C344.57 156.494 335.06 154.124 335.86 158.364C336.25 160.424 350.13 162.284 350.13 162.284C350.13 162.284 351.6 150.834 346.07 149.224C342.42 148.164 344.57 156.494 344.57 156.494Z" stroke="#070707" stroke-width="4" stroke-linecap="round" stroke-linejoin="round"/>
<path d="M341.22 154.174C341.22 154.174 327.76 138.664 323.55 146.234C320.42 151.944 341.22 154.174 341.22 154.174Z" stroke="#070707" stroke-width="4" stroke-linecap="round" stroke-linejoin="round"/>
<path d="M357.92 178.974C357.92 178.974 377.68 142.334 352.16 121.204" stroke="#070707" stroke-width="4" stroke-linecap="round" stroke-linejoin="round"/>
<path d="M364.77 146.494C364.77 146.494 358.55 138.324 357.24 143.744C356.57 146.494 364.76 156.654 364.76 156.654C364.76 156.654 375.93 145.654 372.07 138.304C369.51 133.404 364.77 146.494 364.77 146.494Z" stroke="#070707" stroke-width="4" stroke-linecap="round" stroke-linejoin="round"/>
<path d="M361.78 132.664C361.78 132.664 354.24 126.664 353.06 130.854C352.48 132.854 364.21 140.144 364.21 140.144C364.21 140.144 370.71 130.374 366.42 126.704C363.59 124.284 361.78 132.664 361.78 132.664Z" stroke="#070707" stroke-width="4" stroke-linecap="round" stroke-linejoin="round"/>
<path d="M359.79 129.235C359.79 129.235 354.6 109.805 347.38 114.955C341.93 118.845 359.79 129.235 359.79 129.235Z" stroke="#070707" stroke-width="4" stroke-linecap="round" stroke-linejoin="round"/>
<path d="M292.08 388.024C290.173 387.531 288.531 386.318 287.499 384.64C286.468 382.961 286.128 380.948 286.55 379.024L330.42 192.854C333.13 181.804 345.19 175.244 356.69 178.584L362.51 180.274C374.01 183.604 380.12 195.434 375.82 206.024L301.99 383.524C301.173 385.355 299.713 386.823 297.888 387.652C296.062 388.481 293.996 388.613 292.08 388.024V388.024Z" fill="#E57B07" stroke="#070707" stroke-width="4" stroke-linecap="round" stroke-linejoin="round"/>
<path d="M120.325 150.405L115.634 152.914L257.098 417.409L261.79 414.9L120.325 150.405Z" fill="#F7F3EF" stroke="#070707" stroke-width="4" stroke-linecap="round" stroke-linejoin="round"/>
<path d="M128.416 146.081L123.725 148.59L265.19 413.085L269.881 410.576L128.416 146.081Z" fill="#F7F3EF" stroke="#070707" stroke-width="4" stroke-linecap="round" stroke-linejoin="round"/>
<path d="M144.598 137.419L139.907 139.928L281.372 404.423L286.063 401.914L144.598 137.419Z" fill="#F7F3EF" stroke="#070707" stroke-width="4" stroke-linecap="round" stroke-linejoin="round"/>
<path d="M160.782 128.761L156.09 131.271L297.555 395.766L302.246 393.257L160.782 128.761Z" fill="#F7F3EF" stroke="#070707" stroke-width="4" stroke-linecap="round" stroke-linejoin="round"/>
<path d="M136.508 141.747L131.817 144.256L273.282 408.751L277.973 406.242L136.508 141.747Z" fill="#F7F3EF" stroke="#070707" stroke-width="4" stroke-linecap="round" stroke-linejoin="round"/>
<path d="M152.69 133.086L147.999 135.595L289.464 400.09L294.155 397.581L152.69 133.086Z" fill="#F7F3EF" stroke="#070707" stroke-width="4" stroke-linecap="round" stroke-linejoin="round"/>
<path d="M168.886 124.442L164.195 126.951L305.66 391.446L310.351 388.937L168.886 124.442Z" fill="#F7F3EF" stroke="#070707" stroke-width="4" stroke-linecap="round" stroke-linejoin="round"/>
<path d="M181.024 143.905L176.333 146.414L317.798 410.909L322.489 408.4L181.024 143.905Z" fill="#F7F3EF" stroke="#070707" stroke-width="4" stroke-linecap="round" stroke-linejoin="round"/>
<path d="M189.106 139.582L184.415 142.091L325.879 406.586L330.57 404.077L189.106 139.582Z" fill="#F7F3EF" stroke="#070707" stroke-width="4" stroke-linecap="round" stroke-linejoin="round"/>
<path d="M197.202 135.257L192.511 137.766L333.976 402.261L338.667 399.752L197.202 135.257Z" fill="#F7F3EF" stroke="#070707" stroke-width="4" stroke-linecap="round" stroke-linejoin="round"/>
<path d="M205.302 130.928L200.611 133.438L342.076 397.933L346.767 395.424L205.302 130.928Z" fill="#F7F3EF" stroke="#070707" stroke-width="4" stroke-linecap="round" stroke-linejoin="round"/>
<path d="M121.52 195.024H430.72V423.664C430.72 435.148 426.158 446.162 418.038 454.282C409.917 462.402 398.904 466.964 387.42 466.964H164.82C153.336 466.964 142.323 462.402 134.202 454.282C126.082 446.162 121.52 435.148 121.52 423.664V195.024Z" fill="#F7F3EF" stroke="#070707" stroke-width="4" stroke-linecap="round" stroke-linejoin="round"/>
<path d="M430.72 217.664H466.79L505.59 193.544C506.611 192.755 507.35 191.657 507.698 190.414C508.045 189.171 507.983 187.849 507.52 186.644V186.644C505.87 182.474 500.19 181.134 496.52 184.044L461.72 204.954H430.72V217.664Z" fill="#F7F3EF" stroke="#070707" stroke-width="4" stroke-linecap="round" stroke-linejoin="round"/>
<path d="M121.5 217.665H85.4198L46.6198 193.515C45.5987 192.725 44.8595 191.628 44.5118 190.385C44.1641 189.142 44.2266 187.82 44.6898 186.615V186.615C46.3398 182.445 52.0298 181.105 55.6898 184.015L90.4198 204.925H121.42L121.5 217.665Z" fill="#F7F3EF" stroke="#070707" stroke-width="4" stroke-linecap="round" stroke-linejoin="round"/>
<path d="M430.72 127.464L143.05 14.1044C164.76 -0.105567 229.69 8.38443 300.49 36.2744C371.29 64.1644 424.54 102.264 430.72 127.464Z" fill="#F7F3EF" stroke="#070707" stroke-width="4" stroke-linecap="round" stroke-linejoin="round"/>
<path d="M334.24 19.8744L290.14 2.49441C285.87 0.814412 281.38 3.61441 281.51 7.89441L282.16 29.1544L321.89 44.8144L336.89 29.7044C339.88 26.6644 338.51 21.5544 334.24 19.8744Z" fill="#F7F3EF" stroke="#070707" stroke-width="4" stroke-linecap="round" stroke-linejoin="round"/>
<path d="M575.28 215.124H569.69C570.151 216.057 570.394 217.083 570.4 218.124V223.234C570.4 224.468 569.911 225.652 569.039 226.526C568.167 227.399 566.984 227.892 565.75 227.894H537.48C536.868 227.894 536.262 227.774 535.697 227.539C535.131 227.305 534.618 226.962 534.185 226.529C533.752 226.097 533.409 225.583 533.175 225.017C532.941 224.452 532.82 223.846 532.82 223.234V218.164C532.827 217.123 533.069 216.097 533.53 215.164H527.7V205.394C527.699 204.494 527.875 203.602 528.219 202.77C528.562 201.938 529.067 201.181 529.703 200.544C530.339 199.907 531.095 199.401 531.926 199.057C532.758 198.712 533.65 198.534 534.55 198.534H568.42C569.321 198.533 570.214 198.709 571.047 199.054C571.88 199.398 572.637 199.903 573.274 200.541C573.911 201.178 574.416 201.935 574.761 202.767C575.105 203.6 575.281 204.493 575.28 205.394V215.124Z" fill="#F7F3EF" stroke="#070707" stroke-width="4" stroke-linecap="round" stroke-linejoin="round"/>
<path d="M597.6 346.774L591.75 432.844C591.553 436.46 589.99 439.866 587.378 442.373C584.767 444.881 581.3 446.304 577.68 446.354H525.3C521.679 446.306 518.211 444.884 515.599 442.376C512.987 439.868 511.425 436.461 511.23 432.844L505.42 346.774H597.6Z" fill="#F7F3EF" stroke="#070707" stroke-width="4" stroke-linecap="round" stroke-linejoin="round"/>
<path d="M608.25 322.064L599.93 440.924C599.612 445.197 597.693 449.193 594.556 452.111C591.418 455.03 587.295 456.656 583.01 456.664H520.01C515.719 456.655 511.59 455.023 508.451 452.096C505.313 449.17 503.398 445.164 503.09 440.884L494.73 322.064C494.394 317.334 495.278 312.596 497.299 308.306C499.32 304.016 502.409 300.317 506.27 297.564C510.477 294.642 513.917 290.746 516.295 286.209C518.673 281.672 519.92 276.627 519.93 271.504L519.57 226.834C519.502 225.321 519.742 223.81 520.274 222.393C520.807 220.975 521.621 219.68 522.668 218.586C523.714 217.491 524.972 216.62 526.364 216.026C527.757 215.431 529.256 215.124 530.77 215.124H572.2C573.716 215.121 575.217 215.426 576.612 216.02C578.006 216.613 579.266 217.484 580.315 218.579C581.364 219.673 582.18 220.969 582.714 222.388C583.247 223.807 583.487 225.32 583.42 226.834L583.05 271.504C583.065 276.627 584.315 281.671 586.695 286.207C589.074 290.744 592.513 294.64 596.72 297.564C600.578 300.32 603.664 304.02 605.682 308.309C607.701 312.599 608.585 317.335 608.25 322.064V322.064Z" fill="#E57B07" stroke="#070707" stroke-width="4" stroke-linecap="round" stroke-linejoin="round"/>
<path d="M580.6 394.194C579.71 399.194 566.97 405.384 551.4 405.384C535.83 405.384 523.09 399.144 522.19 394.194L522.31 331.624C523.91 326.884 536.31 320.914 551.4 320.914C566.49 320.914 578.89 326.914 580.49 331.624L580.6 394.194Z" fill="#F7F3EF" stroke="#070707" stroke-width="4" stroke-linecap="round" stroke-linejoin="round"/>
<path d="M32.5098 298.384V300.524C32.5098 301.7 32.9762 302.828 33.8067 303.66C34.6372 304.493 35.7639 304.961 36.9398 304.964V304.964V311.664C36.9424 312.885 37.4293 314.055 38.2935 314.917C39.1578 315.78 40.3288 316.264 41.5498 316.264H50.4198C51.0247 316.265 51.6239 316.147 52.1832 315.917C52.7424 315.686 53.2507 315.348 53.6789 314.92C54.1071 314.493 54.4469 313.986 54.6787 313.427C54.9105 312.868 55.0298 312.269 55.0298 311.664V304.964C55.6124 304.964 56.1892 304.849 56.7274 304.626C57.2655 304.403 57.7543 304.075 58.1658 303.663C58.5773 303.251 58.9034 302.761 59.1254 302.222C59.3475 301.684 59.4611 301.107 59.4598 300.524V298.384C59.4598 297.209 58.993 296.082 58.1623 295.252C57.3315 294.421 56.2047 293.954 55.0298 293.954H36.9398C35.7657 293.957 34.6404 294.424 33.8102 295.255C32.98 296.085 32.5124 297.21 32.5098 298.384Z" fill="#F7F3EF" stroke="#070707" stroke-width="4" stroke-linecap="round" stroke-linejoin="round"/>
<path d="M2 412.744C2 424.114 8.88 441.424 15.17 451.604C15.8803 452.759 16.8745 453.713 18.0578 454.374C19.2412 455.036 20.5742 455.384 21.93 455.384H66.59C67.9634 455.379 69.3122 455.02 70.5067 454.342C71.7011 453.664 72.701 452.691 73.41 451.514C79.68 441.034 86.56 422.514 86.56 411.144C86.56 388.344 76.2 371.404 58.49 364.544V319.664L68.11 304.944H30.11V364.524C12.36 371.404 2 389.954 2 412.744Z" fill="#F7F3EF" stroke="#070707" stroke-width="4" stroke-linecap="round" stroke-linejoin="round"/>
<path d="M30.08 316.305H17.42C15.4178 316.307 13.4455 316.791 11.67 317.716C9.89447 318.642 8.36786 319.981 7.21928 321.621C6.0707 323.261 5.3339 325.154 5.07119 327.138C4.80848 329.123 5.02758 331.142 5.70997 333.025L19.36 370.665" stroke="#070707" stroke-width="4" stroke-linecap="round" stroke-linejoin="round"/>
<path d="M8.68995 413.084C8.68995 422.654 14.49 437.224 19.78 445.794C20.3778 446.766 21.2147 447.568 22.2108 448.125C23.2068 448.682 24.3289 448.974 25.47 448.974H63.06C64.2166 448.971 65.3528 448.67 66.3586 448.099C67.3643 447.527 68.2053 446.706 68.7999 445.714C74.0799 436.894 79.8699 421.294 79.8699 411.714C79.9329 405.937 79.027 400.191 77.19 394.714H11.72C9.65558 400.616 8.63039 406.831 8.68995 413.084V413.084Z" fill="#F7F3EF" stroke="#070707" stroke-width="4" stroke-linecap="round" stroke-linejoin="round"/>
<path d="M505.88 342.734V450.964C505.88 451.65 505.745 452.33 505.482 452.964C505.219 453.598 504.834 454.174 504.348 454.659C503.862 455.143 503.285 455.528 502.651 455.789C502.016 456.051 501.337 456.185 500.65 456.184H459.42C458.734 456.185 458.055 456.051 457.421 455.789C456.787 455.527 456.211 455.143 455.726 454.658C455.241 454.173 454.857 453.597 454.595 452.963C454.333 452.329 454.199 451.65 454.2 450.964V342.734C454.195 339.098 455.457 335.575 457.77 332.769C460.082 329.964 463.3 328.052 466.87 327.364V301.544H493.21V327.364C496.779 328.054 499.996 329.966 502.308 332.771C504.621 335.576 505.884 339.099 505.88 342.734V342.734Z" fill="#F7F3EF" stroke="#070707" stroke-width="4" stroke-linecap="round" stroke-linejoin="round"/>
<path d="M498.29 358.294V443.944C498.29 447.084 496.06 449.624 493.29 449.624H466.76C464.01 449.624 461.76 447.084 461.76 443.944V358.294H498.29Z" fill="#EFAF00" stroke="black" stroke-width="4" stroke-linecap="round" stroke-linejoin="round"/>
<path d="M496.7 297.504H463.38C462.055 297.504 460.98 298.578 460.98 299.904V303.484C460.98 304.809 462.055 305.884 463.38 305.884H496.7C498.025 305.884 499.1 304.809 499.1 303.484V299.904C499.1 298.578 498.025 297.504 496.7 297.504Z" fill="#F7F3EF" stroke="#070707" stroke-width="4" stroke-linecap="round" stroke-linejoin="round"/>
</svg>
