<svg width="1417" height="444" viewBox="0 0 1417 444" fill="none" xmlns="http://www.w3.org/2000/svg">
<path d="M993.83 255.44V381.17H1095.43V264.42C1095.43 259.42 1090.32 255.42 1084 255.42L993.83 255.44Z" fill="#1C0E0C"/>
<path d="M932.17 216.04H957.96V230.13L932.17 225.78V216.04Z" fill="#F7F3EF" stroke="#070707" stroke-width="4" stroke-linecap="round" stroke-linejoin="round"/>
<path d="M957.58 259.87H1368.25" stroke="#070707" stroke-width="4" stroke-linecap="round" stroke-linejoin="round"/>
<path d="M1414.55 190.25H912.05V216.05H1414.55V190.25Z" fill="#F7F3EF" stroke="#070707" stroke-width="4" stroke-linecap="round" stroke-linejoin="round"/>
<path d="M957.97 216.04H932.17V259.87H957.97V216.04Z" fill="#F7F3EF" stroke="#070707" stroke-width="4" stroke-linecap="round" stroke-linejoin="round"/>
<path d="M1369.03 216.04H1394.82V230.13L1369.03 225.78V216.04Z" fill="#F7F3EF" stroke="#070707" stroke-width="4" stroke-linecap="round" stroke-linejoin="round"/>
<path d="M1394.82 216.04H1369.02V259.87H1394.82V216.04Z" fill="#F7F3EF" stroke="#070707" stroke-width="4" stroke-linecap="round" stroke-linejoin="round"/>
<path d="M1084.08 255.44C1077.44 255.44 1072.08 259.44 1072.08 264.44V353.6H977.67V264.42C977.67 259.42 983.04 255.42 989.67 255.42L1084.08 255.44Z" fill="#F7F3EF" stroke="#070707" stroke-width="4" stroke-linecap="round" stroke-linejoin="round"/>
<path d="M1055.68 166.463C1085.16 136.974 1085.16 89.1642 1055.68 59.6757C1026.19 30.1872 978.376 30.1872 948.888 59.6757C919.399 89.1642 919.399 136.974 948.888 166.463C978.376 195.951 1026.19 195.951 1055.68 166.463Z" fill="#F7F3EF" stroke="#070707" stroke-width="4" stroke-linecap="round" stroke-linejoin="round"/>
<path d="M1041.85 127.449C1049.78 105.605 1038.5 81.4658 1016.66 73.5324C994.814 65.5991 970.674 76.876 962.741 98.7201C954.808 120.564 966.085 144.704 987.929 152.637C1009.77 160.57 1033.91 149.293 1041.85 127.449Z" fill="#F7F3EF" stroke="#070707" stroke-width="4" stroke-linecap="round" stroke-linejoin="round"/>
<path d="M1122.93 139.84H1223.46C1223.46 141.916 1222.63 143.906 1221.16 145.374C1219.7 146.841 1217.71 147.667 1215.63 147.67H1130.75C1128.68 147.667 1126.69 146.841 1125.22 145.373C1123.75 143.905 1122.93 141.915 1122.93 139.84V139.84Z" fill="#F7F3EF" stroke="#070707" stroke-width="4" stroke-linecap="round" stroke-linejoin="round"/>
<path d="M1113.67 157.23H1232.67C1232.67 159.689 1231.69 162.046 1229.96 163.785C1228.22 165.523 1225.86 166.5 1223.4 166.5H1122.94C1120.48 166.5 1118.12 165.523 1116.39 163.785C1114.65 162.046 1113.67 159.689 1113.67 157.23Z" fill="#F7F3EF" stroke="#070707" stroke-width="4" stroke-linecap="round" stroke-linejoin="round"/>
<path d="M1101 177.34H1245.4C1245.4 180.321 1244.22 183.18 1242.11 185.288C1240 187.396 1237.14 188.58 1234.16 188.58H1112.23C1109.25 188.575 1106.4 187.388 1104.29 185.281C1102.19 183.174 1101 180.318 1101 177.34V177.34Z" fill="#F7F3EF" stroke="#070707" stroke-width="4" stroke-linecap="round" stroke-linejoin="round"/>
<path d="M1109.05 131.74H1237.34C1237.66 131.746 1237.96 131.862 1238.2 132.067C1238.44 132.272 1238.6 132.555 1238.65 132.866C1238.71 133.177 1238.65 133.497 1238.5 133.771C1238.34 134.046 1238.1 134.257 1237.8 134.37L1224.2 139.37H1122.2L1108.59 134.37C1108.3 134.257 1108.05 134.046 1107.89 133.771C1107.74 133.497 1107.68 133.177 1107.74 132.866C1107.79 132.555 1107.95 132.272 1108.19 132.067C1108.43 131.862 1108.73 131.746 1109.05 131.74Z" fill="#F7F3EF" stroke="#070707" stroke-width="4" stroke-linecap="round" stroke-linejoin="round"/>
<path d="M1122.19 139.33H1224.19C1224.18 141.433 1223.34 143.446 1221.85 144.934C1220.37 146.421 1218.35 147.264 1216.25 147.28H1130.12C1129.08 147.28 1128.04 147.074 1127.08 146.675C1126.12 146.275 1125.24 145.689 1124.5 144.951C1123.77 144.213 1123.18 143.336 1122.78 142.372C1122.38 141.407 1122.18 140.374 1122.18 139.33H1122.19Z" fill="#F7F3EF" stroke="#070707" stroke-width="4" stroke-linecap="round" stroke-linejoin="round"/>
<path d="M1097.23 147.36H1249.15C1249.53 147.362 1249.89 147.496 1250.18 147.739C1250.47 147.982 1250.66 148.319 1250.73 148.69C1250.79 149.062 1250.73 149.444 1250.54 149.771C1250.35 150.098 1250.05 150.349 1249.7 150.48L1233.59 156.36H1112.79L1096.68 150.48C1096.33 150.349 1096.03 150.098 1095.84 149.771C1095.65 149.444 1095.59 149.062 1095.65 148.69C1095.72 148.319 1095.91 147.982 1096.2 147.739C1096.49 147.496 1096.85 147.362 1097.23 147.36V147.36Z" fill="#F7F3EF" stroke="#070707" stroke-width="4" stroke-linecap="round" stroke-linejoin="round"/>
<path d="M1112.79 156.36H1233.59C1233.59 158.853 1232.6 161.244 1230.84 163.007C1229.07 164.769 1226.68 165.76 1224.19 165.76H1122.19C1120.95 165.761 1119.73 165.519 1118.59 165.047C1117.45 164.575 1116.41 163.883 1115.54 163.01C1114.66 162.137 1113.97 161.101 1113.5 159.959C1113.02 158.818 1112.78 157.595 1112.78 156.36H1112.79Z" fill="#F7F3EF" stroke="#070707" stroke-width="4" stroke-linecap="round" stroke-linejoin="round"/>
<path d="M1081.06 165.85H1265.33C1265.79 165.843 1266.24 166.001 1266.59 166.294C1266.95 166.587 1267.19 166.997 1267.27 167.45C1267.35 167.903 1267.26 168.37 1267.03 168.768C1266.8 169.165 1266.43 169.467 1266 169.62L1246.46 176.76H1099.93L1080.39 169.62C1079.96 169.467 1079.59 169.165 1079.36 168.768C1079.13 168.37 1079.04 167.903 1079.12 167.45C1079.2 166.997 1079.44 166.587 1079.8 166.294C1080.15 166.001 1080.6 165.843 1081.06 165.85Z" fill="#F7F3EF" stroke="#070707" stroke-width="4" stroke-linecap="round" stroke-linejoin="round"/>
<path d="M1099.93 176.76H1246.46C1246.46 178.258 1246.17 179.741 1245.59 181.125C1245.02 182.509 1244.18 183.766 1243.12 184.825C1242.06 185.884 1240.8 186.723 1239.42 187.295C1238.03 187.868 1236.55 188.162 1235.05 188.16H1111.34C1109.84 188.162 1108.36 187.868 1106.97 187.295C1105.59 186.723 1104.33 185.884 1103.27 184.825C1102.21 183.766 1101.37 182.509 1100.8 181.125C1100.23 179.741 1099.93 178.258 1099.93 176.76V176.76Z" fill="#F7F3EF" stroke="#070707" stroke-width="4" stroke-linecap="round" stroke-linejoin="round"/>
<path d="M1151.3 266.19L1183.84 298.83C1188.58 303.58 1188.33 311.52 1183.27 316.55L1170.9 328.89C1165.85 333.89 1157.9 334.16 1153.18 329.41L1120.63 296.77L1151.3 266.19Z" fill="#F7F3EF" stroke="#070707" stroke-width="4" stroke-linecap="round" stroke-linejoin="round"/>
<path d="M1157.86 272.77C1163.61 267.03 1172.64 266.77 1178.04 272.18L1184.61 278.77C1190 284.18 1189.71 293.21 1183.96 298.95" stroke="#070707" stroke-width="4" stroke-linecap="round" stroke-linejoin="round"/>
<path d="M1171.62 259.87H1167.77V273.03H1171.62V259.87Z" fill="#F7F3EF" stroke="#070707" stroke-width="4" stroke-linecap="round" stroke-linejoin="round"/>
<path d="M1239.26 266.19L1271.81 298.83C1276.54 303.58 1276.29 311.52 1271.24 316.55L1258.86 328.89C1253.86 333.89 1245.86 334.16 1241.14 329.41L1208.59 296.77L1239.26 266.19Z" fill="#F7F3EF" stroke="#070707" stroke-width="4" stroke-linecap="round" stroke-linejoin="round"/>
<path d="M1239.26 266.19L1271.81 298.83C1276.54 303.58 1276.29 311.52 1271.24 316.55L1258.86 328.89C1253.86 333.89 1245.86 334.16 1241.14 329.41L1208.59 296.77L1239.26 266.19Z" fill="#F7F3EF" stroke="#070707" stroke-width="4" stroke-linecap="round" stroke-linejoin="round"/>
<path d="M1245.82 272.77C1251.57 267.03 1260.61 266.77 1266 272.18L1272.57 278.77C1277.96 284.18 1277.68 293.21 1271.92 298.95" stroke="#070707" stroke-width="4" stroke-linecap="round" stroke-linejoin="round"/>
<path d="M1224.14 294.6C1224.59 295.048 1224.89 295.618 1225.01 296.239C1225.14 296.859 1225.07 297.502 1224.83 298.087C1224.59 298.671 1224.18 299.17 1223.65 299.522C1223.13 299.873 1222.51 300.061 1221.88 300.061C1221.24 300.061 1220.62 299.873 1220.1 299.522C1219.57 299.17 1219.16 298.671 1218.92 298.087C1218.68 297.502 1218.61 296.859 1218.74 296.239C1218.86 295.618 1219.16 295.048 1219.61 294.6C1219.91 294.302 1220.26 294.066 1220.65 293.905C1221.04 293.744 1221.45 293.661 1221.88 293.661C1222.3 293.661 1222.71 293.744 1223.1 293.905C1223.49 294.066 1223.84 294.302 1224.14 294.6V294.6Z" fill="#F7F3EF" stroke="#070707" stroke-width="4" stroke-linecap="round" stroke-linejoin="round"/>
<path d="M1241.48 277.26C1241.93 277.709 1242.24 278.281 1242.36 278.904C1242.48 279.526 1242.42 280.172 1242.18 280.758C1241.93 281.345 1241.52 281.846 1240.99 282.199C1240.47 282.551 1239.85 282.74 1239.21 282.74C1238.58 282.74 1237.95 282.551 1237.43 282.199C1236.9 281.846 1236.49 281.345 1236.24 280.758C1236 280.172 1235.94 279.526 1236.06 278.904C1236.19 278.281 1236.49 277.709 1236.94 277.26C1237.24 276.961 1237.59 276.723 1237.98 276.561C1238.37 276.399 1238.79 276.315 1239.21 276.315C1239.63 276.315 1240.05 276.399 1240.44 276.561C1240.83 276.723 1241.18 276.961 1241.48 277.26V277.26Z" fill="#F7F3EF" stroke="#070707" stroke-width="4" stroke-linecap="round" stroke-linejoin="round"/>
<path d="M1232.81 285.93C1233.26 286.378 1233.56 286.948 1233.68 287.569C1233.81 288.189 1233.74 288.832 1233.5 289.417C1233.26 290.001 1232.85 290.501 1232.32 290.852C1231.8 291.203 1231.18 291.391 1230.55 291.391C1229.91 291.391 1229.29 291.203 1228.77 290.852C1228.24 290.501 1227.83 290.001 1227.59 289.417C1227.35 288.832 1227.28 288.189 1227.41 287.569C1227.53 286.948 1227.83 286.378 1228.28 285.93C1228.58 285.632 1228.93 285.396 1229.32 285.235C1229.71 285.074 1230.12 284.991 1230.55 284.991C1230.97 284.991 1231.38 285.074 1231.77 285.235C1232.16 285.396 1232.51 285.632 1232.81 285.93V285.93Z" fill="#F7F3EF" stroke="#070707" stroke-width="4" stroke-linecap="round" stroke-linejoin="round"/>
<path d="M1226.11 306.54C1226.56 306.988 1226.86 307.558 1226.98 308.179C1227.11 308.799 1227.04 309.442 1226.8 310.027C1226.56 310.611 1226.15 311.11 1225.62 311.462C1225.1 311.813 1224.48 312.001 1223.85 312.001C1223.21 312.001 1222.59 311.813 1222.07 311.462C1221.54 311.11 1221.13 310.611 1220.89 310.027C1220.65 309.442 1220.58 308.799 1220.71 308.179C1220.83 307.558 1221.13 306.988 1221.58 306.54C1221.88 306.242 1222.23 306.006 1222.62 305.845C1223.01 305.684 1223.42 305.601 1223.85 305.601C1224.27 305.601 1224.68 305.684 1225.07 305.845C1225.46 306.006 1225.81 306.242 1226.11 306.54V306.54Z" fill="#F7F3EF" stroke="#070707" stroke-width="4" stroke-linecap="round" stroke-linejoin="round"/>
<path d="M1244.32 288.34C1244.77 288.788 1245.07 289.358 1245.19 289.978C1245.32 290.599 1245.25 291.242 1245.01 291.826C1244.77 292.411 1244.36 292.91 1243.83 293.262C1243.31 293.613 1242.69 293.8 1242.06 293.8C1241.42 293.8 1240.8 293.613 1240.28 293.262C1239.75 292.91 1239.34 292.411 1239.1 291.826C1238.86 291.242 1238.79 290.599 1238.92 289.978C1239.04 289.358 1239.34 288.788 1239.79 288.34C1240.09 288.042 1240.44 287.806 1240.83 287.645C1241.22 287.483 1241.63 287.4 1242.06 287.4C1242.48 287.4 1242.89 287.483 1243.28 287.645C1243.67 287.806 1244.02 288.042 1244.32 288.34V288.34Z" fill="#F7F3EF" stroke="#070707" stroke-width="4" stroke-linecap="round" stroke-linejoin="round"/>
<path d="M1253.42 279.23C1253.87 279.678 1254.17 280.248 1254.29 280.869C1254.42 281.489 1254.35 282.133 1254.11 282.717C1253.87 283.301 1253.46 283.801 1252.93 284.152C1252.41 284.503 1251.79 284.691 1251.16 284.691C1250.52 284.691 1249.9 284.503 1249.38 284.152C1248.85 283.801 1248.44 283.301 1248.2 282.717C1247.96 282.133 1247.89 281.489 1248.02 280.869C1248.14 280.248 1248.44 279.678 1248.89 279.23C1249.19 278.931 1249.54 278.694 1249.93 278.532C1250.32 278.37 1250.73 278.287 1251.16 278.287C1251.58 278.287 1251.99 278.37 1252.38 278.532C1252.77 278.694 1253.12 278.931 1253.42 279.23V279.23Z" fill="#F7F3EF" stroke="#070707" stroke-width="4" stroke-linecap="round" stroke-linejoin="round"/>
<path d="M1235.22 297.44C1235.67 297.888 1235.97 298.458 1236.09 299.079C1236.22 299.699 1236.15 300.342 1235.91 300.927C1235.67 301.511 1235.26 302.01 1234.73 302.362C1234.21 302.713 1233.59 302.9 1232.96 302.9C1232.32 302.9 1231.7 302.713 1231.18 302.362C1230.65 302.01 1230.24 301.511 1230 300.927C1229.76 300.342 1229.69 299.699 1229.82 299.079C1229.94 298.458 1230.24 297.888 1230.69 297.44C1230.99 297.142 1231.34 296.906 1231.73 296.745C1232.12 296.583 1232.53 296.5 1232.96 296.5C1233.38 296.5 1233.79 296.583 1234.18 296.745C1234.57 296.906 1234.92 297.142 1235.22 297.44V297.44Z" fill="#F7F3EF" stroke="#070707" stroke-width="4" stroke-linecap="round" stroke-linejoin="round"/>
<path d="M1238.06 308.51C1238.51 308.958 1238.81 309.528 1238.93 310.149C1239.06 310.769 1238.99 311.412 1238.75 311.997C1238.51 312.581 1238.1 313.081 1237.57 313.432C1237.05 313.783 1236.43 313.971 1235.8 313.971C1235.16 313.971 1234.54 313.783 1234.02 313.432C1233.49 313.081 1233.08 312.581 1232.84 311.997C1232.6 311.412 1232.53 310.769 1232.66 310.149C1232.78 309.528 1233.08 308.958 1233.53 308.51C1233.83 308.212 1234.18 307.976 1234.57 307.815C1234.96 307.654 1235.37 307.571 1235.8 307.571C1236.22 307.571 1236.63 307.654 1237.02 307.815C1237.41 307.976 1237.76 308.212 1238.06 308.51V308.51Z" fill="#F7F3EF" stroke="#070707" stroke-width="4" stroke-linecap="round" stroke-linejoin="round"/>
<path d="M1255.39 291.18C1255.84 291.628 1256.14 292.198 1256.26 292.819C1256.39 293.439 1256.32 294.082 1256.08 294.667C1255.84 295.251 1255.43 295.751 1254.9 296.102C1254.38 296.453 1253.76 296.641 1253.13 296.641C1252.49 296.641 1251.87 296.453 1251.35 296.102C1250.82 295.751 1250.41 295.251 1250.17 294.667C1249.93 294.082 1249.86 293.439 1249.99 292.819C1250.11 292.198 1250.41 291.628 1250.86 291.18C1251.16 290.882 1251.51 290.646 1251.9 290.485C1252.29 290.324 1252.7 290.241 1253.13 290.241C1253.55 290.241 1253.96 290.324 1254.35 290.485C1254.74 290.646 1255.09 290.882 1255.39 291.18V291.18Z" fill="#F7F3EF" stroke="#070707" stroke-width="4" stroke-linecap="round" stroke-linejoin="round"/>
<path d="M1246.73 299.85C1247.18 300.298 1247.48 300.868 1247.6 301.489C1247.73 302.109 1247.66 302.752 1247.42 303.337C1247.18 303.921 1246.77 304.42 1246.24 304.772C1245.72 305.123 1245.1 305.311 1244.47 305.311C1243.83 305.311 1243.21 305.123 1242.69 304.772C1242.16 304.42 1241.75 303.921 1241.51 303.337C1241.27 302.752 1241.2 302.109 1241.33 301.489C1241.45 300.868 1241.75 300.298 1242.2 299.85C1242.5 299.552 1242.85 299.316 1243.24 299.155C1243.63 298.994 1244.04 298.911 1244.47 298.911C1244.89 298.911 1245.3 298.994 1245.69 299.155C1246.08 299.316 1246.43 299.552 1246.73 299.85V299.85Z" fill="#F7F3EF" stroke="#070707" stroke-width="4" stroke-linecap="round" stroke-linejoin="round"/>
<path d="M1240 320.46C1240.45 320.908 1240.75 321.478 1240.87 322.099C1241 322.719 1240.93 323.362 1240.69 323.947C1240.45 324.531 1240.04 325.03 1239.51 325.382C1238.99 325.733 1238.37 325.92 1237.74 325.92C1237.1 325.92 1236.48 325.733 1235.96 325.382C1235.43 325.03 1235.02 324.531 1234.78 323.947C1234.54 323.362 1234.47 322.719 1234.6 322.099C1234.72 321.478 1235.02 320.908 1235.47 320.46C1235.77 320.162 1236.12 319.926 1236.51 319.765C1236.9 319.603 1237.31 319.521 1237.74 319.521C1238.16 319.521 1238.57 319.603 1238.96 319.765C1239.35 319.926 1239.7 320.162 1240 320.46V320.46Z" fill="#F7F3EF" stroke="#070707" stroke-width="4" stroke-linecap="round" stroke-linejoin="round"/>
<path d="M1255.97 307.72C1257.74 307.72 1259.17 306.288 1259.17 304.52C1259.17 302.753 1257.74 301.32 1255.97 301.32C1254.2 301.32 1252.77 302.753 1252.77 304.52C1252.77 306.288 1254.2 307.72 1255.97 307.72Z" fill="#F7F3EF" stroke="#070707" stroke-width="4" stroke-linecap="round" stroke-linejoin="round"/>
<path d="M1265.08 298.62C1266.85 298.62 1268.28 297.188 1268.28 295.42C1268.28 293.653 1266.85 292.22 1265.08 292.22C1263.31 292.22 1261.88 293.653 1261.88 295.42C1261.88 297.188 1263.31 298.62 1265.08 298.62Z" fill="#F7F3EF" stroke="#070707" stroke-width="4" stroke-linecap="round" stroke-linejoin="round"/>
<path d="M1249.13 311.36C1249.58 311.808 1249.88 312.378 1250 312.999C1250.13 313.619 1250.06 314.262 1249.82 314.847C1249.58 315.431 1249.17 315.93 1248.64 316.282C1248.12 316.633 1247.5 316.821 1246.87 316.821C1246.23 316.821 1245.61 316.633 1245.09 316.282C1244.56 315.93 1244.15 315.431 1243.91 314.847C1243.67 314.262 1243.6 313.619 1243.73 312.999C1243.85 312.378 1244.15 311.808 1244.6 311.36C1244.9 311.061 1245.25 310.824 1245.64 310.662C1246.03 310.5 1246.44 310.417 1246.87 310.417C1247.29 310.417 1247.7 310.5 1248.09 310.662C1248.48 310.824 1248.83 311.061 1249.13 311.36V311.36Z" fill="#F7F3EF" stroke="#070707" stroke-width="4" stroke-linecap="round" stroke-linejoin="round"/>
<path d="M1252 322.43C1252.45 322.878 1252.75 323.448 1252.87 324.069C1253 324.689 1252.93 325.332 1252.69 325.917C1252.45 326.501 1252.04 327.001 1251.51 327.352C1250.99 327.703 1250.37 327.891 1249.74 327.891C1249.1 327.891 1248.48 327.703 1247.96 327.352C1247.43 327.001 1247.02 326.501 1246.78 325.917C1246.54 325.332 1246.47 324.689 1246.6 324.069C1246.72 323.448 1247.02 322.878 1247.47 322.43C1247.77 322.132 1248.12 321.896 1248.51 321.735C1248.9 321.574 1249.31 321.491 1249.74 321.491C1250.16 321.491 1250.57 321.574 1250.96 321.735C1251.35 321.896 1251.7 322.132 1252 322.43V322.43Z" fill="#F7F3EF" stroke="#070707" stroke-width="4" stroke-linecap="round" stroke-linejoin="round"/>
<path d="M1269.31 305.1C1269.76 305.548 1270.06 306.118 1270.18 306.739C1270.31 307.359 1270.24 308.002 1270 308.587C1269.76 309.171 1269.35 309.67 1268.82 310.022C1268.3 310.373 1267.68 310.561 1267.05 310.561C1266.41 310.561 1265.79 310.373 1265.27 310.022C1264.74 309.67 1264.33 309.171 1264.09 308.587C1263.85 308.002 1263.78 307.359 1263.91 306.739C1264.03 306.118 1264.33 305.548 1264.78 305.1C1265.08 304.802 1265.43 304.566 1265.82 304.405C1266.21 304.244 1266.62 304.161 1267.05 304.161C1267.47 304.161 1267.88 304.244 1268.27 304.405C1268.66 304.566 1269.01 304.802 1269.31 305.1V305.1Z" fill="#F7F3EF" stroke="#070707" stroke-width="4" stroke-linecap="round" stroke-linejoin="round"/>
<path d="M1260.65 313.77C1261.1 314.219 1261.4 314.791 1261.53 315.414C1261.65 316.036 1261.59 316.682 1261.35 317.268C1261.1 317.855 1260.69 318.356 1260.16 318.709C1259.64 319.062 1259.02 319.25 1258.38 319.25C1257.75 319.25 1257.12 319.062 1256.6 318.709C1256.07 318.356 1255.66 317.855 1255.41 317.268C1255.17 316.682 1255.11 316.036 1255.23 315.414C1255.36 314.791 1255.66 314.219 1256.11 313.77C1256.41 313.471 1256.76 313.233 1257.15 313.071C1257.54 312.909 1257.96 312.826 1258.38 312.826C1258.8 312.826 1259.22 312.909 1259.61 313.071C1260 313.233 1260.35 313.471 1260.65 313.77V313.77Z" fill="#F7F3EF" stroke="#070707" stroke-width="4" stroke-linecap="round" stroke-linejoin="round"/>
<path d="M1258.5 259.87H1254.65V273.03H1258.5V259.87Z" fill="#F7F3EF" stroke="#070707" stroke-width="4" stroke-linecap="round" stroke-linejoin="round"/>
<path d="M1327.22 266.19L1359.77 298.83C1364.5 303.58 1364.25 311.52 1359.2 316.55L1346.82 328.89C1341.82 333.89 1333.82 334.16 1329.1 329.41L1296.55 296.77L1327.22 266.19Z" fill="#F7F3EF" stroke="#070707" stroke-width="4" stroke-linecap="round" stroke-linejoin="round"/>
<path d="M1333.78 272.77C1339.53 267.03 1348.57 266.77 1353.96 272.18L1360.53 278.77C1365.93 284.18 1365.64 293.21 1359.89 298.95" stroke="#070707" stroke-width="4" stroke-linecap="round" stroke-linejoin="round"/>
<path d="M1346.15 259.87H1342.3V273.03H1346.15V259.87Z" fill="#F7F3EF" stroke="#070707" stroke-width="4" stroke-linecap="round" stroke-linejoin="round"/>
<path d="M1371.55 53.36H1362.39C1360.75 53.3745 1359.13 53.066 1357.62 52.4522C1356.1 51.8384 1354.72 50.9314 1353.55 49.7831C1352.39 48.6349 1351.46 47.268 1350.83 45.7608C1350.19 44.2536 1349.86 42.6357 1349.85 41V38.34C1349.85 36.7372 1350.16 35.1499 1350.78 33.67C1351.06 32.968 1351.42 32.2976 1351.84 31.67C1352.45 30.1887 1352.77 28.6024 1352.77 27V25.25C1352.72 21.9664 1351.37 18.8357 1349.02 16.5409C1346.68 14.2461 1343.51 12.9732 1340.23 13H1338.45C1336.82 12.9855 1335.2 13.2927 1333.69 13.904C1332.17 14.5153 1330.79 15.4187 1329.63 16.5627C1328.46 17.7068 1327.54 19.069 1326.9 20.5715C1326.26 22.0741 1325.92 23.6877 1325.91 25.32V27.07C1325.91 28.6729 1326.22 30.2601 1326.84 31.74C1327.26 32.3699 1327.61 33.0399 1327.9 33.74C1328.52 35.2198 1328.83 36.8072 1328.83 38.41V41C1328.83 47.8 1323.22 55.32 1316.29 55.32H1307.12C1298.46 55.32 1291.44 60.21 1291.44 68.73V173.89C1291.48 178.011 1293.15 181.947 1296.09 184.835C1299.03 187.722 1303 189.325 1307.12 189.29H1371.55C1375.67 189.325 1379.64 187.722 1382.58 184.835C1385.52 181.947 1387.19 178.011 1387.23 173.89V68.77C1387.21 66.7284 1386.79 64.7101 1386 62.8306C1385.2 60.951 1384.04 59.247 1382.58 57.8159C1381.13 56.3848 1379.4 55.2547 1377.51 54.4901C1375.62 53.7256 1373.59 53.3415 1371.55 53.36ZM1339.33 23.31C1340.01 23.3218 1340.68 23.5353 1341.24 23.9237C1341.8 24.3121 1342.24 24.8581 1342.49 25.4931C1342.75 26.1281 1342.81 26.8239 1342.67 27.493C1342.53 28.1621 1342.19 28.7748 1341.7 29.2541C1341.22 29.7334 1340.6 30.058 1339.93 30.1871C1339.25 30.3162 1338.56 30.244 1337.93 29.9797C1337.3 29.7154 1336.76 29.2707 1336.38 28.7014C1336 28.1322 1335.8 27.4637 1335.8 26.78C1335.8 26.3204 1335.9 25.866 1336.08 25.4429C1336.26 25.0197 1336.52 24.6361 1336.85 24.3139C1337.17 23.9917 1337.56 23.7372 1337.99 23.5649C1338.41 23.3927 1338.87 23.306 1339.33 23.31V23.31Z" fill="#F7F3EF" stroke="#070707" stroke-width="4" stroke-linecap="round" stroke-linejoin="round"/>
<path d="M1366.89 51.7502H1357.73C1354.4 51.7502 1351.21 50.429 1348.86 48.0773C1346.51 45.7256 1345.19 42.536 1345.19 39.2102V36.5002C1345.19 34.8719 1345.51 33.2594 1346.12 31.7502C1346.41 31.0516 1346.76 30.382 1347.18 29.7502C1347.8 28.2389 1348.11 26.6221 1348.11 24.9902V23.2202C1348.11 21.573 1347.79 19.9418 1347.16 18.4198C1346.53 16.8978 1345.61 15.5148 1344.44 14.3501C1343.28 13.1854 1341.89 12.2618 1340.37 11.6321C1338.85 11.0023 1337.22 10.6789 1335.57 10.6802H1333.8C1332.15 10.6789 1330.52 11.0023 1329 11.6321C1327.48 12.2618 1326.09 13.1854 1324.93 14.3501C1323.77 15.5148 1322.84 16.8978 1322.21 18.4198C1321.58 19.9418 1321.26 21.573 1321.26 23.2202V25.0002C1321.26 26.6322 1321.57 28.2489 1322.19 29.7602C1322.59 30.3921 1322.92 31.0621 1323.19 31.7602C1323.81 33.2674 1324.13 34.8808 1324.13 36.5102V39.2202C1324.13 42.5452 1322.81 45.7333 1320.45 48.0844C1318.1 50.4355 1314.92 51.7575 1311.59 51.7602H1302.42C1300.36 51.7589 1298.32 52.1636 1296.42 52.9511C1294.52 53.7386 1292.79 54.8935 1291.33 56.3498C1289.87 57.8061 1288.72 59.5352 1287.93 61.4381C1287.14 63.3411 1286.74 65.3807 1286.74 67.4402V174.44C1286.74 176.499 1287.15 178.538 1287.93 180.441C1288.72 182.343 1289.88 184.072 1291.33 185.528C1292.79 186.984 1294.52 188.139 1296.42 188.927C1298.32 189.715 1300.36 190.12 1302.42 190.12H1366.84C1368.9 190.121 1370.94 189.717 1372.84 188.93C1374.75 188.142 1376.48 186.987 1377.93 185.531C1379.39 184.075 1380.55 182.346 1381.34 180.443C1382.12 178.54 1382.53 176.5 1382.53 174.44V67.4402C1382.53 63.2868 1380.89 59.302 1377.96 56.3604C1375.02 53.4188 1371.04 51.7608 1366.89 51.7502V51.7502ZM1334.68 28.2302C1333.98 28.2302 1333.29 28.0223 1332.71 27.6329C1332.13 27.2435 1331.68 26.69 1331.41 26.0426C1331.14 25.3951 1331.07 24.6828 1331.21 23.9959C1331.35 23.3089 1331.68 22.6782 1332.18 22.1835C1332.68 21.6888 1333.31 21.3524 1334 21.217C1334.68 21.0815 1335.4 21.1531 1336.04 21.4225C1336.69 21.692 1337.24 22.1473 1337.63 22.7307C1338.02 23.3142 1338.22 23.9996 1338.22 24.7002C1338.22 25.1646 1338.13 25.6244 1337.95 26.0534C1337.77 26.4823 1337.51 26.8719 1337.18 27.1998C1336.85 27.5277 1336.46 27.7875 1336.03 27.9644C1335.6 28.1412 1335.14 28.2315 1334.68 28.2302V28.2302Z" fill="#F7F3EF" stroke="#070707" stroke-width="4" stroke-linecap="round" stroke-linejoin="round"/>
<path d="M176.84 75.1699H206.93V115.94C206.93 119.918 205.349 123.733 202.536 126.547C199.723 129.36 195.908 130.94 191.93 130.94V130.94C187.952 130.94 184.136 129.36 181.323 126.547C178.51 123.733 176.93 119.918 176.93 115.94V75.1699H176.84Z" fill="#F7F3EF" stroke="#070707" stroke-width="4" stroke-linecap="round" stroke-linejoin="round"/>
<path d="M191.89 130.91V178.95" stroke="#070707" stroke-width="4" stroke-linecap="round" stroke-linejoin="round"/>
<path d="M207.79 190.25L191.89 179.2L175.98 190.25H207.79Z" fill="#F7F3EF" stroke="#070707" stroke-width="4" stroke-linecap="round" stroke-linejoin="round"/>
<path d="M228.07 75.1699H258.16V115.94C258.16 119.918 256.579 123.733 253.766 126.547C250.953 129.36 247.138 130.94 243.16 130.94V130.94C239.182 130.94 235.366 129.36 232.553 126.547C229.74 123.733 228.16 119.918 228.16 115.94V75.1699H228.07Z" fill="#F7F3EF" stroke="#070707" stroke-width="4" stroke-linecap="round" stroke-linejoin="round"/>
<path d="M243.12 130.91V178.95" stroke="#070707" stroke-width="4" stroke-linecap="round" stroke-linejoin="round"/>
<path d="M259.02 190.25L243.12 179.2L227.22 190.25H259.02Z" fill="#F7F3EF" stroke="#070707" stroke-width="4" stroke-linecap="round" stroke-linejoin="round"/>
<path d="M279.31 75.1699H309.4V115.94C309.4 119.918 307.82 123.733 305.007 126.547C302.194 129.36 298.378 130.94 294.4 130.94V130.94C290.422 130.94 286.607 129.36 283.793 126.547C280.98 123.733 279.4 119.918 279.4 115.94V75.1699H279.31Z" fill="#F7F3EF" stroke="#070707" stroke-width="4" stroke-linecap="round" stroke-linejoin="round"/>
<path d="M294.35 130.91V178.95" stroke="#070707" stroke-width="4" stroke-linecap="round" stroke-linejoin="round"/>
<path d="M310.26 190.25L294.36 179.2L278.45 190.25H310.26Z" fill="#F7F3EF" stroke="#070707" stroke-width="4" stroke-linecap="round" stroke-linejoin="round"/>
<path d="M63.98 259.87H341.02" stroke="#070707" stroke-width="4" stroke-linecap="round" stroke-linejoin="round"/>
<path d="M340.76 216.04H366.56V230.13L340.76 225.78V216.04Z" fill="#F7F3EF" stroke="#070707" stroke-width="4" stroke-linecap="round" stroke-linejoin="round"/>
<path d="M38.2202 216.04H64.0202V230.13L38.2202 225.78V216.04Z" fill="#F7F3EF" stroke="#070707" stroke-width="4" stroke-linecap="round" stroke-linejoin="round"/>
<path d="M402.44 190.25H2.3501V216.05H402.44V190.25Z" fill="#F7F3EF" stroke="#070707" stroke-width="4" stroke-linecap="round" stroke-linejoin="round"/>
<path d="M64.0202 216.04H38.2202V259.87H64.0202V216.04Z" fill="#F7F3EF" stroke="#070707" stroke-width="4" stroke-linecap="round" stroke-linejoin="round"/>
<path d="M366.56 216.04H340.76V259.87H366.56V216.04Z" fill="#F7F3EF" stroke="#070707" stroke-width="4" stroke-linecap="round" stroke-linejoin="round"/>
<path d="M41.4697 133.14H132.47V143.62C132.47 155.682 127.678 167.25 119.149 175.779C110.62 184.309 99.0518 189.1 86.9897 189.1C74.9277 189.1 63.3597 184.309 54.8305 175.779C46.3014 167.25 41.5097 155.682 41.5097 143.62V133.14H41.4697Z" fill="#E57B07" stroke="#070707" stroke-width="4" stroke-linecap="round" stroke-linejoin="round"/>
<path d="M82.3398 133.14C82.3398 133.14 85.9998 68.2101 108 37.5601Z" fill="#F7F3EF"/>
<path d="M82.3398 133.14C82.3398 133.14 85.9998 68.2101 108 37.5601" stroke="#070707" stroke-width="4" stroke-linecap="round" stroke-linejoin="round"/>
<path d="M90.1997 81.2999C90.1997 81.2999 93.8697 53.0499 121.2 51.3999C121.22 51.3999 125.08 81.8699 90.1997 81.2999Z" fill="#EFAF00" stroke="black" stroke-width="4" stroke-linecap="round" stroke-linejoin="round"/>
<path d="M94.8597 64C94.8597 64 110.35 33.59 86.9497 21.73C86.9997 21.74 73.1097 50.25 94.8597 64Z" fill="#EFAF00" stroke="black" stroke-width="4" stroke-linecap="round" stroke-linejoin="round"/>
<path d="M35.1999 87.6399C35.1999 87.6399 33.7998 53.5499 7.58984 54.6399C7.58984 54.6699 9.49986 86.3099 35.1999 87.6399Z" fill="#EFAF00" stroke="black" stroke-width="4" stroke-linecap="round" stroke-linejoin="round"/>
<path d="M84.7701 110.12C84.7701 110.12 95.5201 75.6198 71.4601 64.0098C71.4601 63.9998 59.1901 98.3198 84.7701 110.12Z" fill="#EFAF00" stroke="black" stroke-width="4" stroke-linecap="round" stroke-linejoin="round"/>
<path d="M83.6699 123.62C83.6699 123.62 80.1199 91.7501 108.09 87.0601C108.09 87.0601 114.3 119 83.6699 123.62Z" fill="#EFAF00" stroke="black" stroke-width="4" stroke-linecap="round" stroke-linejoin="round"/>
<path d="M107.24 38.55C107.24 38.55 103.69 6.69 131.66 2C131.66 2 137.87 33.89 107.24 38.55Z" fill="#EFAF00" stroke="black" stroke-width="4" stroke-linecap="round" stroke-linejoin="round"/>
<path d="M34.5498 87.0601L68.5198 133.14" stroke="#070707" stroke-width="4" stroke-linecap="round" stroke-linejoin="round"/>
<path d="M50.7497 109C50.7497 109 34.8797 88.5298 43.7497 66.3198C43.7797 66.3498 63.3197 81.3198 50.7497 109Z" fill="#EFAF00" stroke="black" stroke-width="4" stroke-linecap="round" stroke-linejoin="round"/>
<path d="M53.3297 112.54C53.3297 112.54 34.5498 125.22 16.7598 101.82C16.7598 101.82 38.1497 91.9999 53.3297 112.54Z" fill="#EFAF00" stroke="black" stroke-width="4" stroke-linecap="round" stroke-linejoin="round"/>
<path d="M68.52 133C68.52 133 53.6 147.08 34.27 128.79C34.27 128.8 51.93 116.84 68.52 133Z" fill="#EFAF00" stroke="black" stroke-width="4" stroke-linecap="round" stroke-linejoin="round"/>
<path d="M68.52 133.14C68.52 133.14 54.65 117.31 64.52 101.14C64.54 101.16 80.41 117 68.52 133.14Z" fill="#EFAF00" stroke="black" stroke-width="4" stroke-linecap="round" stroke-linejoin="round"/>
<path d="M108 133.1C108 133.1 112 109.73 133.09 106.87C133.13 106.87 136.71 133.1 108 133.1Z" fill="#EFAF00" stroke="black" stroke-width="4" stroke-linecap="round" stroke-linejoin="round"/>
<path d="M195.66 302.84H192.34V396.11H195.66V302.84Z" fill="#F7F3EF" stroke="#070707" stroke-width="4" stroke-linecap="round" stroke-linejoin="round"/>
<path d="M206.06 440.9H181.94C181.061 440.882 180.196 440.674 179.404 440.293C178.612 439.911 177.911 439.364 177.349 438.688C176.787 438.012 176.376 437.223 176.145 436.374C175.914 435.526 175.868 434.638 176.01 433.77L177.75 400.35C177.94 398.905 178.644 397.578 179.733 396.61C180.822 395.642 182.223 395.099 183.68 395.08H204.31C205.768 395.099 207.171 395.641 208.262 396.609C209.352 397.577 210.058 398.905 210.25 400.35L212 433.77C212.142 434.639 212.096 435.528 211.864 436.377C211.633 437.226 211.222 438.015 210.658 438.691C210.095 439.367 209.393 439.915 208.599 440.296C207.806 440.677 206.94 440.883 206.06 440.9V440.9Z" fill="#F7F3EF" stroke="#070707" stroke-width="4" stroke-linecap="round" stroke-linejoin="round"/>
<path d="M194 404.5V432.9" stroke="#070707" stroke-width="4" stroke-linecap="round" stroke-linejoin="round"/>
<path d="M201.38 406.87V430.54" stroke="#070707" stroke-width="4" stroke-linecap="round" stroke-linejoin="round"/>
<path d="M186.62 406.87V430.54" stroke="#070707" stroke-width="4" stroke-linecap="round" stroke-linejoin="round"/>
<path d="M198.36 262.67L196.89 301.27C196.854 302.01 196.533 302.708 195.994 303.216C195.456 303.725 194.741 304.006 194 304V304C193.26 304.001 192.549 303.714 192.016 303.202C191.483 302.689 191.169 301.989 191.14 301.25L189.68 266.58C189.68 265.439 189.455 264.309 189.019 263.254C188.582 262.2 187.942 261.242 187.135 260.435C186.328 259.628 185.37 258.988 184.316 258.552C183.261 258.115 182.131 257.89 180.99 257.89V257.89C181.019 256.847 181.454 255.856 182.204 255.129C182.953 254.402 183.956 253.997 185 254H189.73C192.021 254.016 194.213 254.936 195.829 256.559C197.445 258.183 198.355 260.379 198.36 262.67V262.67Z" fill="#F7F3EF" stroke="#070707" stroke-width="4" stroke-linecap="round" stroke-linejoin="round"/>
<path d="M90.2199 302.84H86.8999V400.22H90.2199V302.84Z" fill="#F7F3EF" stroke="#070707" stroke-width="4" stroke-linecap="round" stroke-linejoin="round"/>
<path d="M50.27 429C58.43 440.69 73.57 443.34 84.9 434.9C96.23 426.47 97.13 410.15 88.96 398.45L50.27 429Z" fill="#F7F3EF" stroke="#070707" stroke-width="4" stroke-linecap="round" stroke-linejoin="round"/>
<path d="M92.8002 262.67L91.3302 301.27C91.3017 302.012 90.9868 302.714 90.4517 303.229C89.9165 303.743 89.2027 304.031 88.4602 304.03V304.03C87.7193 304.031 87.007 303.745 86.4721 303.232C85.9372 302.72 85.6212 302.02 85.5902 301.28L84.1302 266.61C84.1302 264.307 83.216 262.098 81.5885 260.469C79.9609 258.839 77.7532 257.923 75.4502 257.92V257.92C75.4502 256.875 75.8653 255.873 76.6042 255.134C77.3431 254.395 78.3452 253.98 79.3902 253.98H84.1102C86.4149 253.98 88.6253 254.896 90.2549 256.525C91.8846 258.155 92.8002 260.365 92.8002 262.67V262.67Z" fill="#F7F3EF" stroke="#070707" stroke-width="4" stroke-linecap="round" stroke-linejoin="round"/>
<path d="M252.38 302.84H249.06V396.11H252.38V302.84Z" fill="#F7F3EF" stroke="#070707" stroke-width="4" stroke-linecap="round" stroke-linejoin="round"/>
<path d="M262.9 407.87L260.9 441.39H260.51L257.51 410.2C257.355 408.488 256.575 406.894 255.32 405.72C254.094 404.566 252.474 403.922 250.79 403.92C249.099 403.943 247.477 404.591 246.236 405.74C244.995 406.888 244.223 408.456 244.07 410.14L240.88 441.39H240.75L238.75 407.87C238.699 404.622 239.94 401.486 242.199 399.152C244.458 396.817 247.552 395.475 250.8 395.42C252.394 395.421 253.971 395.745 255.436 396.37C256.902 396.995 258.226 397.91 259.33 399.06C261.617 401.423 262.896 404.582 262.9 407.87V407.87Z" fill="#F7F3EF" stroke="#070707" stroke-width="4" stroke-linecap="round" stroke-linejoin="round"/>
<path d="M255.08 262.67L253.61 301.27C253.582 302.012 253.267 302.714 252.732 303.229C252.197 303.743 251.483 304.031 250.74 304.03V304.03C250 304.031 249.289 303.744 248.756 303.232C248.223 302.719 247.909 302.019 247.88 301.28L246.42 266.61C246.42 264.307 245.506 262.098 243.879 260.469C242.251 258.839 240.043 257.923 237.74 257.92V257.92C237.74 256.877 238.154 255.876 238.891 255.138C239.627 254.399 240.627 253.983 241.67 253.98H246.4C248.703 253.983 250.911 254.899 252.539 256.529C254.166 258.158 255.08 260.367 255.08 262.67V262.67Z" fill="#F7F3EF" stroke="#070707" stroke-width="4" stroke-linecap="round" stroke-linejoin="round"/>
<path d="M141.6 302.84H138.28V376.41H141.6V302.84Z" fill="#F7F3EF" stroke="#070707" stroke-width="4" stroke-linecap="round" stroke-linejoin="round"/>
<path d="M155.63 416.26C156.63 431.76 149.57 441.38 139.95 441.38C131.41 441.38 123.04 430.32 124.26 416.26C125.46 402.44 133.46 375.38 139.95 375.38C146.44 375.38 154.74 402.41 155.63 416.26Z" fill="#F7F3EF" stroke="#070707" stroke-width="4" stroke-linecap="round" stroke-linejoin="round"/>
<path d="M149.74 417.49C150.36 432.23 144.5 441.38 139.94 441.38C136.27 441.38 129.39 430.86 130.15 417.49C130.9 404.34 135.89 376.27 139.94 376.27C143.99 376.27 149.18 404.32 149.74 417.49Z" fill="#F7F3EF" stroke="#070707" stroke-width="4" stroke-linecap="round" stroke-linejoin="round"/>
<path d="M143.61 262.67L142.14 301.27C142.112 302.012 141.797 302.714 141.262 303.229C140.727 303.743 140.013 304.031 139.27 304.03V304.03C138.529 304.031 137.817 303.745 137.282 303.232C136.747 302.72 136.431 302.02 136.4 301.28L134.94 266.61C134.942 265.469 134.718 264.339 134.282 263.285C133.847 262.231 133.208 261.273 132.401 260.466C131.595 259.659 130.638 259.019 129.584 258.582C128.531 258.145 127.401 257.92 126.26 257.92V257.92C126.281 256.883 126.703 255.895 127.438 255.164C128.173 254.433 129.164 254.015 130.2 254H134.93C137.23 254.003 139.435 254.917 141.061 256.542C142.688 258.167 143.605 260.37 143.61 262.67V262.67Z" fill="#F7F3EF" stroke="#070707" stroke-width="4" stroke-linecap="round" stroke-linejoin="round"/>
<path d="M139.94 376.27V441.38" stroke="#070707" stroke-width="4" stroke-linecap="round" stroke-linejoin="round"/>
<path d="M370.2 292.72C368.966 291.324 367.326 290.349 365.51 289.93L335.81 283.59L329.39 276.59L288.69 313.89L325.15 353.67C337.51 367.16 356.6 370.5 368 360.72C374 355.56 376.76 347.89 376.32 339.72C375.694 331.121 372.127 323 366.22 316.72L360.36 310.33C358.83 308.65 359.17 306.22 361.03 305.68L369.52 303.19C370.094 302.984 370.621 302.664 371.07 302.25C373.37 300.21 373.15 295.93 370.2 292.72Z" fill="#F7F3EF" stroke="#070707" stroke-width="4" stroke-linecap="round" stroke-linejoin="round"/>
<path d="M366.52 294.651C365.286 293.254 363.646 292.279 361.83 291.86L332.13 285.521L325.71 278.521L285 315.82L321.46 355.6C333.82 369.09 352.91 372.43 364.32 362.6C370.32 357.44 373.07 349.77 372.63 341.6C372.005 333.001 368.439 324.879 362.53 318.6L356.68 312.211C355.14 310.531 355.48 308.1 357.34 307.56L365.83 305.06C366.405 304.861 366.933 304.544 367.38 304.13C369.69 302.14 369.47 297.861 366.52 294.651Z" fill="#E57B07" stroke="#070707" stroke-width="4" stroke-linecap="round" stroke-linejoin="round"/>
<path d="M317.7 262.36C317.81 264.7 322.38 271.86 322.38 271.86C322.38 271.86 326.29 264.33 326.19 261.98C326.119 260.869 325.616 259.83 324.787 259.087C323.958 258.343 322.871 257.954 321.759 258.004C320.646 258.054 319.598 258.538 318.839 259.353C318.08 260.167 317.671 261.247 317.7 262.36V262.36Z" fill="#F7F3EF" stroke="#070707" stroke-width="4" stroke-linecap="round" stroke-linejoin="round"/>
<path d="M321.47 273L279.13 311.8C278.955 311.961 278.812 312.155 278.712 312.37C278.611 312.586 278.554 312.819 278.544 313.057C278.534 313.295 278.571 313.532 278.652 313.756C278.734 313.98 278.859 314.185 279.02 314.36L282.02 317.63C282.181 317.806 282.375 317.948 282.59 318.048C282.806 318.149 283.04 318.206 283.277 318.216C283.515 318.226 283.753 318.189 283.976 318.108C284.2 318.026 284.405 317.901 284.58 317.74L327 278.94C327.355 278.614 327.566 278.16 327.587 277.678C327.608 277.196 327.436 276.726 327.11 276.37L324.11 273.11C323.947 272.925 323.748 272.775 323.525 272.668C323.302 272.562 323.06 272.502 322.814 272.492C322.567 272.482 322.321 272.521 322.09 272.609C321.859 272.696 321.648 272.829 321.47 273V273Z" fill="#E57B07" stroke="#070707" stroke-width="4" stroke-linecap="round" stroke-linejoin="round"/>
</svg>
