<svg width="1403" height="616" viewBox="0 0 1403 616" fill="none" xmlns="http://www.w3.org/2000/svg">
<path d="M1330.18 613.56L1280.16 383.84L1321.43 378.84L1359.9 613.56" fill="#F7F3EF"/>
<path d="M1330.18 613.56L1280.16 383.84L1321.43 378.84L1359.9 613.56" stroke="#070707" stroke-width="4" stroke-linecap="round" stroke-linejoin="round"/>
<path d="M1280.16 383.84L1321.43 378.84L1325.48 403.59L1283.09 397.27L1280.16 383.84Z" fill="#1C0E0C"/>
<path d="M73.69 613.56L123.71 383.84L82.44 378.84L43.96 613.56" fill="#F7F3EF"/>
<path d="M73.69 613.56L123.71 383.84L82.44 378.84L43.96 613.56" stroke="#070707" stroke-width="4" stroke-linecap="round" stroke-linejoin="round"/>
<path d="M82.44 378.84L123.71 383.84L117.78 411.08L80.73 389.3L82.44 378.84Z" fill="#070707"/>
<path d="M701.5 379.1C1087.81 379.1 1400.97 356.034 1400.97 327.58C1400.97 299.126 1087.81 276.06 701.5 276.06C315.193 276.06 2.02979 299.126 2.02979 327.58C2.02979 356.034 315.193 379.1 701.5 379.1Z" fill="#F7F3EF" stroke="#070707" stroke-width="4" stroke-linecap="round" stroke-linejoin="round"/>
<path d="M1401 327.58V354.89C1401 383.35 1087.83 406.41 701.53 406.41C363.66 406.41 81.75 388.77 16.36 365.31C6.99999 362 2 358.47 2 354.89V327.58C2 331.15 6.93 334.63 16.31 337.99C19.3567 339.077 22.8733 340.16 26.86 341.24C108.14 363.06 379.38 379.09 701.48 379.09C1023.58 379.09 1294.81 363.09 1376.09 341.24C1392.31 336.89 1401 332.3 1401 327.58Z" fill="#F7F3EF" stroke="#070707" stroke-width="4" stroke-linecap="round" stroke-linejoin="round"/>
<path d="M982.25 374.62C962 504.75 740.08 582 577.44 566.72C377.87 547.93 270.77 451.64 226.33 399C222.445 394.416 219.959 388.812 219.166 382.856C218.374 376.899 219.309 370.84 221.86 365.4C346.59 373.9 513.44 379.09 696.76 379.09C798.45 379.09 895.07 377.49 982.25 374.62Z" fill="#F7F3EF" stroke="#070707" stroke-width="4" stroke-linecap="round" stroke-linejoin="round"/>
<path d="M1189.92 289.92L1187.59 290.87L982.28 374.45V374.62C895.1 377.49 798.48 379.09 696.79 379.09C513.47 379.09 346.62 373.9 221.89 365.4C225.25 358.098 231.29 352.369 238.76 349.4L410.31 280.68C410.31 280.68 414.68 280.47 422.94 280.12C493 277.19 842.73 264.48 1189.92 289.92Z" fill="#F7F3EF" stroke="#070707" stroke-width="4" stroke-linecap="round" stroke-linejoin="round"/>
<path d="M365 344.57C372.34 350.85 380.69 354.38 389.41 351.68L397.28 349.24C402.8 347.54 406.62 344.24 409.89 339.96C413.03 335.89 413.71 328.41 412.06 322.96C408.71 311.86 395.63 305.96 384.56 309.41L378.44 311.3C370.37 313.8 366.29 317.51 363.79 322.3C362.5 324.74 361.73 328.42 360.05 330.66C358.53 332.66 356.14 334.04 356.96 337.86C357.78 341.68 360.34 340.61 365 344.57Z" fill="#F7F3EF" stroke="#070707" stroke-width="4" stroke-linecap="round" stroke-linejoin="round"/>
<path d="M490.51 291.64C490.783 291.639 491.053 291.695 491.304 291.802C491.555 291.91 491.781 292.069 491.968 292.267C492.156 292.466 492.3 292.701 492.394 292.957C492.487 293.214 492.526 293.487 492.51 293.76C491.51 310.53 478.22 323.76 462.02 323.76C445.82 323.76 432.57 310.5 431.53 293.76C431.514 293.487 431.553 293.214 431.646 292.957C431.739 292.701 431.884 292.466 432.072 292.267C432.259 292.069 432.485 291.91 432.736 291.802C432.987 291.695 433.257 291.639 433.53 291.64H490.51Z" fill="#F7F3EF" stroke="#070707" stroke-width="4" stroke-linecap="round" stroke-linejoin="round"/>
<path d="M490.94 291.64C490.94 307.64 477.94 316.34 462 316.34C446.06 316.34 433.06 307.62 433.06 291.64H490.94Z" fill="#F7F3EF" stroke="#070707" stroke-width="4" stroke-linecap="round" stroke-linejoin="round"/>
<path d="M467.49 309.15C467.532 309.284 467.545 309.425 467.529 309.565C467.513 309.704 467.467 309.839 467.396 309.959C467.324 310.08 467.228 310.184 467.113 310.265C466.998 310.346 466.868 310.403 466.73 310.43C463.591 310.856 460.409 310.856 457.27 310.43C457.133 310.401 457.004 310.344 456.89 310.263C456.777 310.181 456.682 310.077 456.611 309.956C456.54 309.836 456.496 309.702 456.48 309.563C456.464 309.424 456.478 309.283 456.52 309.15L461.12 296.85C461.185 296.667 461.305 296.51 461.464 296.398C461.622 296.286 461.811 296.227 462.005 296.227C462.199 296.227 462.388 296.286 462.546 296.398C462.705 296.51 462.825 296.667 462.89 296.85L467.49 309.15Z" fill="#F7F3EF" stroke="#070707" stroke-width="4" stroke-linecap="round" stroke-linejoin="round"/>
<path d="M485.54 292.229C485.389 294.609 484.803 296.942 483.81 299.109C483.743 299.244 483.626 299.347 483.483 299.396C483.341 299.445 483.185 299.435 483.05 299.37L469.93 292.689C469.842 292.623 469.776 292.533 469.739 292.429C469.702 292.325 469.697 292.213 469.724 292.107C469.75 292 469.808 291.904 469.889 291.83C469.97 291.755 470.071 291.707 470.18 291.689H485C485.141 291.694 485.276 291.753 485.376 291.853C485.476 291.953 485.535 292.088 485.54 292.229V292.229Z" fill="#F7F3EF" stroke="#070707" stroke-width="4" stroke-linecap="round" stroke-linejoin="round"/>
<path d="M453.52 292.999L441.08 299.339C440.993 299.39 440.897 299.421 440.797 299.431C440.697 299.441 440.597 299.429 440.502 299.397C440.407 299.365 440.321 299.313 440.248 299.244C440.175 299.176 440.117 299.092 440.08 298.999C439.142 296.922 438.583 294.694 438.43 292.42C438.423 292.324 438.436 292.228 438.468 292.138C438.5 292.047 438.551 291.965 438.617 291.895C438.682 291.826 438.762 291.771 438.85 291.733C438.939 291.696 439.034 291.678 439.13 291.68H453.13C453.292 291.663 453.455 291.703 453.591 291.794C453.727 291.885 453.827 292.021 453.873 292.177C453.919 292.334 453.909 292.502 453.845 292.652C453.78 292.802 453.665 292.925 453.52 292.999V292.999Z" fill="#F7F3EF" stroke="#070707" stroke-width="4" stroke-linecap="round" stroke-linejoin="round"/>
<path d="M481 303.33C478.557 306.026 475.456 308.042 472 309.18C471.776 309.258 471.529 309.247 471.313 309.148C471.097 309.049 470.927 308.871 470.84 308.65L465.84 295.94C465.768 295.766 465.752 295.575 465.793 295.392C465.834 295.209 465.931 295.043 466.07 294.918C466.209 294.792 466.384 294.712 466.57 294.689C466.756 294.666 466.945 294.701 467.11 294.79L480.78 301.92C480.898 301.989 480.999 302.083 481.076 302.196C481.153 302.309 481.204 302.437 481.225 302.572C481.246 302.707 481.237 302.845 481.198 302.976C481.159 303.107 481.091 303.228 481 303.33V303.33Z" fill="#F7F3EF" stroke="#070707" stroke-width="4" stroke-linecap="round" stroke-linejoin="round"/>
<path d="M457.56 296.1L452.72 308.42C452.62 308.658 452.432 308.847 452.195 308.95C451.958 309.052 451.691 309.06 451.45 308.97C448.137 307.802 445.174 305.814 442.84 303.19C442.747 303.076 442.681 302.943 442.645 302.8C442.61 302.657 442.606 302.508 442.635 302.364C442.664 302.22 442.724 302.084 442.811 301.966C442.898 301.847 443.01 301.75 443.14 301.68L456.19 294.87C456.367 294.787 456.566 294.757 456.76 294.786C456.954 294.815 457.136 294.9 457.282 295.031C457.428 295.162 457.532 295.334 457.581 295.524C457.631 295.714 457.623 295.914 457.56 296.1V296.1Z" fill="#F7F3EF" stroke="#070707" stroke-width="4" stroke-linecap="round" stroke-linejoin="round"/>
<path d="M1282.7 134.82C1274.7 165.04 1250.29 249.29 1227.38 247.5C1199.47 245.32 1234 119 1234 119C1234 119 1261.79 7.84989 1289.76 8.80989C1317.73 9.76989 1282.7 134.82 1282.7 134.82Z" fill="#F7F3EF" stroke="#070707" stroke-width="4" stroke-linecap="round" stroke-linejoin="round"/>
<path d="M1249.77 191.032C1249.85 189.205 1245.41 187.528 1239.86 187.286C1234.31 187.044 1229.75 188.328 1229.67 190.154C1229.59 191.98 1234.02 193.657 1239.57 193.9C1245.13 194.142 1249.69 192.858 1249.77 191.032Z" fill="#F7F3EF" stroke="#070707" stroke-width="4" stroke-linecap="round" stroke-linejoin="round"/>
<path d="M1279.68 54.6801C1285.24 54.6801 1289.74 53.1981 1289.74 51.3701C1289.74 49.542 1285.24 48.0601 1279.68 48.0601C1274.12 48.0601 1269.62 49.542 1269.62 51.3701C1269.62 53.1981 1274.12 54.6801 1279.68 54.6801Z" fill="#F7F3EF" stroke="#070707" stroke-width="4" stroke-linecap="round" stroke-linejoin="round"/>
<path d="M1272.56 83.9796C1279.97 83.9796 1285.98 82.0007 1285.98 79.5596C1285.98 77.1185 1279.97 75.1396 1272.56 75.1396C1265.15 75.1396 1259.14 77.1185 1259.14 79.5596C1259.14 82.0007 1265.15 83.9796 1272.56 83.9796Z" fill="#F7F3EF" stroke="#070707" stroke-width="4" stroke-linecap="round" stroke-linejoin="round"/>
<path d="M1261.05 113.52C1269.37 113.52 1276.11 111.299 1276.11 108.56C1276.11 105.82 1269.37 103.6 1261.05 103.6C1252.73 103.6 1245.99 105.82 1245.99 108.56C1245.99 111.299 1252.73 113.52 1261.05 113.52Z" fill="#F7F3EF" stroke="#070707" stroke-width="4" stroke-linecap="round" stroke-linejoin="round"/>
<path d="M1260.95 164.94C1261.06 162.502 1255.14 160.263 1247.74 159.939C1240.33 159.616 1234.24 161.331 1234.14 163.77C1234.03 166.208 1239.95 168.448 1247.35 168.771C1254.76 169.094 1260.85 167.379 1260.95 164.94Z" fill="#F7F3EF" stroke="#070707" stroke-width="4" stroke-linecap="round" stroke-linejoin="round"/>
<path d="M1266.79 142.096C1266.9 139.36 1260.27 136.847 1251.96 136.484C1243.65 136.121 1236.81 138.046 1236.69 140.783C1236.57 143.519 1243.21 146.032 1251.52 146.395C1259.83 146.758 1266.67 144.833 1266.79 142.096Z" fill="#F7F3EF" stroke="#070707" stroke-width="4" stroke-linecap="round" stroke-linejoin="round"/>
<path d="M1133 108.059C1133 108.059 1138.59 100.639 1130.07 92.9194L1132.99 91.8594C1135.23 93.2572 1137.14 95.1172 1138.59 97.3146C1140.05 99.512 1141.02 101.996 1141.44 104.599L1133 108.059Z" fill="#F7F3EF" stroke="#070707" stroke-width="4" stroke-linecap="round" stroke-linejoin="round"/>
<path d="M1144.09 172.109C1140.63 173.368 1136.84 173.305 1133.42 171.934C1130.01 170.562 1127.22 167.979 1125.6 164.679L1108.67 134.109C1104.76 126.109 1110.24 115.969 1118.57 112.939L1118.8 112.849C1120.64 112.178 1122.59 111.876 1124.55 111.959C1126.51 112.043 1128.43 112.512 1130.2 113.338C1131.98 114.165 1133.57 115.333 1134.9 116.776C1136.22 118.22 1137.25 119.909 1137.92 121.749L1153 152.999C1154.35 156.715 1154.17 160.815 1152.5 164.398C1150.83 167.981 1147.8 170.754 1144.09 172.109Z" fill="#EFAF00" stroke="black" stroke-width="4" stroke-linecap="round" stroke-linejoin="round"/>
<path d="M1173.38 161.429C1176.84 160.17 1179.71 157.677 1181.44 154.43C1183.17 151.183 1183.63 147.411 1182.75 143.839L1176.35 109.429C1174.22 100.829 1163.15 96.6791 1154.83 99.7191L1154.59 99.7992C1152.75 100.47 1151.06 101.497 1149.62 102.821C1148.17 104.145 1147.01 105.74 1146.18 107.515C1145.35 109.291 1144.88 111.212 1144.8 113.169C1144.72 115.125 1145.02 117.079 1145.69 118.919L1154.27 152.529C1155.62 156.243 1158.4 159.267 1161.98 160.936C1165.57 162.605 1169.67 162.782 1173.38 161.429V161.429Z" fill="#EFAF00" stroke="black" stroke-width="4" stroke-linecap="round" stroke-linejoin="round"/>
<path d="M1159.74 168.7C1158.18 169.269 1156.53 169.525 1154.88 169.454C1153.22 169.384 1151.6 168.987 1150.1 168.288C1148.6 167.588 1147.25 166.599 1146.13 165.378C1145.01 164.157 1144.14 162.726 1143.58 161.17L1129.08 121.42C1127.94 118.278 1128.09 114.811 1129.5 111.781C1130.91 108.75 1133.47 106.405 1136.61 105.26V105.26C1138.16 104.692 1139.82 104.436 1141.47 104.507C1143.12 104.577 1144.75 104.973 1146.25 105.671C1147.75 106.37 1149.1 107.357 1150.22 108.577C1151.34 109.796 1152.2 111.224 1152.77 112.78L1167.27 152.53C1168.41 155.673 1168.26 159.141 1166.85 162.173C1165.44 165.205 1162.88 167.552 1159.74 168.7V168.7Z" fill="#EFAF00" stroke="black" stroke-width="4" stroke-linecap="round" stroke-linejoin="round"/>
<path d="M1092.27 136.5C1092.27 136.5 1069.77 94.1398 1003.59 128.79Z" fill="#F7F3EF"/>
<path d="M1092.27 136.5C1092.27 136.5 1069.77 94.1398 1003.59 128.79" stroke="#070707" stroke-width="4" stroke-linecap="round" stroke-linejoin="round"/>
<path d="M1033.17 117.24C1033.17 117.24 1019.52 120.83 1019.52 124.35C1019.52 127.87 1026.34 125.97 1026.34 125.97C1026.34 125.97 1016.45 130.86 1016.79 134.11C1017.13 137.36 1024.13 134.11 1024.13 134.11C1024.13 134.11 1019.38 144.02 1023.13 145.11C1026.88 146.2 1027.04 138.52 1027.04 138.52C1027.04 138.52 1031.81 142.28 1033.18 140.94C1034.55 139.6 1029.94 130.29 1029.94 130.29C1029.94 130.29 1034.37 136.12 1037.1 134.06C1039.83 132 1032 122.93 1033.17 117.24Z" fill="#F7F3EF" stroke="#070707" stroke-width="4" stroke-linecap="round" stroke-linejoin="round"/>
<path d="M1009.53 125.83C1009.53 125.83 997.03 122.45 995.16 125.83C993.29 129.21 999.28 127.75 999.28 127.75C999.28 127.75 987.85 132.93 988.78 136.5C989.71 140.07 995.72 136.5 995.72 136.5C995.72 136.5 994.72 145.01 999.13 143.37C1003.54 141.73 1002.73 130.17 1009.53 125.83Z" fill="#F7F3EF" stroke="#070707" stroke-width="4" stroke-linecap="round" stroke-linejoin="round"/>
<path d="M1078.34 92.3498C1078.34 92.3498 1088.34 87.5998 1087.99 84.5398C1087.64 81.4798 1084.29 85.6198 1084.29 85.6198C1084.29 85.6198 1089.44 76.2898 1087.07 74.6198C1084.7 72.9498 1082.41 78.3898 1082.41 78.3898C1082.41 78.3898 1078.97 72.6798 1076.77 76.0898C1074.57 79.4998 1080.79 85.9998 1078.34 92.3498Z" fill="#F7F3EF" stroke="#070707" stroke-width="4" stroke-linecap="round" stroke-linejoin="round"/>
<path d="M1096 136.5C1096 136.5 1085 95.18 1036.76 97.69" stroke="#070707" stroke-width="4" stroke-linecap="round" stroke-linejoin="round"/>
<path d="M1039.36 97.1297C1039.36 97.1297 1033.93 111.23 1028.51 108.45C1023.09 105.67 1030.8 103.16 1030.8 103.16C1030.8 103.16 1014.94 107.16 1015.56 101.49C1016.18 95.8197 1027.45 98.0597 1027.45 98.0597C1027.45 98.0597 1021.45 94.6997 1027.45 93.2397C1033.45 91.7797 1039.36 97.1297 1039.36 97.1297Z" fill="#F7F3EF" stroke="#070707" stroke-width="4" stroke-linecap="round" stroke-linejoin="round"/>
<path d="M1066.36 102.7C1066.36 102.7 1064.68 88.9199 1058.96 88.9199C1053.24 88.9199 1060.12 97.58 1060.12 97.58C1060.12 97.58 1053.23 91.8499 1051.98 95.8099C1050.73 99.7699 1058.98 101.69 1058.98 101.69C1058.98 101.69 1053.67 108.37 1057.64 108.04C1061.61 107.71 1066.36 102.7 1066.36 102.7Z" fill="#F7F3EF" stroke="#070707" stroke-width="4" stroke-linecap="round" stroke-linejoin="round"/>
<path d="M1065.53 117.18C1065.53 117.18 1052.3 112.99 1049.92 118.18C1047.54 123.37 1058.28 120.71 1058.28 120.71C1058.28 120.71 1050.21 124.6 1053.28 127.39C1056.35 130.18 1061.52 123.48 1061.52 123.48C1061.52 123.48 1065.4 131.08 1066.74 127.33C1068.08 123.58 1065.53 117.18 1065.53 117.18Z" fill="#F7F3EF" stroke="#070707" stroke-width="4" stroke-linecap="round" stroke-linejoin="round"/>
<path d="M1075.4 103.64C1075.4 103.64 1086.4 97.3796 1084.4 94.3296C1082.4 91.2796 1075.67 99.1296 1075.67 99.1296C1075.67 99.1296 1073.34 90.4196 1070.56 91.7996C1067.78 93.1796 1075.4 103.64 1075.4 103.64Z" fill="#F7F3EF" stroke="#070707" stroke-width="4" stroke-linecap="round" stroke-linejoin="round"/>
<path d="M1084.65 136C1084.65 136 1066.8 101.36 1080.95 88.4297" stroke="#070707" stroke-width="4" stroke-linecap="round" stroke-linejoin="round"/>
<path d="M1172.57 40.8398C1172.57 40.8398 1187.79 67.5998 1182.39 175.78L1193.13 176.12C1193.13 176.12 1196.68 74.3298 1172.57 40.8398Z" fill="#F7F3EF" stroke="#070707" stroke-width="4" stroke-linecap="round" stroke-linejoin="round"/>
<path d="M1182.39 175.78C1182.39 175.78 1202.97 36.6796 1188.39 2.34961C1188.39 2.34961 1211.02 36.7596 1193.09 176.12L1182.39 175.78Z" fill="#F7F3EF" stroke="#070707" stroke-width="4" stroke-linecap="round" stroke-linejoin="round"/>
<path d="M1182.39 175.78C1188.58 125.83 1232.85 60.7798 1232.85 60.7798C1232.85 60.7798 1197.47 139.43 1193.13 176.09L1182.39 175.78Z" fill="#F7F3EF" stroke="#070707" stroke-width="4" stroke-linecap="round" stroke-linejoin="round"/>
<path d="M1177.77 215.4C1177.77 215.4 1181.05 196.33 1182.39 175.78C1182.39 175.78 1188.1 171.09 1193.13 176.12C1192.09 190.341 1192.25 204.626 1193.63 218.82L1177.77 215.4Z" fill="#F7F3EF" stroke="#070707" stroke-width="4" stroke-linecap="round" stroke-linejoin="round"/>
<path d="M1193.59 220.001C1194.32 217.447 1191.38 214.368 1187.02 213.123C1182.67 211.879 1178.55 212.941 1177.82 215.495C1177.09 218.049 1180.03 221.128 1184.38 222.373C1188.73 223.617 1192.86 222.556 1193.59 220.001Z" fill="#F7F3EF" stroke="#070707" stroke-width="4" stroke-linecap="round" stroke-linejoin="round"/>
<path d="M1191.94 219.42V219.47C1191.73 220.03 1191.38 220.525 1190.92 220.905C1190.45 221.284 1189.9 221.534 1189.31 221.63C1187.83 221.964 1186.3 221.906 1184.85 221.46C1181.5 220.46 1179.33 218.14 1179.85 216.07V216C1180.06 215.439 1180.41 214.944 1180.87 214.565C1181.34 214.185 1181.89 213.935 1182.48 213.84C1183.96 213.505 1185.49 213.563 1186.94 214.01C1190.32 215 1192.49 217.35 1191.94 219.42ZM1180.77 216.3C1180.36 217.83 1182.33 219.78 1185.1 220.57C1186.4 220.972 1187.78 221.028 1189.1 220.73C1189.54 220.676 1189.95 220.508 1190.31 220.24C1190.66 219.973 1190.93 219.618 1191.1 219.21V219.21C1191.51 217.69 1189.54 215.74 1186.77 214.95C1185.47 214.547 1184.09 214.492 1182.77 214.79C1182.33 214.843 1181.92 215.012 1181.56 215.279C1181.21 215.546 1180.94 215.902 1180.77 216.31V216.3Z" fill="#F7F3EF" stroke="#070707" stroke-width="4" stroke-linecap="round" stroke-linejoin="round"/>
<path d="M1188.67 218.52C1188.37 219.57 1186.87 220.03 1185.25 219.57C1183.63 219.11 1182.62 217.94 1182.9 216.9C1183.2 215.9 1184.7 215.39 1186.32 215.9C1187.92 216.3 1189 217.47 1188.67 218.52ZM1183.79 217.15C1183.66 217.62 1184.36 218.38 1185.5 218.7C1186.64 219.02 1187.64 218.7 1187.77 218.29C1187.9 217.83 1187.2 217.07 1186.06 216.74C1184.92 216.42 1183.92 216.69 1183.79 217.16V217.15Z" fill="#F7F3EF" stroke="#070707" stroke-width="4" stroke-linecap="round" stroke-linejoin="round"/>
<path d="M1299.67 135.979L1273.12 338.349H1261.36L1231.02 135.979H1299.67Z" fill="#F7F3EF" stroke="#070707" stroke-width="4" stroke-linecap="round" stroke-linejoin="round"/>
<path d="M1307.16 142.529L1281.08 339.359H1269.33L1239.45 142.529H1307.16Z" fill="#F7F3EF" stroke="#070707" stroke-width="4" stroke-linecap="round" stroke-linejoin="round"/>
<path d="M1300.43 135.979L1273.88 338.349H1262.12L1231.77 135.979H1300.43Z" fill="#F7F3EF" stroke="#070707" stroke-width="4" stroke-linecap="round" stroke-linejoin="round"/>
<path d="M1262.12 338.349H1096.84L1070.28 135.979H1231.77L1262.12 338.349Z" fill="#F7F3EF" stroke="#070707" stroke-width="4" stroke-linecap="round" stroke-linejoin="round"/>
<path d="M1006.16 235.46C1006.16 235.46 1013.27 230.86 1008.43 221.46H1011.29C1012.77 223.46 1013.82 225.748 1014.36 228.176C1014.9 230.605 1014.93 233.12 1014.44 235.56L1006.16 235.46Z" fill="#F7F3EF" stroke="#070707" stroke-width="4" stroke-linecap="round" stroke-linejoin="round"/>
<path d="M994.78 294.3C991.388 294.263 988.129 292.974 985.632 290.679C983.134 288.384 981.573 285.246 981.25 281.87L976.59 250C975.81 241.87 983.84 234.87 992.01 235H992.25C995.895 235.042 999.374 236.53 1001.92 239.136C1004.47 241.743 1005.88 245.255 1005.84 248.9L1008.67 280.75C1008.62 284.388 1007.13 287.858 1004.53 290.399C1001.92 292.939 998.418 294.343 994.78 294.3V294.3Z" fill="#EA631F" stroke="#070707" stroke-width="4" stroke-linecap="round" stroke-linejoin="round"/>
<path d="M1023.52 294.62C1026.91 294.66 1030.2 293.443 1032.75 291.203C1035.3 288.964 1036.92 285.86 1037.32 282.49L1043 250.73C1044 242.62 1035.76 235.44 1027.59 235.35H1027.36C1023.71 235.31 1020.2 236.719 1017.6 239.267C1014.99 241.816 1013.5 245.295 1013.46 248.94L1009.93 280.72C1009.89 284.365 1011.3 287.877 1013.85 290.483C1016.4 293.09 1019.87 294.578 1023.52 294.62Z" fill="#EA631F" stroke="#070707" stroke-width="4" stroke-linecap="round" stroke-linejoin="round"/>
<path d="M1009.39 296.45C1006.31 296.415 1003.36 295.159 1001.21 292.955C999.051 290.752 997.858 287.783 997.89 284.7L998.32 245.7C998.354 242.617 999.611 239.674 1001.81 237.518C1004.02 235.361 1006.99 234.168 1010.07 234.2V234.2C1013.15 234.234 1016.1 235.491 1018.25 237.694C1020.41 239.898 1021.6 242.867 1021.57 245.95L1021.14 284.95C1021.12 286.477 1020.81 287.986 1020.21 289.39C1019.61 290.794 1018.74 292.067 1017.65 293.135C1016.56 294.203 1015.27 295.046 1013.85 295.614C1012.43 296.183 1010.92 296.467 1009.39 296.45V296.45Z" fill="#EA631F" stroke="#070707" stroke-width="4" stroke-linecap="round" stroke-linejoin="round"/>
<g style="mix-blend-mode:multiply">
<path d="M740.53 192.8C740.53 224.22 728.048 254.353 705.831 276.571C683.613 298.788 653.48 311.27 622.06 311.27V311.27C590.64 311.267 560.509 298.785 538.292 276.568C516.075 254.351 503.592 224.219 503.59 192.8H740.53Z" fill="#F7F3EF"/>
<path d="M740.53 192.8C740.53 224.22 728.048 254.353 705.831 276.571C683.613 298.788 653.48 311.27 622.06 311.27V311.27C590.64 311.267 560.509 298.785 538.292 276.568C516.075 254.351 503.592 224.219 503.59 192.8H740.53Z" stroke="#070707" stroke-width="4" stroke-linecap="round" stroke-linejoin="round"/>
</g>
<path d="M740.15 192.42C740.147 223.839 727.665 253.971 705.448 276.188C683.231 298.405 653.099 310.887 621.68 310.89V310.89C590.261 310.887 560.129 298.405 537.912 276.188C515.695 253.971 503.213 223.839 503.21 192.42H740.15Z" fill="#F7F3EF" stroke="#070707" stroke-width="4" stroke-linecap="round" stroke-linejoin="round"/>
<path d="M642.436 295.357C653.004 291.731 659.381 282.409 656.679 274.537C653.978 266.664 643.221 263.222 632.653 266.849C622.085 270.475 615.708 279.797 618.41 287.669C621.111 295.541 631.868 298.983 642.436 295.357Z" fill="#F7F3EF" stroke="#070707" stroke-width="4" stroke-linecap="round" stroke-linejoin="round"/>
<path d="M640.682 294.583C649.899 290.947 655.129 282.319 652.365 275.311C649.6 268.304 639.887 265.571 630.671 269.207C621.454 272.843 616.224 281.471 618.988 288.479C621.753 295.486 631.465 298.219 640.682 294.583Z" fill="#F7F3EF" stroke="#070707" stroke-width="4" stroke-linecap="round" stroke-linejoin="round"/>
<path d="M639.08 277.13C638.86 278.13 635.93 280.82 635.93 280.82C635.93 280.82 634.23 278.12 634.45 277.13C634.657 276.583 635.031 276.114 635.519 275.791C636.008 275.468 636.585 275.307 637.17 275.33C638.45 275.33 639.31 276.14 639.08 277.13Z" fill="#F7F3EF" stroke="#070707" stroke-width="4" stroke-linecap="round" stroke-linejoin="round"/>
<path d="M632.31 286.57C632.53 285.57 635.46 282.88 635.46 282.88C635.46 282.88 637.16 285.57 636.94 286.57C636.732 287.116 636.358 287.583 635.869 287.905C635.381 288.226 634.804 288.385 634.22 288.36C632.94 288.36 632.08 287.56 632.31 286.57Z" fill="#F7F3EF" stroke="#070707" stroke-width="4" stroke-linecap="round" stroke-linejoin="round"/>
<path d="M630 280.05C631.28 280.05 634.34 281.85 634.34 281.85C634.34 281.85 630.46 283.65 629.18 283.65C627.9 283.65 627.05 282.84 627.28 281.85C627.484 281.301 627.858 280.831 628.347 280.507C628.835 280.184 629.414 280.024 630 280.05V280.05Z" fill="#F7F3EF" stroke="#070707" stroke-width="4" stroke-linecap="round" stroke-linejoin="round"/>
<path d="M641.36 283.65C640.08 283.65 637.02 281.85 637.02 281.85C637.02 281.85 640.9 280.05 642.18 280.05C643.46 280.05 644.31 280.86 644.08 281.85C643.875 282.399 643.502 282.87 643.013 283.193C642.524 283.516 641.945 283.677 641.36 283.65V283.65Z" fill="#F7F3EF" stroke="#070707" stroke-width="4" stroke-linecap="round" stroke-linejoin="round"/>
<path d="M606.45 282.33C610.581 282.33 613.93 278.981 613.93 274.85C613.93 270.719 610.581 267.37 606.45 267.37C602.319 267.37 598.97 270.719 598.97 274.85C598.97 278.981 602.319 282.33 606.45 282.33Z" fill="#F7F3EF" stroke="#070707" stroke-width="4" stroke-linecap="round" stroke-linejoin="round"/>
<path d="M675.302 263.9C676.527 259.106 673.634 254.226 668.84 253C664.046 251.774 659.165 254.667 657.94 259.462C656.714 264.256 659.607 269.136 664.402 270.362C669.196 271.587 674.076 268.694 675.302 263.9Z" fill="#F7F3EF" stroke="#070707" stroke-width="4" stroke-linecap="round" stroke-linejoin="round"/>
<path d="M551.2 257.995C552.26 253.161 549.2 248.384 544.366 247.324C539.532 246.265 534.755 249.325 533.696 254.159C532.637 258.993 535.696 263.77 540.53 264.829C545.364 265.888 550.141 262.828 551.2 257.995Z" fill="#F7F3EF" stroke="#070707" stroke-width="4" stroke-linecap="round" stroke-linejoin="round"/>
<path d="M571.207 289.022C575.26 287.697 575.865 278.423 572.558 268.307C569.252 258.191 563.286 251.065 559.233 252.389C555.181 253.714 554.576 262.988 557.882 273.104C561.189 283.22 567.154 290.347 571.207 289.022Z" fill="#F7F3EF" stroke="#070707" stroke-width="4" stroke-linecap="round" stroke-linejoin="round"/>
<path d="M564 256.16C567.16 255.89 571.65 262.88 573.52 271.99C574.98 279.07 574.9 285.49 570.92 285.83C568.75 286.02 565.41 281.1 562.92 272.11C560.43 263.12 560.05 256.5 564 256.16Z" fill="#F7F3EF" stroke="#070707" stroke-width="4" stroke-linecap="round" stroke-linejoin="round"/>
<path d="M621.236 225.836C626.314 216.483 628.397 207.797 625.887 206.434C623.378 205.072 617.227 211.549 612.149 220.902C607.071 230.255 604.988 238.941 607.498 240.304C610.007 241.666 616.158 235.189 621.236 225.836Z" fill="#F7F3EF" stroke="#070707" stroke-width="4" stroke-linecap="round" stroke-linejoin="round"/>
<path d="M607.94 234.78C606.48 233.13 609.1 225.38 614.13 217.61C618.03 211.56 622.13 206.9 623.99 208.98C624.99 210.11 623.22 215.66 618.51 223.7C613.8 231.74 609.77 236.85 607.94 234.78Z" fill="#F7F3EF" stroke="#070707" stroke-width="4" stroke-linecap="round" stroke-linejoin="round"/>
<path d="M655.58 247.79C664.35 244.01 676.95 242.28 692.18 250.54Z" fill="#F7F3EF"/>
<path d="M655.58 247.79C664.35 244.01 676.95 242.28 692.18 250.54" stroke="#070707" stroke-width="4" stroke-linecap="round" stroke-linejoin="round"/>
<path d="M690.66 249.38C690.66 249.38 689.82 260.17 694.19 260.05C698.56 259.93 694.34 255.92 694.34 255.92C694.34 255.92 703.34 263.38 704.71 259.54C706.08 255.7 698.08 253.65 698.08 253.65C698.08 253.65 703 253.33 699.57 250.53C696.14 247.73 690.66 249.38 690.66 249.38Z" fill="#F7F3EF" stroke="#070707" stroke-width="4" stroke-linecap="round" stroke-linejoin="round"/>
<path d="M671.47 244.65C671.47 244.65 676.8 236.25 680.47 238.01C684.14 239.77 677.04 243.26 677.04 243.26C677.04 243.26 683.27 241.67 682.86 244.63C682.45 247.59 676.53 246.28 676.53 246.28C676.53 246.28 677.9 252.28 675.44 250.8C672.98 249.32 671.47 244.65 671.47 244.65Z" fill="#F7F3EF" stroke="#070707" stroke-width="4" stroke-linecap="round" stroke-linejoin="round"/>
<path d="M582.8 279.11C584.48 286.9 591.14 298.58 615.13 303.68Z" fill="#F7F3EF"/>
<path d="M582.8 279.11C584.48 286.9 591.14 298.58 615.13 303.68" stroke="#070707" stroke-width="4" stroke-linecap="round" stroke-linejoin="round"/>
<path d="M599.61 298.55C599.61 298.55 606.2 301.61 607.36 300.21C608.52 298.81 605.19 297.33 605.19 297.33C605.19 297.33 610.71 298.64 611.65 297.24C612.59 295.84 608.74 294.83 608.74 294.83C608.74 294.83 613.87 292.46 612.74 290.83C611.61 289.2 609.03 292.16 609.03 292.16C609.03 292.16 608.37 289.1 607.39 289.16C606.41 289.22 605.18 294.45 605.18 294.45C605.18 294.45 605.34 290.68 603.58 290.6C601.82 290.52 602 296.68 599.61 298.55Z" fill="#F7F3EF" stroke="#070707" stroke-width="4" stroke-linecap="round" stroke-linejoin="round"/>
<path d="M611.8 302.9C611.8 302.9 615.65 308.35 617.5 307.62C619.35 306.89 616.5 305.51 616.5 305.51C616.5 305.51 622.73 307.21 623.5 305.51C624.27 303.81 620.75 303.23 620.75 303.23C620.75 303.23 623.97 300.23 621.66 299.38C619.35 298.53 615.93 303.42 611.8 302.9Z" fill="#F7F3EF" stroke="#070707" stroke-width="4" stroke-linecap="round" stroke-linejoin="round"/>
<path d="M586.76 287.94C586.76 287.94 590.63 293.94 593.28 292.67C595.93 291.4 590.8 288.92 590.8 288.92C590.8 288.92 595.28 290.03 594.97 287.92C594.66 285.81 590.42 286.76 590.42 286.76C590.42 286.76 591.42 282.48 589.61 283.52C587.8 284.56 586.76 287.94 586.76 287.94Z" fill="#F7F3EF" stroke="#070707" stroke-width="4" stroke-linecap="round" stroke-linejoin="round"/>
<path d="M652.78 296.47C660.48 298.54 673.91 297.95 689.4 278.93Z" fill="#F7F3EF"/>
<path d="M652.78 296.47C660.48 298.54 673.91 297.95 689.4 278.93" stroke="#070707" stroke-width="4" stroke-linecap="round" stroke-linejoin="round"/>
<path d="M677.75 290.4C677.75 290.4 683.48 285.93 682.75 284.26C682.02 282.59 679.19 284.88 679.19 284.88C679.19 284.88 682.88 280.56 682.06 279.09C681.24 277.62 678.59 280.58 678.59 280.58C678.59 280.58 678.83 274.93 676.83 275.15C674.83 275.37 676.31 279.06 676.31 279.06C676.31 279.06 673.31 278.24 672.91 279.16C672.51 280.08 676.61 283.54 676.61 283.54C676.61 283.54 673.33 281.68 672.45 283.21C671.57 284.74 677.16 287.46 677.75 290.4Z" fill="#F7F3EF" stroke="#070707" stroke-width="4" stroke-linecap="round" stroke-linejoin="round"/>
<path d="M687.19 281.54C687.19 281.54 693.79 280.6 693.99 278.62C694.19 276.64 691.65 278.55 691.65 278.55C691.65 278.55 696.01 273.78 694.85 272.28C693.69 270.78 691.56 273.69 691.56 273.69C691.56 273.69 690.33 269.45 688.56 271.13C686.79 272.81 689.53 278.1 687.19 281.54Z" fill="#F7F3EF" stroke="#070707" stroke-width="4" stroke-linecap="round" stroke-linejoin="round"/>
<path d="M662.45 297C662.45 297 669.56 296.3 669.63 293.36C669.7 290.42 665.16 293.85 665.16 293.85C665.16 293.85 668.16 290.38 666.16 289.69C664.16 289 663.06 293.21 663.06 293.21C663.06 293.21 659.68 290.4 659.8 292.44C659.92 294.48 662.45 297 662.45 297Z" fill="#F7F3EF" stroke="#070707" stroke-width="4" stroke-linecap="round" stroke-linejoin="round"/>
<path d="M586.51 248.33C586.51 248.33 593.71 239.86 592.09 237.23C590.47 234.6 589.16 239.75 589.16 239.75C589.16 239.75 590.01 229.11 587.16 228.6C584.31 228.09 584.4 235.71 584.4 235.71C584.4 235.71 579.13 230.53 578.54 234.54C577.95 238.55 583.3 243.84 586.51 248.33Z" fill="#F7F3EF" stroke="#070707" stroke-width="4" stroke-linecap="round" stroke-linejoin="round"/>
<path d="M588.51 259.83C588.51 259.83 595.95 249.58 592.82 247.65C589.69 245.72 586.82 255.65 586.82 255.65C586.82 255.65 581.1 248.65 579.14 251.09C577.18 253.53 588.51 259.83 588.51 259.83Z" fill="#F7F3EF" stroke="#070707" stroke-width="4" stroke-linecap="round" stroke-linejoin="round"/>
<path d="M592.33 266.32C587.42 259.06 584.2 250.82 587.27 243.66Z" fill="#F7F3EF"/>
<path d="M592.33 266.32C587.42 259.06 584.2 250.82 587.27 243.66" stroke="#070707" stroke-width="4" stroke-linecap="round" stroke-linejoin="round"/>
<path d="M1005.54 306.58C1005.55 307.136 1005.38 307.681 1005.07 308.141C1004.76 308.6 1004.31 308.953 1003.79 309.15L997.26 311.81L936.6 336.5C933.391 337.815 929.958 338.495 926.49 338.5H688.32C687.946 338.505 687.574 338.435 687.227 338.293C686.881 338.152 686.566 337.941 686.303 337.675C686.04 337.409 685.833 337.092 685.695 336.744C685.557 336.396 685.49 336.024 685.5 335.65C685.493 335.092 685.659 334.546 685.974 334.086C686.289 333.627 686.738 333.275 687.26 333.08L754.45 305.72C757.656 304.408 761.086 303.729 764.55 303.72H1002.72C1003.1 303.714 1003.47 303.785 1003.81 303.927C1004.16 304.069 1004.48 304.28 1004.74 304.547C1005 304.815 1005.21 305.132 1005.35 305.482C1005.49 305.831 1005.55 306.204 1005.54 306.58Z" fill="#F7F3EF" stroke="#070707" stroke-width="4" stroke-linecap="round" stroke-linejoin="round"/>
<path d="M1005.54 306.58V314.66C1005.55 315.216 1005.38 315.761 1005.07 316.221C1004.76 316.68 1004.31 317.033 1003.79 317.23L936.6 344.58C933.391 345.896 929.958 346.575 926.49 346.58H688.32C687.946 346.585 687.574 346.515 687.227 346.373C686.881 346.232 686.566 346.021 686.303 345.755C686.04 345.489 685.833 345.172 685.695 344.824C685.557 344.476 685.49 344.104 685.5 343.73V335.65C685.49 336.024 685.557 336.396 685.695 336.744C685.833 337.092 686.04 337.409 686.303 337.675C686.566 337.941 686.881 338.152 687.227 338.293C687.574 338.435 687.946 338.505 688.32 338.5H926.49C929.958 338.495 933.391 337.816 936.6 336.5L997.26 311.81L1003.79 309.15C1004.31 308.953 1004.76 308.6 1005.07 308.141C1005.38 307.681 1005.55 307.136 1005.54 306.58V306.58Z" fill="#F7F3EF" stroke="#070707" stroke-width="4" stroke-linecap="round" stroke-linejoin="round"/>
<path d="M817.94 310.11L868.17 295.98C868.478 295.895 868.765 295.749 869.015 295.551C869.266 295.353 869.474 295.107 869.628 294.828C869.782 294.548 869.878 294.24 869.911 293.923C869.944 293.606 869.913 293.285 869.82 292.98L867.75 285.98C867.666 285.678 867.523 285.396 867.329 285.15C867.136 284.903 866.896 284.698 866.623 284.544C866.349 284.391 866.049 284.293 865.738 284.256C865.427 284.219 865.111 284.244 864.81 284.33L814.57 298.46C814.264 298.547 813.978 298.694 813.729 298.893C813.48 299.091 813.273 299.337 813.12 299.616C812.966 299.895 812.87 300.201 812.835 300.518C812.801 300.834 812.83 301.154 812.92 301.46L814.99 308.46C815.075 308.762 815.219 309.044 815.414 309.29C815.608 309.537 815.849 309.742 816.123 309.896C816.397 310.049 816.699 310.147 817.01 310.183C817.322 310.22 817.638 310.195 817.94 310.11V310.11Z" fill="#F7F3EF" stroke="#070707" stroke-width="4" stroke-linecap="round" stroke-linejoin="round"/>
<path d="M737.29 321.59L812.71 300.37L817.78 318.37C817.78 318.37 768.57 340.3 737.29 321.59Z" fill="#F7F3EF" stroke="#070707" stroke-width="4" stroke-linecap="round" stroke-linejoin="round"/>
<path d="M932.45 321.51C945.821 321.51 956.66 311.615 956.66 299.41C956.66 287.204 945.821 277.31 932.45 277.31C919.079 277.31 908.24 287.204 908.24 299.41C908.24 311.615 919.079 321.51 932.45 321.51Z" fill="#F7F3EF" stroke="#070707" stroke-width="4" stroke-linecap="round" stroke-linejoin="round"/>
<path d="M927.95 320.5C938.438 320.5 946.94 311.792 946.94 301.05C946.94 290.308 938.438 281.6 927.95 281.6C917.462 281.6 908.96 290.308 908.96 301.05C908.96 311.792 917.462 320.5 927.95 320.5Z" fill="#F7F3EF" stroke="#070707" stroke-width="4" stroke-linecap="round" stroke-linejoin="round"/>
<path d="M930.52 294.63C930.52 295.98 927.95 299.63 927.95 299.63C927.95 299.63 925.39 295.96 925.39 294.63C925.43 293.977 925.718 293.364 926.195 292.917C926.671 292.469 927.301 292.22 927.955 292.22C928.608 292.22 929.238 292.469 929.714 292.917C930.191 293.364 930.479 293.977 930.52 294.63Z" fill="#F7F3EF" stroke="#070707" stroke-width="4" stroke-linecap="round" stroke-linejoin="round"/>
<path d="M925.39 307.47C925.39 306.12 927.95 302.47 927.95 302.47C927.95 302.47 930.52 306.13 930.52 307.47C930.479 308.122 930.191 308.735 929.714 309.183C929.238 309.63 928.608 309.88 927.955 309.88C927.301 309.88 926.671 309.63 926.195 309.183C925.718 308.735 925.43 308.122 925.39 307.47V307.47Z" fill="#F7F3EF" stroke="#070707" stroke-width="4" stroke-linecap="round" stroke-linejoin="round"/>
<path d="M921.219 298.6C922.629 298.6 926.479 301.05 926.479 301.05C926.479 301.05 922.629 303.5 921.219 303.5C920.57 303.5 919.947 303.242 919.487 302.782C919.028 302.323 918.77 301.699 918.77 301.05C918.77 300.4 919.028 299.777 919.487 299.317C919.947 298.858 920.57 298.6 921.219 298.6Z" fill="#F7F3EF" stroke="#070707" stroke-width="4" stroke-linecap="round" stroke-linejoin="round"/>
<path d="M934.69 303.5C933.27 303.5 929.43 301.05 929.43 301.05C929.43 301.05 933.27 298.6 934.69 298.6C935.339 298.6 935.963 298.858 936.422 299.317C936.881 299.777 937.14 300.4 937.14 301.05C937.14 301.699 936.881 302.323 936.422 302.782C935.963 303.242 935.339 303.5 934.69 303.5Z" fill="#F7F3EF" stroke="#070707" stroke-width="4" stroke-linecap="round" stroke-linejoin="round"/>
<path d="M915.574 317.636C926.041 311.292 930.337 299.239 925.17 290.713C920.003 282.188 907.329 280.42 896.863 286.763C886.397 293.107 882.101 305.161 887.268 313.686C892.435 322.211 905.108 323.979 915.574 317.636Z" fill="#F7F3EF" stroke="#070707" stroke-width="4" stroke-linecap="round" stroke-linejoin="round"/>
<path d="M913.757 316.154C922.624 309.764 925.566 298.692 920.329 291.425C915.091 284.157 903.657 283.446 894.79 289.836C885.923 296.227 882.981 307.299 888.219 314.566C893.456 321.833 904.89 322.544 913.757 316.154Z" fill="#F7F3EF" stroke="#070707" stroke-width="4" stroke-linecap="round" stroke-linejoin="round"/>
<path d="M907.9 297.3C907.66 298.52 904.52 301.82 904.52 301.82C904.52 301.82 902.7 298.52 902.94 297.3C903.114 296.661 903.495 296.097 904.024 295.697C904.552 295.298 905.197 295.084 905.86 295.09C906.151 295.058 906.445 295.095 906.719 295.197C906.993 295.3 907.239 295.465 907.437 295.68C907.636 295.895 907.781 296.154 907.861 296.435C907.942 296.716 907.955 297.012 907.9 297.3V297.3Z" fill="#F7F3EF" stroke="#070707" stroke-width="4" stroke-linecap="round" stroke-linejoin="round"/>
<path d="M900.65 308.87C900.89 307.65 904.019 304.35 904.019 304.35C904.019 304.35 905.849 307.65 905.609 308.87C905.433 309.507 905.051 310.068 904.523 310.466C903.995 310.864 903.351 311.076 902.689 311.07C902.4 311.101 902.107 311.064 901.834 310.962C901.561 310.86 901.315 310.696 901.117 310.482C900.919 310.268 900.773 310.011 900.692 309.731C900.611 309.451 900.596 309.156 900.65 308.87Z" fill="#F7F3EF" stroke="#070707" stroke-width="4" stroke-linecap="round" stroke-linejoin="round"/>
<path d="M898.21 300.879C899.58 300.879 902.85 303.079 902.85 303.079C902.85 303.079 898.71 305.289 897.34 305.289C897.052 305.315 896.763 305.273 896.494 305.167C896.225 305.062 895.984 304.895 895.791 304.681C895.597 304.467 895.455 304.211 895.377 303.933C895.299 303.655 895.286 303.363 895.34 303.079C895.514 302.45 895.888 301.895 896.406 301.498C896.924 301.101 897.557 300.884 898.21 300.879V300.879Z" fill="#F7F3EF" stroke="#070707" stroke-width="4" stroke-linecap="round" stroke-linejoin="round"/>
<path d="M910.34 305.29C908.97 305.29 905.7 303.079 905.7 303.079C905.7 303.079 909.84 300.879 911.21 300.879C911.496 300.855 911.785 300.896 912.053 301.001C912.32 301.106 912.561 301.272 912.754 301.485C912.948 301.698 913.089 301.952 913.168 302.229C913.247 302.505 913.262 302.796 913.21 303.079C913.038 303.71 912.664 304.268 912.146 304.666C911.628 305.065 910.994 305.284 910.34 305.29Z" fill="#F7F3EF" stroke="#070707" stroke-width="4" stroke-linecap="round" stroke-linejoin="round"/>
<path d="M896.552 319.971C907.12 316.345 913.497 307.023 910.796 299.151C908.094 291.279 897.337 287.837 886.769 291.463C876.202 295.09 869.825 304.411 872.526 312.283C875.228 320.156 885.984 323.598 896.552 319.971Z" fill="#F7F3EF" stroke="#070707" stroke-width="4" stroke-linecap="round" stroke-linejoin="round"/>
<path d="M894.791 319.229C904.007 315.593 909.238 306.964 906.473 299.957C903.708 292.949 893.996 290.216 884.779 293.852C875.562 297.488 870.332 306.117 873.097 313.124C875.861 320.132 885.574 322.865 894.791 319.229Z" fill="#F7F3EF" stroke="#070707" stroke-width="4" stroke-linecap="round" stroke-linejoin="round"/>
<path d="M893.2 301.759C892.97 302.759 890.04 305.449 890.04 305.449C890.04 305.449 888.34 302.759 888.57 301.759C888.774 301.21 889.148 300.74 889.637 300.417C890.126 300.093 890.704 299.933 891.29 299.959C892.57 299.999 893.42 300.769 893.2 301.759Z" fill="#F7F3EF" stroke="#070707" stroke-width="4" stroke-linecap="round" stroke-linejoin="round"/>
<path d="M886.42 311.2C886.65 310.2 889.58 307.51 889.58 307.51C889.58 307.51 891.28 310.2 891.05 311.2C890.845 311.748 890.471 312.217 889.982 312.539C889.493 312.86 888.914 313.018 888.33 312.99C887.05 313 886.2 312.19 886.42 311.2Z" fill="#F7F3EF" stroke="#070707" stroke-width="4" stroke-linecap="round" stroke-linejoin="round"/>
<path d="M884.15 304.68C885.42 304.68 888.48 306.48 888.48 306.48C888.48 306.48 884.61 308.28 883.33 308.28C882.05 308.28 881.2 307.47 881.42 306.48C881.628 305.931 882.003 305.461 882.494 305.138C882.984 304.815 883.563 304.654 884.15 304.68V304.68Z" fill="#F7F3EF" stroke="#070707" stroke-width="4" stroke-linecap="round" stroke-linejoin="round"/>
<path d="M895.47 308.28C894.2 308.28 891.14 306.48 891.14 306.48C891.14 306.48 895.01 304.68 896.29 304.68C897.57 304.68 898.42 305.49 898.2 306.48C897.992 307.029 897.616 307.498 897.126 307.822C896.636 308.145 896.056 308.305 895.47 308.28Z" fill="#F7F3EF" stroke="#070707" stroke-width="4" stroke-linecap="round" stroke-linejoin="round"/>
<path d="M375.42 78.5996H389.81C391.043 78.5996 392.226 79.0896 393.098 79.9616C393.97 80.8337 394.46 82.0164 394.46 83.2496V114.09H370.77V83.2496C370.77 82.0164 371.26 80.8337 372.132 79.9616C373.004 79.0896 374.187 78.5996 375.42 78.5996V78.5996Z" fill="#F7F3EF" stroke="#070707" stroke-width="4" stroke-linecap="round" stroke-linejoin="round"/>
<path d="M387.74 114.09H393.34C400.477 114.09 407.321 116.925 412.368 121.972C417.415 127.018 420.25 133.863 420.25 141V291.57C420.25 293.691 419.407 295.726 417.907 297.227C416.406 298.727 414.372 299.57 412.25 299.57H368.88C366.758 299.57 364.723 298.727 363.223 297.227C361.723 295.726 360.88 293.691 360.88 291.57V141C360.88 133.871 363.708 127.034 368.744 121.989C373.78 116.944 380.612 114.103 387.74 114.09V114.09Z" fill="#1C0E0C"/>
<path d="M372.82 114.09H378.42C385.557 114.09 392.402 116.925 397.448 121.972C402.495 127.018 405.33 133.863 405.33 141V291.57C405.33 293.691 404.487 295.726 402.987 297.227C401.487 298.727 399.452 299.57 397.33 299.57H354C351.878 299.57 349.843 298.727 348.343 297.227C346.843 295.726 346 293.691 346 291.57V141C346 133.878 348.823 127.047 353.85 122.003C358.877 116.959 365.699 114.114 372.82 114.09Z" fill="#F7F3EF" stroke="#070707" stroke-width="4" stroke-linecap="round" stroke-linejoin="round"/>
<path d="M416.65 143.5V287.209C416.65 293.209 413.34 296.54 407.84 296.54H358.84C353.34 296.54 350.04 292.829 350.04 286.819V143.5H416.65Z" fill="#1C0E0C"/>
<path d="M392.81 187.8H358.2C355.185 187.8 352.74 190.244 352.74 193.26V215.99C352.74 219.005 355.185 221.45 358.2 221.45H392.81C395.826 221.45 398.27 219.005 398.27 215.99V193.26C398.27 190.244 395.826 187.8 392.81 187.8Z" fill="#F7F3EF" stroke="#070707" stroke-width="4" stroke-linecap="round" stroke-linejoin="round"/>
<path d="M372.82 114.09H378.42C385.557 114.09 392.402 116.925 397.448 121.972C402.495 127.018 405.33 133.863 405.33 141V291.57C405.33 293.691 404.487 295.726 402.987 297.227C401.487 298.727 399.452 299.57 397.33 299.57H354C351.878 299.57 349.843 298.727 348.343 297.227C346.843 295.726 346 293.691 346 291.57V141C346 133.878 348.823 127.047 353.85 122.003C358.877 116.959 365.699 114.114 372.82 114.09Z" fill="#F7F3EF" stroke="#070707" stroke-width="4" stroke-linecap="round" stroke-linejoin="round"/>
<path d="M170.519 256.169C172.387 247.115 166.562 238.26 157.508 236.391C148.453 234.523 139.598 240.348 137.73 249.403C135.861 258.457 141.687 267.312 150.741 269.181C159.796 271.049 168.65 265.224 170.519 256.169Z" fill="#F7F3EF" stroke="#070707" stroke-width="4" stroke-linecap="round" stroke-linejoin="round"/>
<path d="M168.32 253.392C170.238 244.066 164.232 234.951 154.906 233.033C145.58 231.115 136.464 237.121 134.547 246.447C132.629 255.774 138.635 264.889 147.961 266.806C157.287 268.724 166.402 262.719 168.32 253.392Z" fill="#F7F3EF" stroke="#070707" stroke-width="4" stroke-linecap="round" stroke-linejoin="round"/>
<path d="M149.5 263.94H166C169.713 263.94 173.274 265.415 175.9 268.04C178.525 270.666 180 274.226 180 277.94V310.699C180 311.829 179.551 312.913 178.752 313.712C177.953 314.511 176.87 314.959 175.74 314.959H139.72C138.59 314.959 137.507 314.511 136.708 313.712C135.909 312.913 135.46 311.829 135.46 310.699V278C135.452 276.153 135.81 274.322 136.512 272.614C137.215 270.906 138.248 269.354 139.553 268.047C140.858 266.74 142.409 265.704 144.116 264.999C145.823 264.294 147.653 263.934 149.5 263.94V263.94Z" fill="#F7F3EF" stroke="#070707" stroke-width="4" stroke-linecap="round" stroke-linejoin="round"/>
<path d="M149.12 263.94H165.66C169.373 263.94 172.934 265.415 175.56 268.04C178.185 270.666 179.66 274.226 179.66 277.94V310.699C179.66 311.829 179.211 312.913 178.412 313.712C177.614 314.511 176.53 314.959 175.4 314.959H139.34C138.21 314.959 137.127 314.511 136.328 313.712C135.529 312.913 135.08 311.829 135.08 310.699V278C135.072 276.153 135.43 274.322 136.132 272.614C136.835 270.906 137.869 269.354 139.174 268.047C140.479 266.74 142.029 265.704 143.736 264.999C145.444 264.294 147.273 263.934 149.12 263.94Z" fill="#1C0E0C"/>
<path d="M137.19 263.94H153.73C157.443 263.94 161.004 265.415 163.63 268.04C166.255 270.666 167.73 274.226 167.73 277.94V310.699C167.73 311.829 167.281 312.913 166.482 313.712C165.683 314.511 164.6 314.959 163.47 314.959H127.41C126.28 314.959 125.197 314.511 124.398 313.712C123.599 312.913 123.15 311.829 123.15 310.699V278C123.142 276.153 123.5 274.322 124.202 272.614C124.905 270.906 125.938 269.354 127.243 268.047C128.548 266.74 130.099 265.704 131.806 264.999C133.513 264.294 135.343 263.934 137.19 263.94V263.94Z" fill="#F7F3EF" stroke="#070707" stroke-width="4" stroke-linecap="round" stroke-linejoin="round"/>
<path d="M158.78 282.53H137.02C135.131 282.53 133.6 284.061 133.6 285.95V296.96C133.6 298.849 135.131 300.38 137.02 300.38H158.78C160.669 300.38 162.2 298.849 162.2 296.96V285.95C162.2 284.061 160.669 282.53 158.78 282.53Z" fill="#F7F3EF" stroke="#070707" stroke-width="4" stroke-linecap="round" stroke-linejoin="round"/>
<path d="M156.09 280.22H134.33C132.441 280.22 130.91 281.751 130.91 283.64V294.65C130.91 296.539 132.441 298.07 134.33 298.07H156.09C157.979 298.07 159.51 296.539 159.51 294.65V283.64C159.51 281.751 157.979 280.22 156.09 280.22Z" fill="#F7F3EF" stroke="#070707" stroke-width="4" stroke-linecap="round" stroke-linejoin="round"/>
<path d="M240.944 251.269C248.412 245.819 250.048 235.347 244.598 227.879C239.148 220.411 228.676 218.775 221.208 224.224C213.74 229.674 212.104 240.146 217.553 247.615C223.003 255.083 233.475 256.719 240.944 251.269Z" fill="#F7F3EF" stroke="#070707" stroke-width="4" stroke-linecap="round" stroke-linejoin="round"/>
<path d="M245.733 236.992C247.118 227.572 240.603 218.813 231.183 217.429C221.763 216.044 213.004 222.559 211.62 231.979C210.236 241.399 216.75 250.158 226.17 251.542C235.59 252.927 244.349 246.412 245.733 236.992Z" fill="#F7F3EF" stroke="#070707" stroke-width="4" stroke-linecap="round" stroke-linejoin="round"/>
<path d="M226.36 248.55H242.9C246.613 248.55 250.174 250.025 252.8 252.65C255.425 255.276 256.9 258.837 256.9 262.55V295.31C256.9 296.44 256.451 297.523 255.652 298.322C254.853 299.121 253.77 299.57 252.64 299.57H216.59C215.46 299.57 214.377 299.121 213.578 298.322C212.779 297.523 212.33 296.44 212.33 295.31V262.55C212.33 260.709 212.693 258.886 213.399 257.185C214.104 255.485 215.138 253.94 216.441 252.64C217.744 251.339 219.291 250.309 220.993 249.607C222.695 248.905 224.519 248.546 226.36 248.55Z" fill="#F7F3EF" stroke="#070707" stroke-width="4" stroke-linecap="round" stroke-linejoin="round"/>
<path d="M226.36 248.55H242.9C246.613 248.55 250.174 250.025 252.8 252.65C255.425 255.276 256.9 258.837 256.9 262.55V295.31C256.9 296.44 256.451 297.523 255.652 298.322C254.853 299.121 253.77 299.57 252.64 299.57H216.59C215.46 299.57 214.377 299.121 213.578 298.322C212.779 297.523 212.33 296.44 212.33 295.31V262.55C212.33 260.709 212.693 258.886 213.399 257.185C214.104 255.485 215.138 253.94 216.441 252.64C217.744 251.339 219.291 250.309 220.993 249.607C222.695 248.905 224.519 248.546 226.36 248.55Z" fill="#1C0E0C"/>
<path d="M214.44 248.55H231C234.713 248.55 238.274 250.025 240.899 252.65C243.525 255.276 245 258.837 245 262.55V295.31C245 296.44 244.551 297.523 243.752 298.322C242.953 299.121 241.87 299.57 240.74 299.57H204.66C203.53 299.57 202.447 299.121 201.648 298.322C200.849 297.523 200.4 296.44 200.4 295.31V262.55C200.4 260.708 200.763 258.884 201.469 257.183C202.175 255.482 203.21 253.937 204.515 252.636C205.819 251.336 207.367 250.305 209.07 249.604C210.773 248.903 212.598 248.545 214.44 248.55V248.55Z" fill="#F7F3EF" stroke="#070707" stroke-width="4" stroke-linecap="round" stroke-linejoin="round"/>
<path d="M236.09 267.35H214.33C212.441 267.35 210.91 268.881 210.91 270.77V281.78C210.91 283.669 212.441 285.2 214.33 285.2H236.09C237.979 285.2 239.51 283.669 239.51 281.78V270.77C239.51 268.881 237.979 267.35 236.09 267.35Z" fill="#F7F3EF" stroke="#070707" stroke-width="4" stroke-linecap="round" stroke-linejoin="round"/>
<path d="M233.39 265.04H211.63C209.741 265.04 208.21 266.571 208.21 268.46V279.47C208.21 281.359 209.741 282.89 211.63 282.89H233.39C235.279 282.89 236.81 281.359 236.81 279.47V268.46C236.81 266.571 235.279 265.04 233.39 265.04Z" fill="#F7F3EF" stroke="#070707" stroke-width="4" stroke-linecap="round" stroke-linejoin="round"/>
</svg>
