<svg width="472" height="1166" viewBox="0 0 472 1166" fill="none" xmlns="http://www.w3.org/2000/svg">
<path d="M437.66 727.09C429.97 840.99 411.82 926.8 413.6 945.64C413.6 945.64 449.4 1086.8 433.38 1242.87C433.38 1242.87 370.11 1249.42 343.2 1242.87C343.2 1242.87 340.61 1225.37 335.53 1199.13C325.78 1148.73 316.79 1066.07 306.19 1013.02C302.67 995.44 288.6 927.08 274.96 853.35C255.03 903.82 236.36 936.46 220.09 980.75C220.09 980.75 222.88 1151.93 158.35 1247.24L56.4697 1240.85C56.4697 1240.85 85.3597 1105 98.7997 986.44L185 478.61H338.91C338.91 478.61 446.7 568.87 437.66 727.09Z" fill="#F7F3EF" stroke="#070707" stroke-width="4" stroke-linecap="round" stroke-linejoin="round"/>
<path d="M274.17 858.87L253.87 708.07" stroke="#070707" stroke-width="4" stroke-linecap="round" stroke-linejoin="round"/>
<path d="M318.65 194.87C340.02 200.13 393.9 213.94 409.65 237.39C430.17 267.89 463.94 414.77 463.94 414.77L405.05 397.41C405.05 397.41 367.29 329 364.74 329C362.19 329 338.89 478.62 338.89 478.62H185L172.22 403C172.22 403 139.53 376.44 141.58 360.1C143.63 343.76 144.24 339 144.24 339C144.24 339 126.75 345.43 78.7498 392.92L22.5898 368.3C22.5898 368.3 109.41 245.55 134.43 230.83C159.45 216.11 189.07 213.06 189.07 213.06L318.65 194.87Z" fill="#F7F3EF" stroke="#070707" stroke-width="4" stroke-linecap="round" stroke-linejoin="round"/>
<path d="M244.55 93.3398C244.55 93.3398 263.78 170.84 327.55 197.81C327.55 197.81 280.97 230.07 182.98 218.1C182.98 218.1 217.74 178.55 211.17 134.64L244.55 93.3398Z" fill="#FCBE9F" stroke="#070707" stroke-width="4" stroke-linecap="round" stroke-linejoin="round"/>
<path d="M202 203.88C199.337 203.971 196.689 203.437 194.27 202.32C203.77 186.78 215.27 161.53 211.27 134.64L243.48 94.73C244.79 96.53 245.48 97.63 245.48 97.63C249.94 111.61 252.62 201.68 202 203.88Z" fill="#1C0E0C"/>
<path d="M244.55 93.3399C249.08 107.34 242.84 174.01 205.85 178.55C178.04 181.96 147.26 126.11 143.27 113.55C139.28 100.99 144.16 71 173.91 62C213.79 49.9 244.55 93.3399 244.55 93.3399Z" fill="#FCBE9F" stroke="#070707" stroke-width="4" stroke-linecap="round" stroke-linejoin="round"/>
<path d="M158.53 78.5799C158.53 78.5799 186 101.88 244.53 93.3399C244.53 93.3399 261.62 172.11 327.53 197.81C327.53 197.81 370.09 149.58 341.47 116.41C323.3 95.4099 282.47 113.85 282.47 113.85C282.47 113.85 318.79 22.3899 228.63 21.9599C138.47 21.5299 119.11 117.26 146.19 120.81C146.3 120.81 133 93.3399 158.53 78.5799Z" fill="#1C0E0C"/>
<path d="M345.82 108.25C314.63 84.5101 280.82 114.25 280.82 114.25" stroke="#070707" stroke-width="4" stroke-linecap="round" stroke-linejoin="round"/>
<path d="M157.67 77.73C157.67 77.73 173.02 112.2 231.57 103.66" stroke="#070707" stroke-width="4" stroke-linecap="round" stroke-linejoin="round"/>
<path d="M135.15 101.33C135.15 101.33 126.2 67.6999 135.6 51.8899C145 36.0799 187.72 4.45988 218.06 2.32988C248.4 0.199883 314.63 36.9399 314.63 36.9399C314.63 36.9399 259.18 39.7299 249.09 108.19C249.09 108.19 223.78 51.1099 178.66 60.8099C133.54 70.5099 135.15 101.33 135.15 101.33Z" fill="#EFAF00" stroke="black" stroke-width="4" stroke-linecap="round" stroke-linejoin="round"/>
<path d="M301.42 185C301.42 185 282 238.86 280 278.3C280 278.3 211.93 287.94 196.2 279.3C186.41 273.91 198.89 199.39 198.89 199.39L175.38 215.47C175.38 215.47 146.9 317.85 144.24 339C141.58 360.15 133.41 372.91 172.24 403L185 478.6L143.38 691.4C143.38 691.4 302.97 702.79 359.65 687.98C416.33 673.17 338.91 478.6 338.91 478.6L350.41 406.68C350.41 406.68 285.61 346.34 318.67 194.87L301.42 185Z" fill="#EFAF00" stroke="black" stroke-width="4" stroke-linecap="round" stroke-linejoin="round"/>
<path d="M405.43 431.66C400.96 429.83 387.53 388.66 419.87 379.77C462.29 368.17 470.75 390.1 469.62 408.24C467.46 443.2 445.25 448 405.43 431.66Z" fill="#F7F3EF" stroke="#070707" stroke-width="4" stroke-linecap="round" stroke-linejoin="round"/>
<path d="M246.11 471.25L245.65 471.01C245.242 470.796 244.879 470.504 244.584 470.15C244.288 469.796 244.065 469.387 243.928 468.947C243.791 468.506 243.741 468.043 243.783 467.584C243.824 467.125 243.956 466.678 244.17 466.27L270.9 408.36C271.334 407.534 272.078 406.914 272.969 406.637C273.86 406.359 274.824 406.447 275.65 406.88L281.71 410.05C282.12 410.264 282.484 410.557 282.78 410.911C283.077 411.266 283.301 411.675 283.439 412.116C283.577 412.557 283.628 413.021 283.587 413.482C283.546 413.942 283.414 414.39 283.2 414.8L250.85 469.8C250.413 470.62 249.669 471.233 248.78 471.505C247.891 471.776 246.931 471.685 246.11 471.25Z" fill="#F7F3EF" stroke="#070707" stroke-width="4" stroke-linecap="round" stroke-linejoin="round"/>
<path d="M248.353 471.207L244.348 469.11L195.626 562.189L199.63 564.286L248.353 471.207Z" fill="#F7F3EF" stroke="#070707" stroke-width="4" stroke-linecap="round" stroke-linejoin="round"/>
<path d="M203.88 588.239C197.58 600.299 182.29 611.839 174.39 607.709C166.49 603.579 167.27 584.439 173.58 572.379C179.89 560.319 190.14 558.759 197.89 562.819C205.64 566.879 210.19 576.189 203.88 588.239Z" fill="#F7F3EF" stroke="#070707" stroke-width="4" stroke-linecap="round" stroke-linejoin="round"/>
<path d="M440 440.78C402.36 463.24 325.24 496.31 281.59 506C276.26 517.91 258.5 536.36 254.08 537.28C248.99 538.34 247.08 535.84 242.08 533.99C233.51 530.84 237.62 524.66 231.96 523.55C226.3 522.44 225.03 513.91 225.03 513.91C225.03 513.91 219.7 514.61 216.5 523.38C212.5 534.38 206.67 531.81 206.67 531.81C206.67 531.81 209.67 514.04 212.19 510.69C216.335 505.263 221.026 500.277 226.19 495.81C229.37 493.13 256.77 487.98 270.37 488.12C304.43 458.87 362.46 416.01 400.76 400.12C428.26 388.79 473.83 420.56 440 440.78Z" fill="#FCBE9F" stroke="#070707" stroke-width="4" stroke-linecap="round" stroke-linejoin="round"/>
<path d="M8.53997 422.88C4.06997 421.06 -9.20002 376.59 22.98 367.15C55.16 357.71 78.38 379.79 79.66 397.92C80.26 406.42 48.36 439.17 8.53997 422.88Z" fill="#F7F3EF" stroke="#070707" stroke-width="4" stroke-linecap="round" stroke-linejoin="round"/>
<path d="M40.8399 456.06C35.7299 454.06 -15.9601 422.19 15.5799 397.35C56.8099 364.89 71.5099 423.27 71.5099 423.27L40.8399 456.06Z" fill="#FCBE9F" stroke="#070707" stroke-width="4" stroke-linecap="round" stroke-linejoin="round"/>
<path d="M91 433.34L90.5201 433.54C90.096 433.721 89.6404 433.817 89.1794 433.821C88.7183 433.826 88.2609 433.739 87.8335 433.566C87.406 433.393 87.0169 433.138 86.6886 432.814C86.3602 432.49 86.099 432.105 85.92 431.68L58.12 374.27C57.939 373.846 57.8435 373.39 57.839 372.929C57.8346 372.468 57.9212 372.011 58.094 371.583C58.2669 371.156 58.5225 370.767 58.8461 370.439C59.1698 370.11 59.5551 369.849 59.98 369.67L66.2801 366.99C67.1382 366.627 68.1054 366.618 68.9695 366.967C69.8337 367.316 70.5243 367.993 70.8901 368.85L92.8901 428.73C93.0704 429.157 93.1646 429.615 93.1672 430.078C93.1697 430.541 93.0805 431 92.9048 431.429C92.7291 431.857 92.4704 432.247 92.1435 432.575C91.8166 432.903 91.428 433.163 91 433.34V433.34Z" fill="#F7F3EF" stroke="#070707" stroke-width="4" stroke-linecap="round" stroke-linejoin="round"/>
<path d="M92.3524 431.584L88.1914 433.349L129.225 530.065L133.386 528.299L92.3524 431.584Z" fill="#F7F3EF" stroke="#070707" stroke-width="4" stroke-linecap="round" stroke-linejoin="round"/>
<path d="M154.61 540.2C159.92 552.73 159.15 571.87 150.95 575.35C142.75 578.83 128.44 566.09 123.13 553.56C117.82 541.03 123.13 532.12 131.13 528.7C139.36 525.22 149.29 527.68 154.61 540.2Z" fill="#F7F3EF" stroke="#070707" stroke-width="4" stroke-linecap="round" stroke-linejoin="round"/>
<path d="M67.83 423.48C70.56 421.71 77.38 418.6 86.92 427.2C96.46 435.8 122.44 464.78 118.78 468.44C111.78 475.44 97.89 451.92 95.12 454.57C94.33 455.33 94.67 457.16 94.4 459.09C94.13 461.02 93.25 463.03 90 464.16C85.66 465.69 90 471.25 83.94 474.59C77.88 477.93 80.82 479.59 76.45 484.78C71.45 490.65 43.52 473.28 39.1 463.94C34.68 454.6 56.2 431.05 67.83 423.48Z" fill="#FCBE9F" stroke="#070707" stroke-width="4" stroke-linecap="round" stroke-linejoin="round"/>
<path d="M158.26 128.61C158.26 128.61 167.57 133.71 171.34 123.51" stroke="#070707" stroke-width="4" stroke-linecap="round" stroke-linejoin="round"/>
<path d="M189.88 116.69C189.88 116.69 200.25 122.93 207.88 110.85" stroke="#070707" stroke-width="4" stroke-linecap="round" stroke-linejoin="round"/>
<path d="M178.85 122.04V138.33L186.26 143.43" stroke="#070707" stroke-width="4" stroke-linecap="round" stroke-linejoin="round"/>
<path d="M192.4 153.65C192.4 153.65 202.7 150.41 204.15 142.79" stroke="#070707" stroke-width="4" stroke-linecap="round" stroke-linejoin="round"/>
<path d="M192.77 297.07H278.5" stroke="#070707" stroke-width="4" stroke-linecap="round" stroke-linejoin="round"/>
<path d="M196.48 440.64H239.04" stroke="#070707" stroke-width="4" stroke-linecap="round" stroke-linejoin="round"/>
<path d="M285.382 122.155C294.79 111.786 299.237 100.496 295.314 96.9369C291.392 93.3778 280.586 98.8978 271.178 109.266C261.77 119.634 257.323 130.925 261.245 134.484C265.167 138.043 275.974 132.523 285.382 122.155Z" fill="#E57B07" stroke="#070707" stroke-width="4" stroke-linecap="round" stroke-linejoin="round"/>
</svg>
