<svg width="584" height="1177" viewBox="0 0 584 1177" fill="none" xmlns="http://www.w3.org/2000/svg">
<path d="M236.703 375.848C186.703 372.628 133.103 300.428 115.893 275.258C107.893 279.598 96.0432 285.448 86.2732 285.778C82.8132 285.898 81.7333 278.028 81.7333 278.028C79.8333 277.328 78.3833 274.028 78.4833 270.688C78.4833 270.688 74.6333 268.758 74.8633 263.388C72.8713 261.904 71.4403 259.789 70.8033 257.388C69.6233 252.238 82.4233 247.038 84.0533 246.078C87.2033 244.208 82.9233 244.518 80.7033 241.888C74.5033 234.528 78.5332 230.968 78.5332 230.968C78.5332 230.968 85.2732 235.548 91.5332 236.728C97.7932 237.908 105.823 240.288 107.883 241.518C113.077 244.864 117.869 248.797 122.163 253.238C147.273 270.538 212.733 308.188 212.733 308.188C215.343 179.068 240.643 174.338 256.883 170.038C256.913 170.038 297.343 379.758 236.703 375.848Z" fill="#C48270" stroke="#0F0F0F" stroke-width="4" stroke-linecap="round" stroke-linejoin="round"/>
<path d="M57.5234 254.608L90.2834 305.758C91.0701 306.978 91.6076 308.341 91.865 309.77C92.1224 311.198 92.0947 312.663 91.7833 314.081C91.4719 315.498 90.883 316.84 90.0506 318.029C89.2183 319.218 88.1588 320.231 86.9334 321.008L54.4734 341.808C53.249 342.597 51.8811 343.135 50.4481 343.393C49.015 343.652 47.5451 343.624 46.1226 343.313C44.7002 343.002 43.3532 342.413 42.1589 341.58C40.9647 340.747 39.9467 339.686 39.1634 338.458L12.2334 296.398L2.2334 290.008C4.2334 291.878 20.7834 283.748 34.5334 274.938C48.2834 266.128 58.3734 257.178 57.5334 254.618L57.5234 254.608Z" stroke="#070707" stroke-width="4" stroke-linecap="round" stroke-linejoin="round"/>
<path d="M57.4133 254.438C57.4501 254.493 57.4771 254.554 57.4933 254.618C58.3733 257.178 48.2933 266.128 34.4933 274.938C20.6933 283.748 4.16333 291.878 2.23333 290.008C2.18246 289.965 2.1386 289.914 2.10333 289.858C0.63333 287.568 15.1033 275.668 29.2233 266.638C43.3433 257.608 55.9433 252.148 57.4133 254.438Z" stroke="#070707" stroke-width="4" stroke-linecap="round" stroke-linejoin="round"/>
<path d="M65.9034 249.228C71.9034 245.408 82.7134 249.228 83.9934 256.228L90.2834 305.788L62.8834 263.058C62.1723 261.952 61.6863 260.717 61.4533 259.423C61.2202 258.129 61.2446 256.801 61.5251 255.517C61.8056 254.232 62.3368 253.015 63.088 251.936C63.8393 250.857 64.796 249.937 65.9034 249.228V249.228Z" stroke="#070707" stroke-width="4" stroke-linecap="round" stroke-linejoin="round"/>
<path d="M101.284 272.609C102.674 277.919 97.7638 280.699 85.6238 284.609C85.6238 284.609 85.1538 284.939 80.1738 273.609C72.8538 256.909 73.7137 254.099 73.7137 254.099C80.3837 251.649 87.0038 250.099 89.3938 249.369C94.3638 247.899 100.374 269.179 101.284 272.609Z" fill="#C48270"/>
<path d="M95.7332 272.609C95.7332 272.609 99.8732 269.849 101.283 272.609C103.773 277.499 97.2032 280.498 85.0732 284.438" fill="#C48270"/>
<path d="M95.7332 272.609C95.7332 272.609 99.8732 269.849 101.283 272.609C103.773 277.499 97.2032 280.498 85.0732 284.438" stroke="#0F0F0F" stroke-width="4" stroke-linecap="round" stroke-linejoin="round"/>
<path d="M81.8633 277.368C95.5133 273.458 99.1933 270.858 99.1933 270.858C101.123 270.098 99.6633 262.018 95.7433 263.578" fill="#C48270"/>
<path d="M81.8633 277.368C95.5133 273.458 99.1933 270.858 99.1933 270.858C101.123 270.098 99.6633 262.018 95.7433 263.578" stroke="#0F0F0F" stroke-width="4" stroke-linecap="round" stroke-linejoin="round"/>
<path d="M78.4131 269.708C92.7931 265.318 95.7431 263.578 95.7431 263.578C97.8331 262.928 96.6531 254.928 91.6031 256.578" fill="#C48270"/>
<path d="M78.4131 269.708C92.7931 265.318 95.7431 263.578 95.7431 263.578C97.8331 262.928 96.6531 254.928 91.6031 256.578" stroke="#0F0F0F" stroke-width="4" stroke-linecap="round" stroke-linejoin="round"/>
<path d="M73.7129 254.118C74.5129 256.288 87.0029 250.118 89.3929 249.388C92.7629 248.388 95.8529 255.058 91.6029 256.548C86.2719 259.069 80.7136 261.078 75.0029 262.548" fill="#C48270"/>
<path d="M73.7129 254.118C74.5129 256.288 87.0029 250.118 89.3929 249.388C92.7629 248.388 95.8529 255.058 91.6029 256.548C86.2719 259.069 80.7136 261.078 75.0029 262.548" stroke="#0F0F0F" stroke-width="4" stroke-linecap="round" stroke-linejoin="round"/>
<path d="M444.313 1157.83C449.443 1165.51 451.993 1165.98 451.063 1174.6H392.163C392.163 1174.6 392.633 1164.81 402.163 1161.6C411.693 1158.39 423.423 1135.45 421.003 1125.67C413.343 1095.84 402.823 1048.12 394.173 1007.24C423.113 1005.78 444.873 1003.36 460.493 1001C457.063 1048.85 447.293 1100.55 439.623 1130.13C439.163 1134.5 439.163 1150.15 444.313 1157.83Z" fill="#C48270" stroke="#0F0F0F" stroke-width="4" stroke-linecap="round" stroke-linejoin="round"/>
<path d="M445.063 1158.61C450.063 1163.72 452.063 1167.61 451.063 1174.61H392.163C392.163 1174.61 389.563 1164.11 405.933 1157.07C411.593 1154.61 439.623 1153.03 445.063 1158.61Z" fill="#EFAF00" stroke="black" stroke-width="4" stroke-linecap="round" stroke-linejoin="round"/>
<path d="M269.663 1123.35C267.483 1129.21 267.913 1141.03 270.323 1147.35C274.523 1158.35 278.013 1174.62 263.323 1174.62H182.523C182.523 1174.62 180.663 1163.91 202.083 1160.88C222.763 1157.96 249.503 1145.88 249.313 1125.23C244.983 1095.16 239.733 1045.76 235.593 1003.74C251.173 1005.56 272.893 1007.29 302.133 1008.08C294.033 1050.58 280.323 1095.01 269.713 1123.26C269.695 1123.29 269.679 1123.32 269.663 1123.35Z" fill="#C48270" stroke="#0F0F0F" stroke-width="4" stroke-linecap="round" stroke-linejoin="round"/>
<path d="M270.323 1147.33C270.323 1147.33 282.493 1174.6 264.803 1174.6H182.523C182.523 1174.6 179.213 1164.29 200.583 1160.86C203.583 1160.38 212.053 1158.75 212.053 1158.75C212.053 1158.75 209.423 1166.38 228.223 1165.55C247.023 1164.72 255.503 1148.67 270.323 1147.33Z" fill="#EFAF00" stroke="black" stroke-width="4" stroke-linecap="round" stroke-linejoin="round"/>
<path d="M492.683 994.259C492.683 994.259 463.223 880.659 471.363 767.929C478.543 668.469 497.883 592.089 459.913 484.729L459.653 484.839C434.413 413.979 396.353 375.379 396.353 375.379C383.453 326.669 428.943 232.599 428.823 194.379C428.733 168.909 383.453 153.549 383.453 153.549L264.913 167.289L256.913 170.039C256.913 170.039 238.233 218.739 228.913 240.589C212.163 280.209 247.243 307.049 252.013 309.909C256.783 312.769 264.913 375.379 264.913 375.379C224.783 489.099 209.483 589.609 209.483 589.609C186.643 717.789 202.293 998.049 202.293 998.049C202.293 998.049 237.803 1009.15 344.943 1008.52C452.083 1007.89 492.683 994.259 492.683 994.259Z" fill="#F7F3EF"/>
<path d="M217.134 210.858H459.884" stroke="#070707" stroke-width="4" stroke-linecap="round" stroke-linejoin="round"/>
<path d="M217.134 256.738H459.884" stroke="#070707" stroke-width="4" stroke-linecap="round" stroke-linejoin="round"/>
<path d="M217.134 302.618H459.884" stroke="#070707" stroke-width="4" stroke-linecap="round" stroke-linejoin="round"/>
<path d="M217.134 348.488H459.884" stroke="#070707" stroke-width="4" stroke-linecap="round" stroke-linejoin="round"/>
<path d="M217.134 394.368H459.884" stroke="#070707" stroke-width="4" stroke-linecap="round" stroke-linejoin="round"/>
<path d="M217.134 440.249H459.884" stroke="#070707" stroke-width="4" stroke-linecap="round" stroke-linejoin="round"/>
<path d="M217.134 486.118H459.884" stroke="#070707" stroke-width="4" stroke-linecap="round" stroke-linejoin="round"/>
<path d="M217.134 531.999H486.244" stroke="#070707" stroke-width="4" stroke-linecap="round" stroke-linejoin="round"/>
<path d="M194.854 577.879H486.244" stroke="#070707" stroke-width="4" stroke-linecap="round" stroke-linejoin="round"/>
<path d="M182.964 623.749H542.764" stroke="#070707" stroke-width="4" stroke-linecap="round" stroke-linejoin="round"/>
<path d="M182.964 669.629H542.764" stroke="#070707" stroke-width="4" stroke-linecap="round" stroke-linejoin="round"/>
<path d="M182.964 715.509H542.764" stroke="#070707" stroke-width="4" stroke-linecap="round" stroke-linejoin="round"/>
<path d="M182.964 761.379H542.764" stroke="#070707" stroke-width="4" stroke-linecap="round" stroke-linejoin="round"/>
<path d="M182.964 807.259H542.764" stroke="#070707" stroke-width="4" stroke-linecap="round" stroke-linejoin="round"/>
<path d="M182.964 853.139H542.764" stroke="#070707" stroke-width="4" stroke-linecap="round" stroke-linejoin="round"/>
<path d="M182.964 899.009H542.764" stroke="#070707" stroke-width="4" stroke-linecap="round" stroke-linejoin="round"/>
<path d="M182.964 944.889H581.844" stroke="#070707" stroke-width="4" stroke-linecap="round" stroke-linejoin="round"/>
<path d="M149.934 990.759H581.844" stroke="#070707" stroke-width="4" stroke-linecap="round" stroke-linejoin="round"/>
<path d="M272.313 153.559V1025.7" stroke="#070707" stroke-width="4" stroke-linecap="round" stroke-linejoin="round"/>
<path d="M313.754 153.559V1025.7" stroke="#070707" stroke-width="4" stroke-linecap="round" stroke-linejoin="round"/>
<path d="M355.184 153.559V1025.7" stroke="#070707" stroke-width="4" stroke-linecap="round" stroke-linejoin="round"/>
<path d="M396.624 153.559V1025.7" stroke="#070707" stroke-width="4" stroke-linecap="round" stroke-linejoin="round"/>
<path d="M438.063 153.559V1025.7" stroke="#070707" stroke-width="4" stroke-linecap="round" stroke-linejoin="round"/>
<path d="M230.874 153.559V1025.7" stroke="#070707" stroke-width="4" stroke-linecap="round" stroke-linejoin="round"/>
<path d="M492.683 994.259C492.683 994.259 463.223 880.659 471.363 767.929C478.543 668.469 497.883 592.089 459.913 484.729L459.653 484.839C434.413 413.979 396.353 375.379 396.353 375.379C383.453 326.669 428.943 232.599 428.823 194.379C428.733 168.909 383.453 153.549 383.453 153.549L264.913 167.289L256.913 170.039C256.913 170.039 238.233 218.739 228.913 240.589C212.163 280.209 247.243 307.049 252.013 309.909C256.783 312.769 264.913 375.379 264.913 375.379C224.783 489.099 209.483 589.609 209.483 589.609C186.643 717.789 202.293 998.049 202.293 998.049C202.293 998.049 237.803 1009.15 344.943 1008.52C452.083 1007.89 492.683 994.259 492.683 994.259Z" stroke="#070707" stroke-width="4" stroke-linecap="round" stroke-linejoin="round"/>
<path d="M311.084 571.949C271.864 571.949 251.084 563.829 240.474 553.529C251.634 559.709 270.054 564.149 299.924 564.759C388.344 566.559 397.494 428.099 398.274 387.479C400.074 418.609 404.164 571.949 311.084 571.949Z" fill="#1C0E0C"/>
<path d="M398.293 376.408C398.293 376.408 403.523 566.868 299.923 564.758C205.183 562.828 225.613 522.288 227.473 510.348C234.173 467.348 266.863 376.408 266.863 376.408C266.863 376.408 304.403 389.798 398.293 376.408Z" fill="#EFAF00" stroke="black" stroke-width="4" stroke-linecap="round" stroke-linejoin="round"/>
<path d="M478.244 341.718C471.164 392.608 357.764 500.758 354.854 503.518L354.954 503.808C354.954 503.808 346.164 521.118 337.464 521.118C328.764 521.118 320.604 516.398 316.014 521.268C311.424 526.138 306.684 534.058 303.184 534.758C298.953 535.664 294.54 535.088 290.684 533.128C290.684 533.128 293.684 525.828 296.794 518.798C293.994 521.388 290.214 527.138 288.094 529.398C284.904 532.808 282.094 529.708 282.094 529.708C282.094 529.708 288.214 518.038 290.574 514.948C292.934 511.858 300.044 507.158 303.934 505.688C308.244 503.378 331.144 491.068 345.204 487.338C362.714 451.998 405.014 369.178 429.204 343.508C429.204 343.508 388.844 242.138 386.934 213.508C385.024 184.878 394.634 160.358 410.104 167.308C447.084 183.888 480.954 322.278 478.244 341.718Z" fill="#C48270" stroke="#0F0F0F" stroke-width="4" stroke-linecap="round" stroke-linejoin="round"/>
<path d="M295.714 533.149C295.714 533.149 303.784 514.779 306.604 512.869L318.034 505.059" stroke="#070707" stroke-width="4" stroke-linecap="round" stroke-linejoin="round"/>
<path d="M300.624 533.929C300.624 533.929 308.404 518.209 311.224 516.289C316.224 512.919 322.654 508.479 322.654 508.479" stroke="#070707" stroke-width="4" stroke-linecap="round" stroke-linejoin="round"/>
<path d="M243.423 21.1586C243.423 21.1586 206.893 11.9886 195.793 38.4286C184.693 64.8686 214.453 70.7185 213.343 84.9185C212.693 93.2785 216.833 116.389 240.883 98.9185C263.983 82.1285 354.803 161.329 383.453 153.569C412.103 145.809 433.593 100.689 411.033 84.2186C388.473 67.7486 374.863 90.6586 367.343 83.4986C359.823 76.3386 363.433 64.0386 345.123 60.9286C328.523 58.1186 321.123 73.4686 321.123 73.4686C321.123 73.4686 331.713 22.7686 304.733 7.72855C277.753 -7.31145 253.623 0.898554 243.423 21.1586Z" fill="#1C0E0C"/>
<path d="M411.603 77.7087C388.153 62.5287 377.603 84.0187 369.743 77.2887C361.883 70.5587 362.953 59.1587 344.493 57.0787C327.763 55.1987 320.163 73.8187 320.163 73.8187" stroke="#070707" stroke-width="4" stroke-linecap="round" stroke-linejoin="round"/>
<path d="M311.353 77.8789C311.353 77.8789 327.163 144.249 383.453 153.609C383.453 153.609 300.703 197.329 264.913 167.339C264.913 167.339 291.773 152.979 276.493 112.099L311.353 77.8789Z" fill="#C48270" stroke="#0F0F0F" stroke-width="4" stroke-linecap="round" stroke-linejoin="round"/>
<path d="M309.623 79.959C311.433 86.519 314.313 140.669 278.623 150.219C281.903 141.519 282.853 129.089 276.483 112.059L309.623 79.959Z" fill="#1C0E0C"/>
<path d="M313.513 56.3881C320.343 58.3881 316.513 80.3881 310.513 83.5781C312.353 90.1981 302.433 123.578 269.663 133.278C260.333 136.048 241.023 108.918 237.243 99.9481C231.713 86.8781 226.663 74.8081 225.723 69.9481C224.213 62.0881 223.833 44.4781 246.303 40.8081C266.003 37.5781 272.373 77.8881 304.233 63.8081C304.283 63.8281 306.603 54.3481 313.513 56.3881Z" fill="#C48270" stroke="#0F0F0F" stroke-width="4" stroke-linecap="round" stroke-linejoin="round"/>
<path d="M246.833 79.959V96.709L254.313 99.949" stroke="#070707" stroke-width="4" stroke-linecap="round" stroke-linejoin="round"/>
<path d="M258.443 110.609C258.443 110.609 267.383 112.489 271.343 102.229" stroke="#070707" stroke-width="4" stroke-linecap="round" stroke-linejoin="round"/>
<path d="M260.931 79.7201C262.348 79.0215 262.75 76.9414 261.829 75.074C260.908 73.2066 259.013 72.2591 257.596 72.9577C256.18 73.6563 255.778 75.7365 256.699 77.6039C257.62 79.4712 259.515 80.4187 260.931 79.7201Z" fill="#1C0E0C"/>
<path d="M239.459 90.2643C240.953 89.7508 241.615 87.7383 240.939 85.7693C240.262 83.8003 238.502 82.6203 237.008 83.1338C235.515 83.6472 234.852 85.6597 235.529 87.6287C236.206 89.5978 237.966 90.7777 239.459 90.2643Z" fill="#1C0E0C"/>
<path d="M229.963 74.079C230.466 72.9174 231.351 71.9627 232.472 71.3734C233.592 70.7841 234.881 70.5955 236.123 70.839" stroke="#070707" stroke-width="4" stroke-linecap="round" stroke-linejoin="round"/>
<path d="M306.873 79.9585C314.197 79.9585 320.133 74.0218 320.133 66.6985C320.133 59.3752 314.197 53.4385 306.873 53.4385C299.55 53.4385 293.613 59.3752 293.613 66.6985C293.613 74.0218 299.55 79.9585 306.873 79.9585Z" fill="#C48270"/>
<path d="M301.844 74.7887C300.962 71.5426 300.921 68.1253 301.724 64.8587C302.202 63.1411 303.145 61.5889 304.449 60.3731C305.753 59.1573 307.367 58.3253 309.114 57.9688" stroke="#070707" stroke-width="4" stroke-linecap="round" stroke-linejoin="round"/>
<path d="M309.114 68.2884L301.724 64.8584" stroke="#070707" stroke-width="4" stroke-linecap="round" stroke-linejoin="round"/>
<path d="M316.733 87.7384C320.141 87.7384 322.903 84.976 322.903 81.5685C322.903 78.1609 320.141 75.3984 316.733 75.3984C313.326 75.3984 310.563 78.1609 310.563 81.5685C310.563 84.976 313.326 87.7384 316.733 87.7384Z" fill="#F7F3EF" stroke="#070707" stroke-width="4" stroke-linecap="round" stroke-linejoin="round"/>
<path d="M250.573 65.0784C250.573 65.0784 252.293 59.0184 259.963 60.9384" stroke="#070707" stroke-width="4" stroke-linecap="round" stroke-linejoin="round"/>
</svg>
